<svg width="200" height="357" viewBox="0 0 200 357" fill="none" xmlns="http://www.w3.org/2000/svg">
<g clip-path="url(#clip0_311_29)" filter="url(#filter0_d_311_29)">
<path d="M34.2344 190.07V256.407C34.2344 260.212 35.2365 263.794 36.985 266.906C40.6686 273.461 47.6833 277.903 55.6794 277.903H117.285C124.99 277.903 131.777 273.78 135.557 267.619C137.569 264.349 138.73 260.51 138.73 256.407V190.07C138.73 188.615 138.584 187.194 138.301 185.815C137.534 182.011 135.758 178.56 133.256 175.767C129.324 171.36 123.615 168.574 117.285 168.574H55.6794C46.4808 168.574 38.5883 174.457 35.5613 182.655C34.7043 184.97 34.2413 187.471 34.2413 190.07H34.2344Z" fill="white"/>
<path d="M117.278 279.511H55.6725C42.9699 279.511 32.631 269.144 32.631 256.407V190.07C32.631 177.333 42.9699 166.967 55.6725 166.967H117.278C129.98 166.967 140.319 177.333 140.319 190.07V256.407C140.319 269.144 129.98 279.511 117.278 279.511ZM55.6725 170.182C44.7322 170.182 35.8308 179.107 35.8308 190.077V256.414C35.8308 267.384 44.7322 276.309 55.6725 276.309H117.278C128.218 276.309 137.119 267.384 137.119 256.414V190.077C137.119 179.107 128.218 170.182 117.278 170.182H55.6725Z" fill="#371A45"/>
<path d="M47.9943 174.853C47.9943 174.853 21.3107 205.274 21.3107 230.685C21.3107 252.43 47.9943 259.907 47.9943 259.907L84.9753 197.11L47.9943 174.853Z" fill="white"/>
<path d="M21.3107 230.685C21.3107 252.437 47.9943 259.914 47.9943 259.914L48.9065 258.368L84.9753 197.117L57.0961 180.334L47.9943 174.853C47.9943 174.853 21.3107 205.274 21.3107 230.685Z" fill="white"/>
<g opacity="0.35">
<path d="M32.4928 233.657C32.4928 246.214 41.3873 254.017 48.9066 258.361L84.9754 197.11L57.0962 180.327C50.814 188.102 32.4997 212.598 32.4997 233.65L32.4928 233.657Z" fill="#371A45"/>
</g>
<path d="M48.7476 261.785L47.5658 261.452C47.2824 261.376 40.5649 259.456 33.7506 254.772C24.5658 248.459 19.7142 240.123 19.7142 230.685C19.7142 204.969 45.686 175.053 46.7918 173.799L47.6764 172.794L87.1592 196.563L48.7476 261.792V261.785ZM48.3329 176.931C43.7993 182.392 22.9141 208.731 22.9141 230.685C22.9141 248.452 42.2788 256.276 47.2686 257.987L82.7915 197.665L48.3398 176.924L48.3329 176.931Z" fill="#371A45"/>
<path d="M127.492 211.725C127.492 211.725 138.799 225.917 156.906 222.785C175.683 219.535 172.359 188.199 172.359 188.199L143.83 177.188C143.83 177.188 145.606 186.972 141.473 186.972C136.85 186.972 128.584 176.051 121.369 172.781L127.492 211.725Z" fill="white"/>
<g opacity="0.35">
<path d="M123.276 184.963L127.485 211.732C127.485 211.732 138.792 225.924 156.899 222.792C175.676 219.542 172.352 188.206 172.352 188.206L159.228 195.267C168.081 196.854 166.968 213 153.54 215.329C135.433 218.468 124.59 189.834 124.59 189.834L123.276 184.963Z" fill="#371A45"/>
</g>
<path d="M151.639 224.85C136.09 224.85 126.677 213.27 126.241 212.723C125.688 212.03 125.799 211.018 126.49 210.471C127.181 209.916 128.183 210.027 128.736 210.72C128.847 210.852 139.704 224.129 156.629 221.205C171.944 218.558 171.184 194.491 170.838 189.335L145.744 179.648C145.924 182.087 145.841 185.434 144.341 187.229C143.609 188.109 142.614 188.573 141.466 188.573C138.391 188.573 134.783 185.365 130.602 181.657C127.285 178.712 123.85 175.663 120.706 174.236C119.904 173.869 119.545 172.919 119.911 172.115C120.277 171.305 121.224 170.951 122.026 171.318C125.606 172.947 129.227 176.155 132.724 179.26C135.951 182.122 139.607 185.372 141.466 185.372C141.66 185.372 141.764 185.323 141.888 185.178C142.869 184 142.683 179.883 142.254 177.479L141.75 174.672L173.845 187.063L173.948 188.04C174.094 189.377 177.203 220.907 157.175 224.372C155.254 224.704 153.409 224.857 151.639 224.857V224.85Z" fill="#371A45"/>
<g opacity="0.35">
<path d="M107.167 293.82C106.994 293.897 106.814 293.973 106.642 294.049C106.814 293.98 106.994 293.897 107.167 293.82Z" fill="#371A45"/>
</g>
<g opacity="0.35">
<path d="M84.9685 244.676C84.5193 245.362 84.0839 246.041 83.6692 246.706C84.0908 246.041 84.5262 245.362 84.9685 244.676Z" fill="#371A45"/>
</g>
<path d="M29.9357 331.157C29.9634 331.427 29.9979 331.705 30.0463 331.961C31.4009 340.013 40.8137 342.896 57.7527 340.672C65.424 339.674 76.0256 338.482 78.8245 332.363C84.4087 320.139 78.714 295.407 79.3705 279.559V279.531C79.3705 279.531 82.4528 279.913 86.2747 279.913C90.0965 279.913 93.1857 279.531 93.1857 279.531C93.1857 279.663 93.1926 279.788 93.1995 279.919C93.7662 295.781 88.1959 320.236 93.7386 332.363C96.5376 338.489 107.132 339.674 114.81 340.672C131.77 342.896 141.183 340.013 142.524 331.933C142.565 331.67 142.607 331.414 142.634 331.15C143.609 321.303 129.918 316.737 129.918 316.737C129.918 316.737 132.904 295.851 134.873 277.002C135.703 269.075 135.889 260.877 135.633 252.721C135.571 250.607 135.474 248.501 135.35 246.394C135.177 243.4 134.949 240.428 134.673 237.489C134.431 234.939 134.168 232.417 133.864 229.922C132.752 220.567 131.252 211.711 129.704 203.929C128.322 196.944 126.905 190.811 125.681 185.94C125.412 184.866 125.156 183.854 124.907 182.905C123.422 177.167 122.392 173.827 122.392 173.827H50.1644C50.1644 173.827 49.1277 177.195 47.6349 182.96C46.7572 186.342 45.7206 190.548 44.6424 195.392C44.2209 197.284 43.7993 199.272 43.3708 201.351C41.643 209.757 39.9291 219.562 38.692 229.992C38.4018 232.424 38.1391 234.898 37.9042 237.385C37.6208 240.434 37.3858 243.518 37.2061 246.623C37.0748 248.819 36.9781 251.03 36.9159 253.24C36.8744 254.703 36.8468 256.172 36.833 257.641C36.7777 264.162 37.0265 270.668 37.6899 276.995C39.6596 295.844 42.6452 316.73 42.6452 316.73C42.6452 316.73 28.9543 321.303 29.9288 331.143L29.9357 331.157Z" fill="white"/>
<g opacity="0.35">
<path d="M93.7317 332.363C96.5307 338.489 107.132 339.674 114.804 340.678C131.763 342.896 141.176 340.013 142.517 331.933C128.633 337.463 104.161 334.303 99.9724 327.29C94.5542 318.206 93.6765 309.121 102.101 297.798C110.526 286.482 111.175 271.701 111.175 271.701C107.146 274.674 98.8667 277.903 93.1927 279.919C93.7594 295.781 88.1891 320.229 93.7317 332.363Z" fill="#371A45"/>
</g>
<g opacity="0.35">
<path d="M30.0463 331.968C31.4008 340.027 40.8137 342.896 57.7527 340.686C65.424 339.681 76.0255 338.496 78.8245 332.37C84.4086 320.146 78.707 295.414 79.3705 279.566C74.6779 278.09 65.9838 275.083 61.4086 271.708C61.4086 271.708 59.1003 282.338 68.921 296.863C76.841 308.581 77.4146 317.908 71.9964 326.993C68.1538 333.437 45.3128 336.084 30.0463 331.982V331.968Z" fill="#371A45"/>
</g>
<path d="M126.2 185.815C127.948 191.054 129.379 196.39 130.651 201.76C131.279 204.449 131.874 207.145 132.399 209.854C132.662 211.212 132.931 212.564 133.18 213.922L133.864 218.01C134.099 219.368 134.307 220.74 134.507 222.106L135.115 226.208C135.295 227.58 135.468 228.952 135.627 230.324C135.806 231.696 135.938 233.075 136.076 234.447C136.684 239.949 136.995 245.479 137.23 251.016C137.354 256.553 137.451 262.103 137.133 267.647L137.036 269.726L136.988 270.765L136.905 271.805L136.56 275.956C136.325 278.721 135.993 281.444 135.689 284.188C134.438 295.137 133.028 306.051 131.494 316.965L130.416 315.212C131.162 315.475 131.784 315.732 132.447 316.03C133.097 316.321 133.74 316.64 134.369 316.972C135.627 317.644 136.85 318.407 138.011 319.28C139.172 320.146 140.264 321.158 141.238 322.301C142.206 323.451 143.028 324.789 143.574 326.265C144.127 327.741 144.341 329.362 144.238 330.928C144.148 332.474 143.761 334.012 143.056 335.454C142.337 336.881 141.294 338.156 140.057 339.112C138.833 340.089 137.465 340.796 136.083 341.309C133.304 342.348 130.457 342.737 127.658 342.917C124.852 343.076 122.074 342.979 119.323 342.764C117.948 342.646 116.573 342.515 115.211 342.335L111.161 341.801C108.452 341.42 105.715 340.983 102.986 340.249C101.624 339.882 100.263 339.431 98.9219 338.856C97.5881 338.267 96.2611 337.539 95.0586 336.555C94.4574 336.056 93.8976 335.488 93.3931 334.851C92.8955 334.227 92.467 333.458 92.1698 332.765C91.5547 331.414 91.1539 330.021 90.8083 328.628C90.1449 325.835 89.8615 323.036 89.7371 320.257C89.6058 317.478 89.6473 314.72 89.7578 311.976C89.979 306.488 90.4904 301.062 90.9327 295.657C91.3612 290.265 91.7828 284.867 91.5893 279.587L93.3861 281.111C92.1698 281.25 91.0156 281.34 89.8269 281.402C88.6452 281.465 87.4703 281.499 86.2816 281.499C85.0998 281.499 83.918 281.465 82.7362 281.402C81.5475 281.333 80.4003 281.25 79.177 281.111L80.9739 279.587C80.7804 284.867 81.195 290.265 81.6304 295.657C82.0727 301.055 82.5772 306.488 82.8053 311.976C82.9159 314.72 82.9573 317.478 82.826 320.257C82.7016 323.036 82.4183 325.835 81.7548 328.628C81.4093 330.021 81.0084 331.414 80.3933 332.765C80.0962 333.458 79.6677 334.234 79.1701 334.851C78.6725 335.488 78.1058 336.056 77.5045 336.555C76.2951 337.546 74.9751 338.274 73.6412 338.856C72.3005 339.431 70.939 339.882 69.5775 340.249C66.8477 340.976 64.1109 341.42 61.4018 341.801L57.3519 342.335C55.9904 342.515 54.6151 342.64 53.2398 342.764C50.4892 342.979 47.704 343.069 44.9051 342.917C42.1061 342.737 39.2587 342.348 36.4805 341.309C35.0983 340.789 33.7299 340.089 32.5066 339.112C31.2765 338.156 30.226 336.881 29.5072 335.454C28.8023 334.012 28.4153 332.474 28.3254 330.928C28.2218 329.362 28.436 327.741 28.9889 326.265C29.5418 324.789 30.3573 323.451 31.3248 322.301C32.2993 321.151 33.3912 320.146 34.5523 319.28C35.7134 318.4 36.9366 317.644 38.1944 316.972C38.8233 316.64 39.4661 316.321 40.1157 316.03C40.7792 315.732 41.4012 315.475 42.1476 315.212L41.0694 316.965C39.5283 305.968 38.1046 294.964 36.8468 283.932C36.5496 281.167 36.211 278.43 35.976 275.63C35.8654 274.237 35.7064 272.844 35.6304 271.445L35.3954 267.252C35.1743 261.66 35.2088 256.075 35.43 250.496C35.6442 244.918 36.0866 239.353 36.6602 233.81C36.7846 232.424 36.9504 231.038 37.1094 229.652C37.2614 228.266 37.4273 226.887 37.607 225.501C37.9456 222.736 38.3257 219.978 38.7542 217.22C39.5974 211.704 40.634 206.264 41.9195 200.797C42.2581 199.439 42.6175 198.094 42.9976 196.757C43.3708 195.413 43.7717 194.082 44.1932 192.752C45.0433 190.098 45.9486 187.451 47.1166 184.887C47.241 184.616 47.5589 184.499 47.8284 184.623C48.0634 184.727 48.1809 184.984 48.1325 185.219C47.0268 190.631 46.0039 196.071 44.9327 201.476C43.9721 206.86 43.0114 212.328 42.1268 217.761C40.323 228.64 39.0514 239.617 38.6298 250.621C38.4087 256.123 38.381 261.625 38.5953 267.114C38.8233 272.602 39.4039 278.048 40.0328 283.564C41.2837 294.555 42.7073 305.552 44.2416 316.508L44.4282 317.818L43.1635 318.261C42.6313 318.448 42.0024 318.705 41.4288 318.961C40.8414 319.224 40.2677 319.508 39.701 319.806C38.5745 320.409 37.4826 321.088 36.4805 321.844C34.4763 323.347 32.7831 325.225 31.9952 327.374C31.5944 328.441 31.4492 329.577 31.5253 330.714C31.5944 331.885 31.8915 333.021 32.3753 334.019C33.3636 336.022 35.3056 337.463 37.6139 338.309C39.9222 339.175 42.5 339.556 45.0917 339.715C47.6971 339.861 50.3441 339.778 52.991 339.57C54.311 339.452 55.6379 339.327 56.9649 339.154L60.9733 338.627C63.6271 338.26 66.2464 337.83 68.7551 337.158C71.2431 336.479 73.6827 335.564 75.4796 334.088C75.9219 333.721 76.3158 333.319 76.6545 332.89L76.8964 332.564L77.1106 332.224C77.1866 332.113 77.235 331.989 77.2972 331.871L77.387 331.691L77.4769 331.476C77.9883 330.353 78.3408 329.127 78.6518 327.886C79.2461 325.392 79.5226 322.765 79.64 320.118C79.7644 317.471 79.7299 314.796 79.6193 312.115C79.3982 306.744 78.8937 301.353 78.4513 295.934C78.0229 290.508 77.5875 285.047 77.7879 279.462L77.8501 277.737L79.5848 277.938C80.656 278.062 81.8101 278.152 82.9228 278.208C84.0493 278.27 85.1758 278.298 86.2954 278.305C87.415 278.305 88.5415 278.27 89.668 278.208C90.7876 278.145 91.9348 278.055 93.006 277.938L94.7407 277.737L94.8029 279.462C95.0102 285.04 94.5679 290.501 94.1394 295.934C93.6971 301.36 93.1926 306.751 92.9715 312.115C92.8609 314.796 92.8263 317.471 92.9507 320.118C93.0682 322.765 93.3447 325.392 93.939 327.886C94.25 329.127 94.6025 330.353 95.1139 331.476L95.2038 331.691L95.2936 331.871C95.3558 331.989 95.4042 332.113 95.4802 332.224L95.6944 332.564L95.9363 332.89C96.275 333.319 96.6689 333.721 97.1112 334.088C98.9081 335.564 101.348 336.486 103.836 337.158C106.344 337.83 108.964 338.26 111.618 338.627L115.626 339.154C116.946 339.327 118.273 339.452 119.6 339.57C122.247 339.778 124.894 339.861 127.499 339.715C130.091 339.556 132.676 339.175 134.977 338.309C137.285 337.463 139.227 336.022 140.215 334.019C140.699 333.021 141.003 331.885 141.066 330.714C141.142 329.57 140.99 328.441 140.596 327.374C139.808 325.225 138.115 323.347 136.11 321.844C135.108 321.081 134.023 320.409 132.89 319.806C132.323 319.508 131.749 319.224 131.162 318.961C130.588 318.705 129.959 318.448 129.427 318.261L128.163 317.818L128.349 316.508C129.877 305.635 131.286 294.728 132.53 283.821C132.828 281.098 133.159 278.36 133.394 275.644L133.733 271.576L133.816 270.558L133.857 269.539L133.94 267.495C134.21 262.055 134.113 256.587 133.926 251.134C133.401 240.227 132.233 229.34 130.637 218.509C129.02 207.678 127.057 196.909 125.184 186.058C125.136 185.767 125.329 185.489 125.619 185.441C125.882 185.392 126.138 185.552 126.221 185.801L126.2 185.815Z" fill="#371A45"/>
<path d="M56.7368 304.838C43.6196 304.838 39.1067 299.108 38.8441 298.761C38.3119 298.054 38.457 297.049 39.162 296.516C39.8669 295.982 40.8621 296.121 41.3942 296.821C41.5325 296.994 50.1229 307.229 79.2807 297.23C80.1169 296.946 81.0292 297.389 81.3125 298.228C81.5959 299.066 81.1535 299.981 80.3173 300.265C70.4207 303.66 62.6941 304.838 56.7437 304.838H56.7368Z" fill="#371A45"/>
<path d="M117.133 305.594C105.391 305.594 92.8056 301.436 92.0039 301.173C91.1677 300.889 90.7116 299.981 90.9949 299.142C91.2714 298.304 92.1836 297.846 93.0199 298.131C93.3032 298.228 121.383 307.492 131.114 298.477C131.763 297.874 132.772 297.916 133.374 298.567C133.975 299.218 133.933 300.23 133.284 300.833C129.413 304.416 123.394 305.601 117.126 305.601L117.133 305.594Z" fill="#371A45"/>
<path d="M25.9756 155.443C26.6529 155.353 27.1228 154.722 27.033 154.05L22.1883 118.695C22.0985 118.016 21.4696 117.544 20.7992 117.635C13.7085 118.612 8.74633 125.167 9.72079 132.277L11.3725 144.334C12.347 151.444 18.8849 156.42 25.9756 155.443Z" fill="white"/>
<path d="M24.1857 155.858C21.3107 155.858 18.5324 154.923 16.2034 153.156C13.3837 151.015 11.5661 147.896 11.0823 144.376L9.43056 132.318C8.94679 128.805 9.85905 125.313 12.0015 122.485C14.137 119.658 17.247 117.836 20.7578 117.35C21.1586 117.295 21.5595 117.399 21.8843 117.648C22.2091 117.898 22.4164 118.251 22.4717 118.66L27.3164 154.015C27.4339 154.847 26.8464 155.623 26.0171 155.734C25.4089 155.817 24.7938 155.858 24.1857 155.858ZM20.972 117.919C20.9306 117.919 20.8822 117.919 20.8407 117.926C17.4889 118.39 14.5102 120.129 12.4645 122.839C10.4188 125.541 9.54805 128.881 10.0042 132.249L11.6559 144.307C12.119 147.668 13.8536 150.654 16.5559 152.705C19.2512 154.757 22.5823 155.63 25.9411 155.172C26.4594 155.103 26.8188 154.618 26.7497 154.098L21.905 118.743C21.8705 118.494 21.7392 118.265 21.5387 118.113C21.3729 117.988 21.1725 117.919 20.9651 117.919H20.972Z" fill="#371A45"/>
<g opacity="0.35">
<path d="M10.5986 138.687L11.3727 144.341C12.3471 151.451 18.885 156.427 25.9826 155.45C26.6599 155.359 27.1299 154.729 27.04 154.05L25.7546 144.653C25.6233 145.111 25.2363 145.464 24.7387 145.533L23.9024 145.644C18.2976 146.42 13.0382 143.468 10.5986 138.687Z" fill="#371A45"/>
</g>
<path d="M24.1857 157.175C21.0274 157.175 17.9727 156.15 15.4156 154.202C12.3194 151.846 10.3152 148.416 9.78999 144.556L8.13825 132.499C7.6061 128.632 8.61511 124.793 10.9649 121.689C13.3146 118.584 16.7356 116.575 20.5851 116.048C21.3315 115.944 22.0779 116.138 22.686 116.602C23.2873 117.06 23.6812 117.732 23.7849 118.48L28.6295 153.828C28.8438 155.38 27.7518 156.822 26.2038 157.03C25.5334 157.12 24.8561 157.168 24.1926 157.168L24.1857 157.175ZM20.6611 119.284C17.7999 119.769 15.2774 121.301 13.5151 123.629C11.6836 126.054 10.8958 129.048 11.3104 132.062L12.9622 144.12C13.3768 147.134 14.9318 149.809 17.3507 151.645C19.6728 153.412 22.5133 154.202 25.4021 153.897L20.6611 119.284Z" fill="#371A45"/>
<path d="M137.175 101.613C136.497 101.703 136.027 102.334 136.117 103.006L140.962 138.361C141.052 139.04 141.681 139.511 142.351 139.421C149.442 138.444 154.404 131.889 153.429 124.779L151.778 112.721C150.803 105.612 144.265 100.636 137.175 101.613Z" fill="white"/>
<path d="M142.185 139.719C141.853 139.719 141.535 139.615 141.266 139.407C140.941 139.158 140.734 138.805 140.678 138.396L135.834 103.041C135.716 102.209 136.304 101.433 137.133 101.322C140.637 100.837 144.12 101.752 146.94 103.9C149.76 106.041 151.577 109.16 152.061 112.68L153.713 124.737C154.196 128.251 153.284 131.743 151.142 134.571C149.006 137.398 145.896 139.22 142.385 139.705C142.316 139.712 142.247 139.719 142.178 139.719H142.185ZM137.216 101.897C136.698 101.967 136.338 102.452 136.407 102.972L141.252 138.326C141.287 138.576 141.418 138.805 141.618 138.957C141.819 139.11 142.068 139.179 142.323 139.144C145.675 138.68 148.654 136.941 150.699 134.231C152.745 131.529 153.616 128.188 153.16 124.821L151.508 112.763C151.045 109.402 149.31 106.416 146.608 104.364C143.913 102.313 140.582 101.44 137.223 101.897H137.216Z" fill="#371A45"/>
<g opacity="0.35">
<path d="M139.614 128.556L140.962 138.361C141.052 139.04 141.681 139.512 142.358 139.421C146.083 138.909 149.221 136.857 151.218 133.996C153.022 131.411 153.899 128.161 153.436 124.779L152.738 119.7C151.335 124.433 147.279 128.154 142.075 128.875L140.789 129.055C140.319 129.117 139.884 128.916 139.621 128.563L139.614 128.556Z" fill="#371A45"/>
</g>
<path d="M142.185 141.036C140.789 141.036 139.573 140.004 139.379 138.576L134.535 103.221C134.32 101.669 135.412 100.227 136.96 100.02C140.81 99.486 144.645 100.498 147.742 102.854C150.838 105.21 152.842 108.64 153.367 112.5L155.019 124.557C155.551 128.424 154.542 132.263 152.192 135.368C149.843 138.472 146.422 140.482 142.572 141.008C142.441 141.029 142.309 141.036 142.185 141.036ZM137.755 103.159L142.496 137.772C145.357 137.287 147.88 135.756 149.642 133.427C151.474 131.002 152.261 128.008 151.847 124.994L150.195 112.936C149.78 109.922 148.225 107.247 145.806 105.411C143.484 103.644 140.644 102.854 137.755 103.159Z" fill="#371A45"/>
<g opacity="0.35">
<path d="M35.5544 182.655C36.6257 183.778 37.7314 184.866 38.8787 185.898C41.0004 187.825 43.2465 189.606 45.6031 191.22C55.7278 198.192 67.836 202.225 80.5454 202.412C85.1897 202.488 89.9168 202.044 94.6578 201.047C105.764 198.704 115.584 193.583 123.532 186.564C124.168 186.002 124.79 185.427 125.405 184.838C127.202 183.127 128.888 181.311 130.464 179.405C131.445 178.227 132.371 177.015 133.249 175.774C129.317 171.367 123.608 168.581 117.278 168.581H55.6725C46.4739 168.581 38.5815 174.465 35.5544 182.662V182.655Z" fill="#371A45"/>
</g>
<path d="M81.5682 189.335C115.061 189.335 142.213 162.111 142.213 128.528C142.213 94.9449 115.061 67.7205 81.5682 67.7205C48.0752 67.7205 20.9237 94.9449 20.9237 128.528C20.9237 162.111 48.0752 189.335 81.5682 189.335Z" fill="white"/>
<path d="M81.4507 189.647C69.7572 189.647 58.3056 186.259 48.2846 179.703C34.656 170.785 25.2984 157.085 21.9465 141.112C18.5947 125.146 21.6424 108.82 30.537 95.1548C39.4315 81.4827 53.0947 72.1069 69.0247 68.746C101.901 61.8095 134.279 82.9795 141.204 115.951C148.122 148.915 127.008 181.38 94.1256 188.324C89.9099 189.211 85.6665 189.654 81.4507 189.654V189.647ZM81.589 68.0046C77.4838 68.0046 73.3164 68.4273 69.1421 69.3073C53.3642 72.6335 39.8254 81.9262 31.0207 95.4667C22.2161 109.007 19.189 125.174 22.5132 140.994C25.8305 156.815 35.0983 170.39 48.6025 179.218C62.1067 188.046 78.2302 191.082 94.0081 187.749C126.573 180.874 147.493 148.714 140.637 116.062C134.659 87.5946 109.517 67.9976 81.589 67.9976V68.0046Z" fill="#371A45"/>
<g opacity="0.35">
<path d="M21.0688 132.7C21.2554 135.472 21.6425 138.257 22.2299 141.057C29.1341 173.917 61.2912 194.949 94.0704 188.04C126.843 181.117 147.818 148.873 140.927 116.006C140.727 115.064 140.506 114.121 140.271 113.2C142.351 143.011 122.247 170.542 92.2596 176.876C60.4273 183.591 29.1824 163.945 21.0827 132.707L21.0688 132.7Z" fill="#371A45"/>
</g>
<path d="M81.4438 190.964C69.5015 190.964 57.8011 187.499 47.5658 180.805C33.6401 171.7 24.0821 157.695 20.6611 141.382C17.2332 125.07 20.3501 108.397 29.4381 94.4342C38.5193 80.471 52.4865 70.8873 68.7551 67.4572C102.336 60.3682 135.419 82.0025 142.489 115.674C149.559 149.352 127.983 182.517 94.4021 189.606C90.0896 190.514 85.7563 190.964 81.4577 190.964H81.4438ZM81.5821 69.3213C77.5667 69.3213 73.4892 69.737 69.4048 70.5963C53.9724 73.8532 40.7239 82.9449 32.1127 96.1874C23.4946 109.43 20.5436 125.25 23.7918 140.724C27.04 156.198 36.1073 169.482 49.3143 178.116C62.5214 186.758 78.2993 189.717 93.7317 186.46C125.592 179.738 146.055 148.277 139.352 116.332C133.505 88.4817 108.908 69.3143 81.589 69.3143L81.5821 69.3213Z" fill="#371A45"/>
<path d="M22.7344 142.547C25.0012 154.223 30.8894 164.333 39.0997 172.039C45.2575 177.819 67.4696 185.698 92.1214 181.117C114.983 176.869 133.373 160.612 136.912 152.941C141.639 142.706 143.312 131.127 141.045 119.443C135.039 88.5372 106.068 80.8938 73.3993 87.276C40.7238 93.6582 16.7286 111.641 22.7344 142.547Z" fill="#371A45"/>
<path d="M76.8825 184.117C57.8218 184.117 42.8317 177.735 38.0078 173.21C29.2515 164.985 23.4255 154.486 21.1656 142.851C18.2214 127.682 22.0156 114.8 32.4444 104.565C41.5393 95.6399 55.5964 89.1122 73.0952 85.6959C90.594 82.2795 106.061 83.0349 117.837 87.8856C131.335 93.4501 139.676 103.962 142.62 119.131C144.88 130.766 143.408 142.692 138.37 153.606C134.645 161.665 116.11 178.283 92.4186 182.69C87.0418 183.688 81.8239 184.117 76.8825 184.117ZM24.3032 142.235C26.4318 153.204 31.9261 163.107 40.1917 170.861C45.6791 176.01 67.1241 184.124 91.8311 179.53C114.126 175.386 132.088 159.573 135.461 152.255C140.215 141.951 141.605 130.711 139.476 119.741C136.746 105.695 129.054 95.9794 116.614 90.8515C105.418 86.2364 90.5802 85.5434 73.7034 88.8419C56.8266 92.1404 43.3293 98.3632 34.6836 106.852C25.0703 116.283 21.5802 128.188 24.3032 142.235Z" fill="#371A45"/>
<g opacity="0.7">
<path d="M45.0427 144.624C49.0436 143.061 50.5423 137.304 48.3901 131.767C46.2378 126.229 41.2497 123.007 37.2487 124.57C33.2478 126.133 31.7491 131.89 33.9014 137.428C36.0536 142.966 41.0418 146.188 45.0427 144.624Z" fill="white"/>
</g>
<g opacity="0.7">
<path d="M56.9619 158.007C59.0004 156.864 59.5756 154.006 58.2467 151.625C56.9178 149.243 54.188 148.24 52.1495 149.384C50.111 150.528 49.5358 153.385 50.8647 155.767C52.1936 158.148 54.9235 159.151 56.9619 158.007Z" fill="white"/>
</g>
<g opacity="0.35">
<path d="M28.6434 111.46C22.7551 119.79 20.3294 130.129 22.7413 142.54C25.0081 154.223 30.9033 164.326 39.1067 172.039C45.2645 177.818 67.4835 185.697 92.1353 181.117C100.843 179.502 108.895 176.141 115.73 172.178C85.3071 177.16 58.2227 167.452 50.586 160.286C40.1641 150.502 32.6932 137.675 29.8182 122.853C29.0442 118.889 28.671 115.098 28.6434 111.467V111.46Z" fill="#111A28"/>
</g>
<path d="M22.5616 116.055C22.2023 116.055 21.8429 115.937 21.5457 115.688C20.9514 115.195 20.7993 114.357 21.1518 113.699C28.8922 96.7419 47.4967 84.2547 72.2245 79.4248C97.1527 74.5602 119.157 79.4386 132.593 92.8128L131.473 93.9562L130.464 95.2035L130.34 95.0926C117.665 82.4807 96.7035 77.9141 72.8327 82.5777C49.0932 87.2137 31.3041 99.0703 24.0199 115.112L23.9508 115.272L23.7918 115.48C23.4739 115.868 23.0178 116.062 22.5547 116.062L22.5616 116.055Z" fill="#371A45"/>
<g opacity="0.7">
<path d="M131.335 140.419C131.335 140.419 134.956 108.065 116.213 99.1117C97.4637 90.1586 73.897 94.8153 74.7401 96.222C74.7401 96.222 102.073 97.4625 116.303 116.159C127.278 130.579 131.335 140.419 131.335 140.419Z" fill="white"/>
</g>
<path d="M92.9162 277.952L95.1692 277.369C95.9294 277.155 96.7034 276.954 97.4637 276.718C98.9979 276.282 100.518 275.79 102.025 275.249C103.545 274.729 105.024 274.113 106.538 273.517C108.065 272.941 109.551 272.262 111.168 271.694C110.097 273.025 108.846 274.196 107.478 275.2C106.807 275.727 106.089 276.171 105.37 276.628C104.63 277.044 103.898 277.473 103.138 277.848C101.624 278.624 100.062 279.289 98.4519 279.85C96.8278 280.398 95.2314 280.855 93.4414 281.111C92.5637 281.236 91.7551 280.626 91.6307 279.753C91.5132 278.936 92.0316 278.18 92.8056 277.972L92.9024 277.945L92.9162 277.952Z" fill="#371A45"/>
<path d="M79.1425 281.111C77.3525 280.855 75.763 280.398 74.132 279.85C72.5217 279.289 70.9598 278.624 69.4463 277.848C68.6861 277.466 67.9535 277.044 67.214 276.628C66.4953 276.178 65.7765 275.727 65.1062 275.2C63.7378 274.196 62.4869 273.025 61.4156 271.694C63.0397 272.262 64.5256 272.934 66.053 273.517C67.5665 274.113 69.0524 274.722 70.5659 275.249C72.0725 275.79 73.5998 276.282 75.1272 276.718C75.8874 276.954 76.6614 277.148 77.4217 277.369L79.6747 277.952L79.7645 277.972C80.6215 278.194 81.1329 279.067 80.9187 279.926C80.7113 280.723 79.9373 281.222 79.1425 281.118V281.111Z" fill="#371A45"/>
<path d="M129.621 318.324C128.688 318.213 127.658 318.102 126.663 318.019C125.661 317.935 124.659 317.852 123.65 317.818C121.639 317.714 119.627 317.7 117.623 317.783C115.619 317.887 113.636 318.143 111.638 318.469C109.655 318.843 107.713 319.384 105.681 320.056C107.215 318.573 109.102 317.45 111.092 316.612C113.096 315.808 115.211 315.309 117.333 314.963C119.462 314.651 121.611 314.512 123.753 314.533C124.825 314.554 125.896 314.595 126.96 314.706C128.038 314.803 129.068 314.942 130.188 315.171C131.051 315.351 131.611 316.196 131.432 317.062C131.266 317.887 130.499 318.434 129.676 318.337H129.607L129.621 318.324Z" fill="#371A45"/>
<path d="M42.3618 315.164C43.4814 314.935 44.5112 314.79 45.5893 314.699C46.6536 314.589 47.7248 314.547 48.796 314.526C50.9384 314.505 53.0878 314.644 55.2164 314.956C57.3381 315.302 59.4529 315.808 61.4571 316.605C63.4475 317.444 65.3411 318.566 66.8684 320.049C64.8366 319.37 62.8946 318.836 60.9111 318.462C58.9138 318.137 56.9303 317.88 54.9261 317.776C52.915 317.693 50.9039 317.707 48.8997 317.811C47.8976 317.852 46.8886 317.936 45.8865 318.012C44.8982 318.095 43.8615 318.206 42.9285 318.317H42.8663C41.9886 318.428 41.1939 317.804 41.0833 316.924C40.9796 316.092 41.5463 315.33 42.348 315.157L42.3618 315.164Z" fill="#371A45"/>
<g opacity="0.35">
<path d="M110.374 272.235C110.374 272.235 97.6227 274.39 87.7744 274.39C77.9262 274.39 62.1689 272.235 62.1689 272.235C62.1689 272.235 71.6302 279.857 86.717 279.532C102.184 279.192 110.374 272.235 110.374 272.235Z" fill="#371A45"/>
</g>
<g opacity="0.35">
<path d="M37.2131 246.63C39.3141 246.775 41.5187 246.858 43.7233 246.837C44.0274 246.837 44.3177 246.837 44.6217 246.824C44.9327 246.824 45.2506 246.81 45.5616 246.796C45.7759 246.796 45.9832 246.782 46.1906 246.775C46.4393 246.761 46.6812 246.747 46.93 246.734C47.241 246.72 47.552 246.699 47.863 246.671H47.8838C48.1948 246.65 48.5058 246.623 48.8168 246.588C49.0172 246.567 49.2245 246.546 49.4249 246.519C49.5977 246.505 49.7705 246.484 49.9363 246.463C50.2059 246.436 50.4754 246.394 50.7311 246.359C50.9799 246.325 51.2218 246.29 51.4706 246.248C51.519 246.248 51.5743 246.242 51.6157 246.228C51.8991 246.186 52.1824 246.138 52.4589 246.082C52.7422 246.034 53.0187 245.978 53.2951 245.916C53.3159 245.916 53.3435 245.909 53.3642 245.902C53.5163 245.867 53.6752 245.833 53.8204 245.798C53.9931 245.763 54.159 245.722 54.3249 245.673C54.4147 245.646 54.5046 245.625 54.5944 245.597V249.02C54.5944 253.739 58.4577 257.613 63.171 257.613H109.966C114.672 257.613 118.529 253.739 118.529 249.02V246.29C123.947 247.115 130.153 246.893 135.343 246.401C135.17 243.407 134.942 240.434 134.666 237.496C134.424 234.946 134.161 232.424 133.857 229.929C129.123 230.082 123.484 230.102 118.529 229.673V223.547C118.529 218.814 114.665 214.961 109.966 214.961H63.171C60.3928 214.961 57.9186 216.299 56.3429 218.364C55.2509 219.805 54.5944 221.607 54.5944 223.547V229.292C53.6061 229.437 52.5625 229.555 51.4844 229.652C47.4069 230.019 42.8456 230.082 38.6921 230.005C38.4018 232.438 38.1392 234.912 37.9042 237.399C37.6208 240.448 37.3859 243.532 37.2062 246.636L37.2131 246.63Z" fill="#371A45"/>
</g>
<path d="M110.228 240.081C116.856 242.77 127.119 242.209 134.12 241.363C138.315 240.857 141.259 236.97 140.644 232.777C140.077 228.952 136.718 226.167 132.869 226.354C126.324 226.659 116.511 226.804 110.291 225.425" fill="white"/>
<g opacity="0.35">
<path d="M110.228 240.081C116.863 242.77 127.119 242.209 134.113 241.363C138.315 240.857 141.252 236.97 140.637 232.777C140.492 231.807 140.167 230.899 139.704 230.103C138.564 232.077 136.553 233.512 134.113 233.803C127.133 234.648 116.891 235.217 110.256 232.535L110.221 240.081H110.228Z" fill="#371A45"/>
</g>
<path d="M123.408 243.664C118.466 243.664 113.497 243.137 109.627 241.564C105.004 239.686 104.872 232.306 106.234 227.906C107.554 223.651 109.752 223.651 110.636 223.845C116.573 225.169 125.965 225.058 132.793 224.739C137.465 224.517 141.536 227.871 142.227 232.535C142.593 234.995 141.964 237.441 140.457 239.423C138.958 241.398 136.774 242.652 134.313 242.95C131.051 243.345 127.243 243.664 123.415 243.664H123.408ZM110.83 238.591C117.063 241.121 126.829 240.629 133.926 239.762C135.523 239.568 136.933 238.758 137.907 237.476C138.882 236.194 139.296 234.607 139.054 233.006C138.605 229.978 135.979 227.809 132.938 227.947C125.999 228.273 116.455 228.377 110.166 227.033C109.53 227.67 108.432 230.747 108.729 234.232C108.819 235.327 109.212 237.94 110.823 238.591H110.83Z" fill="#371A45"/>
<path d="M35.6235 241.363C38.9063 241.765 42.9147 242.098 46.9231 242.063C47.1996 242.063 47.4691 242.063 47.7455 242.049C48.0358 242.049 48.3261 242.035 48.6163 242.021C48.8098 242.021 49.0033 242.008 49.1968 242.001C49.4249 241.987 49.653 241.973 49.881 241.966C50.1713 241.952 50.4616 241.931 50.7449 241.911H50.7657C51.049 241.89 51.3393 241.862 51.6226 241.834C51.8092 241.82 52.0027 241.8 52.1824 241.779C52.3414 241.765 52.5003 241.744 52.6524 241.73C52.9012 241.703 53.1431 241.668 53.3849 241.633C53.613 241.599 53.8411 241.564 54.0622 241.529C54.1106 241.529 54.1521 241.522 54.1935 241.509C54.4562 241.474 54.7188 241.425 54.9745 241.377C55.2371 241.328 55.4928 241.28 55.7416 241.225C55.7624 241.225 55.7831 241.218 55.8038 241.211C55.9489 241.176 56.0872 241.148 56.2254 241.114C56.3774 241.079 56.5364 241.044 56.6884 241.003C57.1584 240.885 57.6283 240.753 58.0776 240.608C58.3194 240.532 58.5613 240.448 58.8032 240.365C59.0451 240.282 59.2732 240.192 59.5012 240.095L59.4736 233.054L59.439 225.432C57.8495 225.785 56.0181 226.042 54.0691 226.215C48.409 226.735 41.7329 226.589 36.8606 226.36C36.7431 226.36 36.6256 226.354 36.5081 226.354C32.8107 226.354 29.6316 229.084 29.0926 232.791C28.4706 236.984 31.4216 240.864 35.6166 241.377L35.6235 241.363Z" fill="white"/>
<g opacity="0.35">
<path d="M35.6235 241.363C38.9063 241.765 42.9147 242.098 46.9231 242.063C47.1995 242.063 47.4691 242.063 47.7455 242.049C48.0358 242.049 48.326 242.035 48.6163 242.021C48.8098 242.021 49.0033 242.007 49.1968 242.001C49.4249 241.987 49.6529 241.973 49.881 241.966C50.1713 241.952 50.4615 241.931 50.7449 241.91H50.7656C51.049 241.89 51.3392 241.862 51.6226 241.834C51.8092 241.82 52.0027 241.8 52.1824 241.779C52.3413 241.765 52.5003 241.744 52.6523 241.73C52.9011 241.703 53.143 241.668 53.3849 241.633C53.613 241.599 53.841 241.564 54.0622 241.529C54.1106 241.529 54.152 241.522 54.1935 241.509C54.4561 241.474 54.7188 241.425 54.9745 241.377C55.2371 241.328 55.4928 241.28 55.7416 241.224C55.7623 241.224 55.7831 241.218 55.8038 241.211C55.9489 241.176 56.0871 241.148 56.2254 241.114C56.3774 241.079 56.5364 241.044 56.6884 241.003C57.1584 240.885 57.6283 240.753 58.0775 240.608C58.3194 240.531 58.5613 240.448 58.8032 240.365C59.0451 240.282 59.2731 240.192 59.5012 240.095L59.4736 233.373C59.2524 233.463 59.0313 233.546 58.8032 233.63C58.5613 233.713 58.3194 233.796 58.0775 233.872C57.6283 234.018 57.1584 234.149 56.6884 234.267C56.5364 234.309 56.3774 234.35 56.2254 234.378C56.0871 234.413 55.942 234.44 55.8038 234.475L55.7416 234.489C55.4928 234.544 55.2371 234.593 54.9745 234.641C54.7188 234.69 54.4561 234.738 54.1935 234.773C54.152 234.787 54.1037 234.787 54.0622 234.794C53.841 234.828 53.613 234.863 53.3849 234.898C53.143 234.932 52.9011 234.967 52.6523 234.995C52.5003 235.009 52.3413 235.029 52.1824 235.043C51.9958 235.064 51.8092 235.085 51.6226 235.099C51.3392 235.126 51.049 235.154 50.7656 235.175H50.7449C50.4615 235.196 50.1713 235.216 49.881 235.23C49.6529 235.244 49.4318 235.258 49.1968 235.265C49.0102 235.272 48.8167 235.279 48.6163 235.286C48.326 235.3 48.0358 235.307 47.7455 235.313C47.4691 235.32 47.1995 235.327 46.9231 235.327C42.9147 235.362 38.9063 235.029 35.6235 234.627C33.018 234.316 30.8963 232.694 29.8113 230.511C29.4657 231.211 29.2239 231.966 29.1064 232.777C28.4844 236.97 31.4354 240.85 35.6304 241.363H35.6235Z" fill="#371A45"/>
</g>
<path d="M46.3288 243.664C42.5001 243.664 38.6921 243.345 35.4301 242.95C32.9697 242.652 30.7927 241.398 29.2861 239.423C27.7795 237.448 27.1506 235.002 27.5169 232.535C28.2011 227.871 32.2717 224.517 36.9505 224.739C43.7786 225.058 53.1638 225.169 59.1073 223.845C59.992 223.651 62.1897 223.651 63.5097 227.906C64.8712 232.306 64.7399 239.686 60.1164 241.564C56.2462 243.137 51.2771 243.664 46.3357 243.664H46.3288ZM36.5151 227.94C33.5917 227.94 31.1106 230.075 30.6822 233.006C30.4472 234.607 30.8549 236.194 31.8294 237.476C32.8039 238.758 34.2206 239.568 35.8102 239.762C42.9078 240.622 52.6731 241.121 58.9069 238.591C60.5172 237.94 60.9042 235.327 61.001 234.232C61.2981 230.754 60.1993 227.67 59.5635 227.033C53.2744 228.377 43.7302 228.28 36.7915 227.947C36.6948 227.947 36.6049 227.947 36.5082 227.947L36.5151 227.94Z" fill="#371A45"/>
<path d="M56.9441 220.574V244.072C56.9441 248.431 60.5033 252 64.8503 252H108.01C112.35 252 115.909 248.431 115.909 244.072V220.574C115.909 216.215 112.35 212.654 108.01 212.654H64.8503C62.2933 212.654 60.0057 213.887 58.5544 215.793C57.5454 217.123 56.9441 218.779 56.9441 220.574Z" fill="white"/>
<g opacity="0.43">
<path d="M56.951 220.574V244.072C56.951 248.431 60.5102 252 64.8573 252H108.017C112.357 252 115.916 248.431 115.916 244.072V220.574C115.916 216.215 112.357 212.654 108.017 212.654H64.8573C62.2933 212.654 60.0126 213.887 58.5613 215.793C57.5523 217.123 56.951 218.779 56.951 220.574Z" fill="white"/>
</g>
<g opacity="0.35">
<path d="M56.951 231.468V244.073C56.951 248.431 60.5102 252 64.8573 252H108.017C112.357 252 115.916 248.431 115.916 244.073V226.083C107.464 229.451 111.459 244.336 94.7753 243.352C81.2365 242.555 79.2185 231.613 79.2185 231.613H63.1088C63.1088 231.613 63.1503 238.667 60.5241 238.709C58.4715 238.744 57.5938 235.598 56.958 231.468H56.951Z" fill="#371A45"/>
</g>
<path d="M108.01 253.601H64.8504C59.6118 253.601 55.3477 249.325 55.3477 244.072V220.574C55.3477 215.321 59.6118 211.046 64.8504 211.046H108.01C113.249 211.046 117.513 215.321 117.513 220.574V244.072C117.513 249.325 113.249 253.601 108.01 253.601ZM64.8504 214.254C61.3741 214.254 58.5475 217.089 58.5475 220.574V244.072C58.5475 247.558 61.3741 250.392 64.8504 250.392H108.01C111.486 250.392 114.313 247.558 114.313 244.072V220.574C114.313 217.089 111.486 214.254 108.01 214.254H64.8504Z" fill="#371A45"/>
<path d="M71.1395 239.153C74.9029 239.153 77.9538 236.093 77.9538 232.32C77.9538 228.546 74.9029 225.487 71.1395 225.487C67.3761 225.487 64.3252 228.546 64.3252 232.32C64.3252 236.093 67.3761 239.153 71.1395 239.153Z" fill="#22A7F0"/>
<path d="M64.3252 232.327C64.3252 232.701 64.3528 233.061 64.415 233.415C64.9334 230.158 67.7462 227.67 71.1464 227.67C74.5467 227.67 77.3525 230.158 77.8778 233.415C77.94 233.061 77.9676 232.694 77.9676 232.327C77.9676 228.55 74.9129 225.494 71.1533 225.494C67.3937 225.494 64.339 228.557 64.339 232.327H64.3252Z" fill="white"/>
<g opacity="0.35">
<path d="M64.3252 232.32C64.3252 236.096 67.373 239.152 71.1395 239.152C74.906 239.152 77.9538 236.096 77.9538 232.32C77.9538 231.447 77.7879 230.615 77.4839 229.846C76.5025 232.396 74.0283 234.198 71.1395 234.198C68.2507 234.198 65.7765 232.396 64.7951 229.846C64.4911 230.615 64.3252 231.447 64.3252 232.32Z" fill="#371A45"/>
</g>
<path d="M71.1395 240.358C66.7164 240.358 63.1227 236.755 63.1227 232.32C63.1227 227.885 66.7164 224.281 71.1395 224.281C75.5626 224.281 79.1563 227.885 79.1563 232.32C79.1563 236.755 75.5626 240.358 71.1395 240.358ZM71.1395 226.693C68.0434 226.693 65.5277 229.215 65.5277 232.32C65.5277 235.424 68.0434 237.947 71.1395 237.947C74.2357 237.947 76.7513 235.424 76.7513 232.32C76.7513 229.215 74.2357 226.693 71.1395 226.693Z" fill="#371A45"/>
<path d="M90.4559 253.601C89.5713 253.601 88.8525 252.88 88.8525 251.993V238.349C88.8525 235.896 90.0205 233.553 91.9694 232.077L95.6392 229.305C96.7933 228.432 97.4844 227.046 97.4844 225.598V212.633C97.4844 211.746 98.2032 211.025 99.0878 211.025C99.9724 211.025 100.691 211.746 100.691 212.633V225.598C100.691 228.051 99.5232 230.393 97.5743 231.869L93.9045 234.641C92.7504 235.514 92.0593 236.9 92.0593 238.349V251.993C92.0593 252.88 91.3405 253.601 90.4559 253.601Z" fill="#371A45"/>
<path d="M142.98 181.56C146.76 197.277 162.573 195.815 166.927 194.754C176.008 192.537 179.118 183.958 179.118 183.958L171.792 174.257L168.537 169.004L164.646 167.833C161.591 162.247 155.081 155.914 151.342 158.145C151.342 158.145 139.718 168.013 142.973 181.56H142.98Z" fill="white"/>
<g opacity="0.35">
<path d="M180.466 178.879C180.466 183.778 174.066 188.22 160.292 186.612C155.441 186.044 151.446 182.641 151.446 177.742C151.446 172.843 155.406 168.872 160.292 168.872C165.178 168.872 180.466 173.979 180.466 178.879Z" fill="#371A45"/>
</g>
<path d="M179.982 163.031C176.367 166.669 173.202 169.35 173.202 169.35L163.057 179.766L156.208 162.996C156.208 162.996 156.166 159.614 156.429 155.131C156.94 146.261 158.627 133.101 164.093 133.441C173.928 134.051 167.417 160.016 167.417 160.016C167.417 160.016 183.112 139.033 189.402 144.993C193.078 148.478 185.925 157.043 179.982 163.031Z" fill="white"/>
<g opacity="0.35">
<path d="M179.982 163.031C176.367 166.669 173.202 169.35 173.202 169.35L163.057 179.766L156.208 162.996C156.208 162.996 156.166 159.614 156.429 155.131C159.062 157.217 163.976 161.007 165.697 163.266C168.661 167.154 176.015 162.261 179.982 163.031Z" fill="#371A45"/>
</g>
<path d="M163.05 181.373C162.946 181.373 162.842 181.366 162.746 181.346C162.213 181.242 161.778 180.881 161.571 180.375L154.722 163.599C154.646 163.412 154.604 163.211 154.604 163.01C154.577 160.557 154.508 138.916 160.368 133.323C161.481 132.263 162.808 131.757 164.19 131.84C166.104 131.958 167.722 132.859 168.876 134.432C172.013 138.735 171.281 147.758 170.272 153.987C174.467 149.199 180.984 142.782 186.091 142.353C187.798 142.207 189.326 142.72 190.5 143.836C191.53 144.806 192.048 146.129 192.007 147.661C191.793 155.408 176.353 168.782 174.294 170.528L164.197 180.888C163.893 181.2 163.478 181.373 163.05 181.373ZM157.797 162.67L163.603 176.897L172.048 168.228C172.082 168.193 172.124 168.159 172.158 168.124C178.517 162.733 188.662 152.38 188.793 147.564C188.814 146.767 188.538 146.393 188.289 146.164C187.777 145.679 187.155 145.478 186.354 145.547C180.998 146.005 171.785 156.842 168.689 160.979C168.233 161.589 167.411 161.79 166.719 161.465C166.028 161.139 165.669 160.37 165.856 159.628C167.093 154.68 169.581 140.856 166.284 136.324C165.69 135.513 164.957 135.104 163.983 135.042C163.672 135.021 163.174 135.063 162.566 135.652C158.516 139.511 157.749 156.17 157.797 162.67Z" fill="#371A45"/>
<path d="M180.97 182.136C178.565 186.058 168.337 187.894 164.542 184.942C161.315 182.427 164.542 179.225 165.455 178.414C165.6 178.283 165.69 178.22 165.69 178.22C165.69 178.22 161.764 177.015 161.073 173.695C161.032 173.481 160.997 173.259 160.983 173.023C160.741 169.198 170.935 165.893 175.566 166.641C179.028 167.202 180.348 168.616 180.673 170.127C181.018 171.734 180.237 173.46 179.719 174.381C179.477 174.804 179.298 175.054 179.298 175.054C179.298 175.054 182.905 179.003 180.977 182.15L180.97 182.136Z" fill="white"/>
<g opacity="0.35">
<path d="M179.719 174.374C176.989 175.781 171.509 178.165 165.462 178.421C165.607 178.29 165.697 178.227 165.697 178.227C165.697 178.227 161.771 177.021 161.08 173.702C164.708 174.499 174.722 176.017 180.673 170.126C181.018 171.734 180.237 173.46 179.719 174.381V174.374Z" fill="#371A45"/>
</g>
<g opacity="0.35">
<path d="M180.97 182.136C178.565 186.058 168.337 187.894 164.542 184.942C162.953 183.709 162.925 182.309 163.416 181.103C163.589 181.297 163.796 181.484 164.038 181.678C167.825 184.63 178.054 182.794 180.459 178.872C180.707 178.463 180.866 178.047 180.949 177.617C181.551 178.962 181.882 180.632 180.97 182.129V182.136Z" fill="#371A45"/>
</g>
<path d="M170.106 188.012C167.404 188.012 165.081 187.395 163.568 186.217C161.895 184.921 161.543 183.445 161.543 182.441C161.543 180.985 162.248 179.676 163.001 178.706C161.432 177.722 159.573 175.961 159.394 173.134C159.331 172.206 159.601 170.792 161.225 169.316C164.639 166.204 172.006 164.444 175.828 165.061C179.069 165.588 181.143 166.89 181.979 168.935C182.905 171.201 181.979 173.591 181.246 174.943C182.394 176.564 184.218 179.932 182.338 182.988C180.984 185.192 177.763 186.945 173.713 187.679C172.462 187.908 171.246 188.019 170.106 188.019V188.012ZM174.08 168.131C170.811 168.131 165.648 169.607 163.381 171.679C162.863 172.15 162.573 172.607 162.593 172.919C162.759 175.573 166.139 176.675 166.173 176.689C166.74 176.869 167.162 177.347 167.272 177.936C167.376 178.525 167.155 179.121 166.685 179.489C166.056 179.988 164.743 181.373 164.75 182.434C164.75 182.704 164.833 183.134 165.538 183.681C166.92 184.755 169.981 185.095 173.147 184.519C176.174 183.972 178.772 182.676 179.615 181.304C180.866 179.267 178.143 176.162 178.116 176.128C177.604 175.566 177.556 174.714 178.005 174.097C178.441 173.494 179.56 171.464 179.014 170.14C178.53 168.969 176.734 168.45 175.317 168.221C174.95 168.159 174.529 168.131 174.08 168.131Z" fill="#371A45"/>
<path d="M166.975 179.863C166.519 179.863 166.063 179.849 165.6 179.821C164.715 179.773 164.045 179.01 164.093 178.123C164.149 177.236 164.902 176.55 165.786 176.613C172.663 177.015 178.427 173.688 178.482 173.654C179.242 173.203 180.224 173.46 180.673 174.222C181.122 174.984 180.866 175.968 180.106 176.419C179.857 176.564 174.211 179.856 166.975 179.856V179.863Z" fill="#371A45"/>
<path d="M151.342 158.138C156.304 155.172 166.139 167.292 166.319 172.732C166.457 176.883 161.55 180.348 155.689 175.054C149.753 169.683 143.547 162.802 151.335 158.145L151.342 158.138Z" fill="white"/>
<path d="M179.118 183.958C179.118 183.958 176.001 192.537 166.927 194.754C162.573 195.815 146.76 197.284 142.98 181.56C139.725 168.013 151.349 158.145 151.349 158.145C156.311 155.179 166.146 167.299 166.325 172.739C166.464 176.89 160.313 179.246 155.157 171.942C155.157 171.942 157.873 178.581 152.075 183.106L165.738 190.998L176.07 188.975L179.125 183.965L179.118 183.958Z" fill="white"/>
<path d="M154.77 179.918L154.501 179.759C154.708 179.599 154.895 179.44 155.074 179.274C154.985 179.482 154.888 179.696 154.777 179.911L154.77 179.918Z" fill="white"/>
<g opacity="0.35">
<path d="M155.365 170.702C154.639 168.02 162.324 174.846 166.319 173.092C166.125 176.46 161.702 178.421 157.279 174.381C157.016 172.219 155.365 170.695 155.365 170.695V170.702Z" fill="#371A45"/>
</g>
<g opacity="0.35">
<path d="M174.322 189.308L176.063 188.968C174.135 191.269 171.184 193.715 166.92 194.754C162.566 195.822 146.746 197.284 142.973 181.56C140.755 172.344 145.433 164.825 148.647 160.966C146.028 165.151 143.706 171.194 145.399 178.227C149.172 193.944 164.992 192.482 169.346 191.421C171.26 190.95 172.905 190.209 174.315 189.308H174.322Z" fill="#371A45"/>
</g>
<path d="M179.111 183.965C179.076 184.048 178.828 184.707 178.309 185.67L178.04 185.725L179.111 183.965Z" fill="white"/>
<path d="M178.489 185.628C178.344 185.801 178.199 185.975 178.04 186.141C178.137 185.975 178.219 185.815 178.309 185.663L178.489 185.628Z" fill="white"/>
<path d="M149.324 192.454C148.426 192.281 147.61 191.893 146.871 191.401C146.124 190.909 145.454 190.306 144.887 189.62C143.726 188.268 142.862 186.675 142.282 185.025C141.169 181.741 140.575 178.241 140.9 174.756C141.204 171.277 142.351 167.937 143.989 164.95C144.811 163.453 145.758 162.033 146.802 160.695C147.327 160.03 147.873 159.379 148.447 158.748C148.737 158.436 149.027 158.124 149.331 157.826C149.642 157.515 149.926 157.237 150.306 156.912C150.361 156.863 150.423 156.815 150.492 156.773L150.52 156.752C151.55 156.129 152.807 155.976 153.837 156.122C154.888 156.26 155.793 156.621 156.609 157.037C157.431 157.452 158.157 157.951 158.848 158.478C159.539 159.005 160.182 159.573 160.79 160.162C162.006 161.34 163.091 162.622 164.086 163.973C165.068 165.331 165.959 166.759 166.692 168.325C167.051 169.115 167.383 169.933 167.618 170.826C167.735 171.277 167.832 171.748 167.88 172.261L167.908 172.649C167.908 172.788 167.901 172.926 167.894 173.065C167.867 173.342 167.88 173.626 167.804 173.903C167.618 175.026 166.975 176.079 166.132 176.828C165.282 177.569 164.211 178.054 163.153 178.172C162.884 178.227 162.628 178.227 162.365 178.227C162.11 178.227 161.84 178.248 161.591 178.2C161.094 178.123 160.575 178.061 160.119 177.888C159.884 177.812 159.649 177.742 159.421 177.652L158.779 177.34C158.336 177.146 157.956 176.883 157.569 176.627C156.042 175.573 154.86 174.236 153.837 172.843L156.622 171.305C156.761 171.672 156.837 171.921 156.92 172.226C157.002 172.517 157.065 172.801 157.12 173.092C157.237 173.675 157.307 174.257 157.348 174.853C157.403 176.038 157.334 177.25 157.085 178.449C156.982 179.059 156.747 179.634 156.512 180.202C156.367 180.473 156.208 180.743 156.056 181.006C155.904 181.276 155.682 181.498 155.496 181.734C154.708 182.669 153.623 183.321 152.386 183.494C152.054 183.542 151.743 183.307 151.695 182.974C151.681 182.898 151.695 182.822 151.702 182.752L151.722 182.655C151.868 182.046 152.109 181.609 152.282 181.159C152.462 180.708 152.683 180.327 152.849 179.918C153.236 179.149 153.554 178.401 153.823 177.597C154.1 176.8 154.21 175.92 154.148 175.04C154.114 174.596 154.065 174.16 153.975 173.723C153.934 173.501 153.886 173.287 153.823 173.079C153.768 172.878 153.692 172.635 153.651 172.524V172.503C153.333 171.672 153.761 170.743 154.591 170.438C155.275 170.182 156.028 170.431 156.443 170.993C157.3 172.157 158.26 173.224 159.359 173.973C160.437 174.714 161.674 175.151 162.711 174.984C163.236 174.943 163.672 174.7 164.01 174.416C164.335 174.118 164.598 173.744 164.66 173.286C164.701 173.183 164.674 173.051 164.694 172.94L164.708 172.76L164.688 172.552C164.667 172.275 164.605 171.956 164.515 171.644C164.349 171.007 164.086 170.341 163.782 169.683C162.531 167.05 160.672 164.541 158.557 162.469C157.5 161.437 156.332 160.515 155.143 159.892C154.549 159.587 153.948 159.372 153.423 159.303C152.89 159.233 152.49 159.303 152.144 159.503L152.358 159.351C152.13 159.552 151.833 159.836 151.57 160.092C151.301 160.356 151.038 160.633 150.783 160.917C150.264 161.478 149.774 162.067 149.304 162.67C148.357 163.876 147.507 165.151 146.774 166.489C145.309 169.156 144.328 172.06 144.065 175.033C143.795 177.992 144.231 181.034 145.426 183.785C146.007 185.15 146.684 186.432 147.451 187.665C148.232 188.899 149.069 190.07 149.919 191.567C150.078 191.858 149.981 192.218 149.697 192.378C149.573 192.447 149.428 192.468 149.297 192.44L149.324 192.454Z" fill="#371A45"/>
<path d="M180.618 184.506C180.452 184.949 180.32 185.275 180.148 185.635C179.982 185.982 179.809 186.328 179.616 186.661C179.429 186.993 179.222 187.312 179.028 187.638C178.814 187.956 178.593 188.261 178.378 188.573L177.673 189.467L176.906 190.313C176.374 190.853 175.835 191.394 175.227 191.851C174.653 192.343 174.011 192.759 173.382 193.174C172.711 193.535 172.076 193.937 171.371 194.207C170.016 194.858 168.475 195.122 166.954 194.872C166.878 194.858 166.823 194.782 166.837 194.706C166.837 194.671 166.858 194.644 166.885 194.623H166.892C168.074 193.597 169.221 192.994 170.32 192.246C170.887 191.92 171.384 191.477 171.91 191.089C172.387 190.638 172.898 190.243 173.333 189.751C173.561 189.516 173.789 189.287 173.99 189.031C174.197 188.781 174.425 188.552 174.619 188.289L175.206 187.513L175.766 186.716C176.112 186.169 176.464 185.621 176.768 185.053C176.92 184.769 177.079 184.492 177.217 184.201C177.356 183.923 177.508 183.612 177.604 183.397L177.646 183.3C177.998 182.489 178.938 182.115 179.747 182.468C180.528 182.808 180.901 183.702 180.611 184.492L180.618 184.506Z" fill="#371A45"/>
<path d="M154.259 224.282C151.294 224.282 141.218 223.492 137.983 213.007C133.325 197.921 140.16 186.799 140.451 186.335C140.803 185.774 141.549 185.607 142.109 185.961C142.669 186.314 142.835 187.056 142.482 187.617C142.406 187.742 135.965 198.316 140.278 212.293C143.491 222.702 154.411 221.898 154.874 221.856C155.537 221.808 156.118 222.293 156.173 222.951C156.228 223.61 155.745 224.199 155.081 224.254C155.06 224.254 154.763 224.282 154.252 224.282H154.259Z" fill="#371A45"/>
<path d="M39.1758 227.649C39.0721 227.649 38.9615 227.636 38.8579 227.608C26.6599 224.268 23.5844 214.345 23.46 213.929C23.2734 213.291 23.6328 212.619 24.2686 212.432C24.9044 212.245 25.5679 212.605 25.7614 213.236C25.8789 213.617 28.6364 222.307 39.4937 225.286C40.1295 225.46 40.5096 226.125 40.3368 226.762C40.1917 227.296 39.7079 227.649 39.1827 227.649H39.1758Z" fill="#371A45"/>
<path d="M96.2888 53.0505C96.0331 53.0505 95.7774 52.9812 95.5424 52.8496L86.2678 47.4237C85.7426 47.1188 85.1482 46.9525 84.5538 46.9525C84.2636 46.9525 83.9733 46.994 83.6969 47.0633C81.8931 47.5484 80.0271 47.8048 78.1542 47.8187H77.9607C65.9631 47.8187 56.0388 38.034 55.8522 26.0111C55.7555 20.017 58.0154 14.3694 62.2035 10.1007C66.3916 5.83205 71.9895 3.48291 77.9607 3.48291C78.1058 3.48291 78.251 3.48291 78.3961 3.48291C90.4421 3.71852 100.166 13.7388 100.069 25.824C100.028 31.2499 98.0028 36.461 94.3745 40.4871C93.3516 41.6236 93.1858 43.2867 93.9667 44.631L97.5674 50.8192C97.906 51.4013 97.8093 52.1358 97.3393 52.614C97.056 52.8981 96.6758 53.0505 96.2957 53.0505H96.2888Z" fill="#F9195A"/>
<path d="M77.9607 4.96588C78.0989 4.96588 78.2302 4.96588 78.3684 4.96588C89.6058 5.1807 98.68 14.5426 98.5902 25.8102C98.5487 31.0767 96.5445 35.8651 93.2756 39.4962C91.8173 41.1108 91.5893 43.4946 92.6881 45.3795L96.2888 51.5676L87.0141 46.1417C86.2608 45.6982 85.4108 45.4696 84.5538 45.4696C84.1391 45.4696 83.7176 45.525 83.3098 45.6359C81.6581 46.0794 79.9234 46.3219 78.1334 46.3427C78.0712 46.3427 78.0159 46.3427 77.9537 46.3427C66.7578 46.3427 57.497 37.2372 57.3242 25.9904C57.1445 14.411 66.4468 4.96588 77.9537 4.96588M77.9537 2C71.5817 2 65.6106 4.50852 61.1461 9.06129C56.6746 13.6141 54.2695 19.6428 54.3732 26.0319C54.5736 38.8656 65.1545 49.3016 77.9607 49.3016H78.1611C80.1653 49.2808 82.1557 49.0106 84.0769 48.4978C84.229 48.4562 84.3948 48.4354 84.5538 48.4354C84.8924 48.4354 85.2311 48.5255 85.5283 48.6988L94.8029 54.1247C95.2659 54.3949 95.7843 54.5266 96.2888 54.5266C97.0559 54.5266 97.8092 54.2286 98.3828 53.6604C99.3296 52.711 99.5232 51.235 98.8459 50.0708L95.2452 43.8827C94.7891 43.1065 94.8858 42.1364 95.4733 41.4781C99.3435 37.1817 101.5 31.6242 101.548 25.831C101.645 12.9419 91.2714 2.24947 78.4237 2C78.2717 2 78.1127 2 77.9607 2L77.9537 2Z" fill="#371A45"/>
<g opacity="0.5">
<path d="M79.4466 6.59441C67.7531 6.36573 58.2227 15.9009 58.4093 27.612C58.4715 31.347 59.5358 34.8465 61.3396 37.854C58.8862 34.5139 57.4003 30.4115 57.3312 25.9835C57.1446 14.2655 66.6749 4.73727 78.3684 4.96595C85.7011 5.10454 92.1076 9.14451 95.653 15.0555C91.9694 10.0384 86.0881 6.71914 79.4535 6.59441H79.4466Z" fill="white"/>
</g>
<g opacity="0.3">
<path d="M74.8852 41.991C76.6752 41.9771 78.4099 41.7276 80.0616 41.2841C80.2344 41.2356 80.497 41.201 80.8218 41.1802C83.8973 40.9792 86.6409 39.3231 88.5208 36.87C88.9838 36.2671 89.509 35.7266 90.0274 35.1514C93.2963 31.5203 95.3005 26.7319 95.342 21.4654C95.3696 17.7511 94.3952 14.2447 92.6881 11.2026C96.3717 14.9793 98.6385 20.1557 98.5971 25.8103C98.5556 31.0422 96.5721 35.8167 93.3378 39.4339C91.8726 41.0693 91.5685 43.4393 92.6743 45.338L96.2957 51.5608L87.0211 46.1349C85.8946 45.4766 84.5538 45.2964 83.2891 45.636C81.6443 46.0794 79.9165 46.322 78.1403 46.3358C70.3792 46.4051 63.5304 42.088 59.9504 35.7127C63.7515 39.621 69.0592 42.0464 74.8852 41.991Z" fill="#102770"/>
</g>
<path d="M85.4799 18.735C83.372 16.6215 79.958 17.0026 77.8501 19.1162L77.5253 19.4419L77.2005 19.1162C75.0926 17.0026 71.6785 16.6215 69.5707 18.735C67.4628 20.8486 67.4628 24.2718 69.5707 26.3853L69.8955 26.711L76.5232 33.3566C77.0761 33.9109 77.9814 33.9109 78.5343 33.3566L85.162 26.711L85.4868 26.3853C87.5947 24.2718 87.5947 20.8486 85.4868 18.735H85.4799Z" fill="white"/>
<g opacity="0.5">
<path d="M84.7888 21.6455C84.1392 20.7515 82.8814 20.71 82.5013 20.9871C82.1212 21.2643 82.7639 21.7563 83.4135 22.6503C84.0632 23.5442 84.4709 24.5074 84.851 24.2302C85.2311 23.953 85.4385 22.5463 84.7888 21.6455Z" fill="#FCE5E5"/>
</g>
<g opacity="0.5">
<path d="M80.7596 19.8023C80.7251 20.0656 80.9048 20.3081 81.1467 20.4051C81.3885 20.4952 81.6857 20.4398 81.8378 20.218C81.9898 20.0032 81.8516 19.6429 81.4922 19.5043C81.1328 19.3657 80.7873 19.5389 80.7596 19.8023Z" fill="#FCE5E5"/>
</g>
</g>
<defs>
<filter id="filter0_d_311_29" x="0" y="0" width="200" height="357" filterUnits="userSpaceOnUse" color-interpolation-filters="sRGB">
<feFlood flood-opacity="0" result="BackgroundImageFix"/>
<feColorMatrix in="SourceAlpha" type="matrix" values="0 0 0 0 0 0 0 0 0 0 0 0 0 0 0 0 0 0 127 0" result="hardAlpha"/>
<feOffset dy="6"/>
<feGaussianBlur stdDeviation="4"/>
<feComposite in2="hardAlpha" operator="out"/>
<feColorMatrix type="matrix" values="0 0 0 0 0 0 0 0 0 0 0 0 0 0 0 0 0 0 0.25 0"/>
<feBlend mode="normal" in2="BackgroundImageFix" result="effect1_dropShadow_311_29"/>
<feBlend mode="normal" in="SourceGraphic" in2="effect1_dropShadow_311_29" result="shape"/>
</filter>
<clipPath id="clip0_311_29">
<rect width="184" height="341" fill="white" transform="translate(8 2)"/>
</clipPath>
</defs>
</svg>
