<svg width="171" height="153" viewBox="0 0 171 153" fill="none" xmlns="http://www.w3.org/2000/svg">
<path d="M122.514 104.448V134.074C122.514 135.451 122.165 136.769 121.526 137.95C119.794 141.203 115.958 143.479 111.53 143.479H46.0841C42.3598 143.479 39.0553 141.874 37.0691 139.43C35.8336 137.908 35.1064 136.063 35.1064 134.074V104.448C35.1064 102.609 35.7331 100.889 36.809 99.4333C38.7538 96.7973 42.1943 95.0359 46.0841 95.0359H111.53C112.056 95.0359 112.576 95.0658 113.085 95.1317C118.399 95.7788 122.514 99.7209 122.514 104.442V104.448Z" fill="white"/>
<path d="M111.53 144.474H46.084C42.212 144.474 38.5587 142.827 36.3064 140.059C34.8758 138.298 34.1191 136.225 34.1191 134.074V104.448C34.1191 102.453 34.7753 100.512 36.0226 98.8346C38.2394 95.8331 41.9991 94.0418 46.084 94.0418H111.53C112.092 94.0418 112.659 94.0778 113.209 94.1437C119.073 94.8626 123.495 99.29 123.495 104.442V134.068C123.495 135.59 123.122 137.052 122.389 138.423C120.433 142.096 116.17 144.474 111.53 144.474ZM46.084 96.0368C42.6139 96.0368 39.4395 97.5286 37.5951 100.033C36.6079 101.363 36.0877 102.891 36.0877 104.448V134.074C36.0877 135.763 36.6906 137.393 37.8315 138.795C39.7114 141.107 42.7972 142.485 46.0899 142.485H111.536C115.467 142.485 119.049 140.52 120.669 137.483C121.243 136.41 121.538 135.266 121.538 134.08V104.454C121.538 100.308 117.855 96.7318 112.978 96.1327C112.505 96.0728 112.027 96.0428 111.542 96.0428H46.0958L46.084 96.0368Z" fill="#371A45"/>
<path d="M79.6433 86.8046C102.006 90.549 122.862 104.316 130.754 125.465C137.138 142.557 125.546 143.48 125.546 143.48H79.1822H79.6078H33.2441C33.2441 143.48 21.6517 142.557 28.0361 125.465C35.9338 104.316 56.7895 90.549 79.1468 86.8046" fill="white"/>
<g opacity="0.35">
<path d="M125.546 143.48H33.2443C33.2443 143.48 25.1338 142.833 26.2215 132.624C26.2392 132.75 26.251 132.87 26.2747 132.989C27.055 137.986 33.7704 138.968 36.0109 134.445L37.0277 132.402H121.704L122.791 134.559C125.056 139.046 131.7 138.046 132.516 133.073C132.539 132.929 132.563 132.786 132.581 132.636C133.663 142.851 125.552 143.492 125.552 143.492L125.546 143.48Z" fill="#371A45"/>
</g>
<path d="M29.4668 133.247C29.4668 133.247 33.8827 119.755 45.7707 119.713C56.7424 119.677 60.9336 125.225 58.3621 132.84C57.0852 136.632 43.4179 140.215 37.0217 132.396" fill="white"/>
<g opacity="0.35">
<path d="M58.3619 132.846C57.0791 136.638 43.4177 140.215 37.0215 132.402C37.0215 131.036 38.5171 130.234 39.6521 130.977C46.5685 135.548 57.2387 132.378 58.3678 129.053C58.6161 128.329 58.7935 127.622 58.9176 126.933C59.2841 128.682 59.095 130.683 58.3678 132.846H58.3619Z" fill="#371A45"/>
</g>
<path d="M29.1534 133.139C29.1771 131.552 29.7091 130.132 30.4067 128.802C31.0865 127.46 31.9732 126.232 32.9663 125.099C33.9713 123.973 35.0353 122.895 36.2472 121.978C37.4591 121.061 38.795 120.294 40.2197 119.743C41.6444 119.186 43.1518 118.857 44.6711 118.755L45.8061 118.713C46.1726 118.719 46.545 118.713 46.9115 118.731C47.6504 118.761 48.3894 118.803 49.1283 118.893C50.6062 119.066 52.09 119.366 53.5265 119.905C54.957 120.432 56.3581 121.223 57.5108 122.361C58.6694 123.488 59.503 124.997 59.8458 126.591C60.1946 128.185 60.1237 129.808 59.7926 131.324C59.7217 131.707 59.6153 132.079 59.5148 132.45L59.3434 133.001L59.302 133.139C59.2842 133.187 59.2547 133.253 59.231 133.313L59.0714 133.666C58.5749 134.529 57.9187 135.074 57.2566 135.536C55.9206 136.44 54.49 136.974 53.0358 137.375C50.1214 138.13 47.0652 138.274 44.0917 137.645C43.7193 137.567 43.3528 137.477 42.9863 137.363C42.6198 137.267 42.2592 137.129 41.8986 137.003C41.538 136.878 41.1833 136.722 40.8227 136.584C40.4739 136.416 40.1133 136.279 39.7764 136.081C39.4394 135.889 39.1024 135.697 38.795 135.446C38.4758 135.218 38.1921 134.949 37.9201 134.667C37.3822 134.098 36.9625 133.409 36.7615 132.606C36.7142 132.408 36.8324 132.211 37.0216 132.163C37.0925 132.145 37.1635 132.151 37.2285 132.169L37.264 132.181C37.6482 132.313 37.9497 132.498 38.263 132.66C38.5822 132.816 38.8483 133.013 39.1438 133.175C39.2857 133.259 39.4217 133.355 39.5576 133.451C39.6995 133.541 39.8414 133.619 39.9773 133.708C40.1192 133.792 40.2493 133.894 40.3911 133.972C40.533 134.056 40.669 134.14 40.8109 134.23C41.9045 134.967 43.1873 135.404 44.4937 135.691C47.1184 136.255 49.9145 136.129 52.5274 135.446C53.822 135.092 55.1048 134.601 56.1452 133.888C56.6595 133.541 57.1088 133.115 57.3334 132.714C57.3512 132.666 57.3689 132.618 57.3926 132.576C57.4044 132.552 57.4162 132.54 57.428 132.498L57.4635 132.378L57.6172 131.893C57.7 131.57 57.8005 131.24 57.8596 130.917C58.1433 129.611 58.1847 128.275 57.9187 127.034C57.6527 125.794 57.032 124.674 56.1275 123.793C55.229 122.907 54.0821 122.242 52.8348 121.786C51.5934 121.319 50.2515 121.043 48.8978 120.888C48.2179 120.804 47.5322 120.762 46.8406 120.738L45.8061 120.72L44.8011 120.756C43.4651 120.846 42.1528 121.133 40.9114 121.618C38.4285 122.589 36.2117 124.29 34.5092 126.441C34.0836 126.98 33.6816 127.538 33.2974 128.113C32.9072 128.682 32.5348 129.263 32.1624 129.85C31.4293 131.03 30.7081 132.217 29.7682 133.361L29.7505 133.379C29.6263 133.529 29.4135 133.547 29.2657 133.421C29.183 133.349 29.1416 133.247 29.1416 133.151L29.1534 133.139Z" fill="#371A45"/>
<path d="M129.253 133.247C129.253 133.247 124.837 119.755 112.949 119.713C101.977 119.677 97.7858 125.225 100.357 132.84C101.634 136.632 115.301 140.215 121.698 132.396" fill="white"/>
<path d="M129.253 133.247C129.253 133.247 124.837 119.755 112.949 119.713C101.977 119.677 97.7858 125.225 100.357 132.84C101.634 136.632 115.301 140.215 121.698 132.396L129.253 133.247Z" fill="white"/>
<g opacity="0.35">
<path d="M121.697 132.396C115.301 140.214 101.634 136.632 100.357 132.839C99.624 130.677 99.4408 128.676 99.8073 126.926C99.9314 127.609 100.115 128.322 100.357 129.047C101.48 132.372 112.156 135.541 119.073 130.97C120.202 130.221 121.703 131.024 121.703 132.396H121.697Z" fill="#371A45"/>
</g>
<path d="M128.946 133.349C128.006 132.211 127.279 131.018 126.552 129.838C126.179 129.251 125.807 128.67 125.417 128.101C125.038 127.526 124.63 126.968 124.205 126.429C122.496 124.278 120.285 122.577 117.803 121.606C116.561 121.121 115.249 120.834 113.913 120.744L112.908 120.708L111.873 120.726C111.182 120.756 110.496 120.792 109.816 120.875C108.457 121.031 107.121 121.307 105.879 121.774C104.632 122.235 103.491 122.9 102.586 123.781C101.682 124.662 101.067 125.788 100.795 127.022C100.523 128.262 100.571 129.592 100.854 130.904C100.913 131.234 101.014 131.558 101.097 131.881L101.25 132.366L101.286 132.486C101.298 132.528 101.31 132.534 101.321 132.564C101.345 132.612 101.363 132.654 101.38 132.702C101.605 133.097 102.054 133.529 102.569 133.876C103.609 134.589 104.892 135.08 106.187 135.434C108.799 136.117 111.601 136.243 114.22 135.679C115.527 135.392 116.809 134.954 117.903 134.218C118.039 134.128 118.181 134.044 118.323 133.96C118.465 133.882 118.595 133.78 118.737 133.696C118.873 133.606 119.014 133.529 119.156 133.439C119.292 133.343 119.428 133.253 119.57 133.163C119.866 133.001 120.132 132.804 120.451 132.648C120.764 132.486 121.066 132.3 121.45 132.169L121.485 132.157C121.675 132.091 121.881 132.193 121.947 132.384C121.97 132.456 121.97 132.528 121.952 132.594C121.751 133.397 121.332 134.086 120.794 134.655C120.522 134.936 120.238 135.206 119.919 135.434C119.617 135.685 119.28 135.877 118.938 136.069C118.601 136.266 118.24 136.404 117.891 136.572C117.531 136.71 117.182 136.866 116.815 136.991C116.455 137.117 116.094 137.255 115.728 137.351C115.361 137.465 114.995 137.549 114.622 137.632C111.649 138.261 108.592 138.124 105.678 137.363C104.224 136.961 102.787 136.428 101.457 135.524C100.801 135.062 100.139 134.517 99.6425 133.654L99.4829 133.301C99.4592 133.247 99.4297 133.175 99.412 133.127L99.3706 132.989L99.1991 132.438C99.0986 132.067 98.9922 131.695 98.9213 131.312C98.5962 129.796 98.5193 128.173 98.8681 126.579C99.2051 124.985 100.039 123.476 101.203 122.349C102.356 121.217 103.757 120.426 105.187 119.893C106.624 119.354 108.108 119.054 109.586 118.88C110.325 118.791 111.063 118.749 111.802 118.719C112.169 118.707 112.541 118.707 112.908 118.701L114.043 118.743C115.562 118.845 117.07 119.174 118.494 119.731C119.919 120.282 121.255 121.049 122.467 121.966C123.684 122.882 124.749 123.961 125.748 125.087C126.741 126.219 127.627 127.448 128.307 128.79C128.999 130.12 129.537 131.54 129.561 133.127C129.561 133.319 129.413 133.475 129.224 133.481C129.117 133.481 129.023 133.433 128.958 133.355L128.94 133.337L128.946 133.349Z" fill="#371A45"/>
<path d="M125.583 144.474H33.1684C32.997 144.456 28.9772 144.097 26.6658 140.412C24.4785 136.919 24.6322 131.773 27.115 125.117C34.6344 104.981 54.5088 89.9256 78.9883 85.8218C79.1302 85.7978 79.2661 85.8038 79.3962 85.8397C79.5262 85.8038 79.6622 85.7978 79.8041 85.8218C104.284 89.9256 124.158 104.981 131.677 125.117C134.166 131.773 134.314 136.919 132.127 140.412C129.815 144.103 125.795 144.462 125.624 144.474H125.583ZM79.6031 142.479H125.494C125.843 142.443 128.781 142.048 130.471 139.316C132.268 136.422 132.044 131.755 129.827 125.818C122.556 106.347 103.261 91.7709 79.473 87.7868C79.4435 87.7868 79.4139 87.7748 79.3844 87.7688C79.3548 87.7748 79.3252 87.7808 79.2957 87.7868C55.5079 91.7709 36.2128 106.347 28.9417 125.818C26.7249 131.755 26.5003 136.422 28.2973 139.316C29.988 142.042 32.9083 142.437 33.2748 142.479H79.5913H79.6031Z" fill="#371A45"/>
<path d="M118.985 71.4554C118.53 71.4794 118.146 71.12 118.128 70.6646L117.011 46.6885C116.987 46.2272 117.342 45.8377 117.791 45.8198C122.55 45.5921 126.593 49.3185 126.812 54.1413L127.19 62.3191C127.415 67.1419 123.738 71.2398 118.979 71.4614L118.985 71.4554Z" fill="white"/>
<path d="M118.944 71.6349C118.412 71.6349 117.975 71.2096 117.945 70.6704L116.828 46.6942C116.804 46.137 117.23 45.6637 117.78 45.6338C122.633 45.4001 126.759 49.2104 126.99 54.1291L127.368 62.3069C127.481 64.6853 126.671 66.9679 125.086 68.7293C123.502 70.4906 121.339 71.5271 118.992 71.6349C118.992 71.6349 118.962 71.6349 118.944 71.6349ZM118.2 45.9813C118.064 45.9813 117.934 45.9813 117.798 45.9933C117.443 46.0112 117.165 46.3168 117.183 46.6762L118.3 70.6524C118.318 71.0119 118.619 71.2874 118.974 71.2755C123.626 71.0538 127.238 67.0338 127.019 62.3188L126.641 54.1411C126.428 49.5579 122.68 45.9813 118.205 45.9813H118.2Z" fill="#371A45"/>
<g opacity="0.35">
<path d="M127.019 58.4725L127.196 62.3068C127.42 67.1296 123.744 71.2215 118.985 71.4551C118.53 71.4791 118.145 71.1196 118.122 70.6583L117.826 64.2839C117.968 64.5654 118.264 64.7571 118.595 64.7392L119.156 64.7092C122.916 64.5295 126.002 61.9354 127.019 58.4666V58.4725Z" fill="#371A45"/>
</g>
<path d="M118.944 72.4498C117.986 72.4498 117.188 71.6829 117.141 70.7064L116.024 46.7302C115.976 45.7237 116.751 44.861 117.744 44.8131C123.035 44.5615 127.545 48.7193 127.799 54.0872L128.178 62.265C128.426 67.627 124.323 72.1982 119.032 72.4498C119.032 72.4498 118.973 72.4498 118.95 72.4498H118.944ZM117.998 46.7961L119.098 70.4428C123.23 70.1612 126.41 66.5606 126.215 62.3489L125.837 54.1711C125.642 49.9594 122.136 46.6763 118.004 46.7901L117.998 46.7961Z" fill="#371A45"/>
<path d="M39.6924 49.5339C40.1476 49.5099 40.5319 49.8694 40.5496 50.3247L41.6669 74.3009C41.6905 74.7622 41.3358 75.1516 40.8866 75.1696C36.1278 75.3972 32.0844 71.6708 31.8656 66.848L31.4873 58.6702C31.2627 53.8474 34.9396 49.7496 39.6984 49.5279L39.6924 49.5339Z" fill="white"/>
<path d="M40.4739 75.367C35.8098 75.367 31.9082 71.6345 31.6835 66.8657L31.3052 58.6879C31.1929 56.3094 32.0028 54.0269 33.587 52.2655C35.1713 50.5041 37.3349 49.4677 39.6818 49.3598C40.2316 49.3359 40.6986 49.7672 40.7281 50.3244L41.8454 74.3065C41.869 74.8637 41.4434 75.337 40.8936 75.367C40.7518 75.3729 40.6158 75.3789 40.4739 75.3789V75.367ZM39.6995 49.7133C35.0472 49.935 31.4353 53.955 31.654 58.6699L32.0323 66.8477C32.2511 71.5626 36.2117 75.2172 40.87 75.0015C41.2247 74.9835 41.5025 74.678 41.4848 74.3185L40.3675 50.3424C40.3498 49.9829 40.0424 49.7013 39.6936 49.7193L39.6995 49.7133Z" fill="#371A45"/>
<g opacity="0.35">
<path d="M41.3605 67.6572L41.6679 74.3072C41.6916 74.7686 41.3369 75.158 40.8817 75.1819C38.3811 75.3018 36.0816 74.3312 34.4264 72.6837C32.9308 71.1979 31.9672 69.149 31.8608 66.8604L31.7012 63.4155C33.1909 66.3751 36.3003 68.3342 39.7881 68.1724L40.6512 68.1305C40.9645 68.1125 41.2246 67.9268 41.3546 67.6572H41.3605Z" fill="#371A45"/>
</g>
<path d="M40.4746 76.1878C35.3789 76.1878 31.1226 72.1139 30.8802 66.9077L30.5019 58.7299C30.2536 53.3679 34.3562 48.7968 39.647 48.5451C40.6401 48.5032 41.4914 49.282 41.5327 50.2885L42.65 74.2707C42.6973 75.2772 41.9229 76.1399 40.9298 76.1878C40.7761 76.1938 40.6224 76.1998 40.4746 76.1998V76.1878ZM39.5819 50.5402C35.4498 50.8217 32.2694 54.4223 32.4645 58.634L32.8429 66.8118C33.0379 71.0235 36.5375 74.3006 40.6756 74.1928L39.576 50.5461L39.5819 50.5402Z" fill="#371A45"/>
<path d="M79.3421 101.398C101.634 101.398 119.706 83.0833 119.706 60.4911C119.706 37.8988 101.634 19.5842 79.3421 19.5842C57.0499 19.5842 38.9785 37.8988 38.9785 60.4911C38.9785 83.0833 57.0499 101.398 79.3421 101.398Z" fill="white"/>
<path d="M79.3544 101.578C79.0233 101.578 78.6982 101.578 78.373 101.566C56.0276 101.027 38.2814 82.1548 38.8134 59.5086C39.0735 48.539 43.5308 38.3243 51.3694 30.7516C59.208 23.1789 69.4881 19.1589 80.312 19.4166C91.1359 19.6802 101.215 24.1974 108.687 32.1415C116.159 40.0857 120.132 50.5041 119.872 61.4737C119.346 83.7903 101.262 101.578 79.3544 101.578ZM79.313 19.764C68.9442 19.764 59.143 23.7361 51.6118 31.0152C43.8441 38.522 39.4223 48.6469 39.1622 59.5206C38.6302 81.969 56.2227 100.673 78.379 101.212C100.529 101.751 118.985 83.9221 119.517 61.4677C119.771 50.594 115.834 40.2654 108.427 32.3932C101.02 24.5209 91.0295 20.0396 80.3002 19.776C79.9691 19.77 79.644 19.764 79.313 19.764Z" fill="#371A45"/>
<g opacity="0.35">
<path d="M119.441 55.8002C119.653 57.6575 119.742 59.5506 119.695 61.4737C119.157 84.06 100.66 101.931 78.3736 101.392C56.0873 100.847 38.4533 82.1009 38.9854 59.5147C39.0031 58.8676 39.0327 58.2146 39.074 57.5736C41.3263 77.5477 57.8193 93.2862 78.208 93.7774C99.85 94.2987 117.921 77.4579 119.435 55.8002H119.441Z" fill="#371A45"/>
</g>
<path d="M79.3549 102.399C79.018 102.399 78.6869 102.399 78.35 102.387C55.5553 101.836 37.4603 82.5925 38.0041 59.491C38.548 36.3895 57.5238 18.051 80.3303 18.6021C91.373 18.8717 101.647 23.4788 109.267 31.5787C116.887 39.6786 120.936 50.3067 120.676 61.492C120.138 84.252 101.694 102.393 79.3549 102.393V102.399ZM79.3136 20.5852C69.1517 20.5852 59.5456 24.4793 52.168 31.6087C44.5541 38.9657 40.2209 48.8869 39.9727 59.5449C39.4524 81.544 56.6903 99.8706 78.3973 100.398C100.098 100.925 118.187 83.4552 118.708 61.4561C119.228 39.457 101.99 21.1304 80.283 20.6031C79.9579 20.5972 79.6387 20.5912 79.3136 20.5912V20.5852Z" fill="#371A45"/>
<path d="M119.54 62.5222C119.469 70.5262 116.845 77.9371 112.405 84.048C109.077 88.6311 95.4925 96.5752 78.8044 96.5752C63.3281 96.5752 49.3238 88.0919 46.0784 83.4549C41.7453 77.2661 39.2507 69.8133 39.3157 61.8092C39.4989 40.6249 57.5349 32.0038 79.6911 32.2015C101.847 32.3992 119.724 41.3438 119.54 62.5222Z" fill="#371A45"/>
<path d="M78.7986 97.5706C62.7903 97.5706 48.6796 88.8895 45.2746 84.0248C40.6637 77.4407 38.2636 69.7482 38.3345 61.7921C38.4232 51.4276 42.5967 43.4655 50.7309 38.1454C57.8365 33.4964 67.8506 31.088 79.6972 31.2018C91.5438 31.3096 101.516 33.8858 108.539 38.6606C116.579 44.1305 120.616 52.1585 120.522 62.529C120.451 70.4851 117.921 78.1296 113.192 84.6359C109.917 89.1472 96.4621 97.5706 78.7986 97.5706ZM78.9464 33.1908C67.8092 33.1908 58.4336 35.4794 51.8009 39.8169C44.2578 44.7535 40.3858 52.1525 40.3031 61.81C40.238 69.3468 42.514 76.6259 46.8825 82.8745C49.9861 87.3079 63.683 95.5755 78.7986 95.5755H78.8045C95.5577 95.5755 108.64 87.5475 111.613 83.4497C116.088 77.2849 118.494 70.0477 118.559 62.511C118.79 36.3661 91.4492 33.2987 79.6853 33.1908C79.4371 33.1908 79.1947 33.1908 78.9523 33.1908H78.9464Z" fill="#371A45"/>
<g opacity="0.7">
<path d="M111.624 60.5136C112.362 56.5872 110.682 52.9647 107.873 52.4225C105.063 51.8804 102.188 54.6239 101.45 58.5504C100.712 62.4768 102.392 66.0993 105.201 66.6415C108.011 67.1836 110.886 64.44 111.624 60.5136Z" fill="white"/>
</g>
<g opacity="0.7">
<path d="M102.734 74.7285C103.315 72.9893 102.593 71.1696 101.122 70.6641C99.6497 70.1586 97.9851 71.1588 97.4036 72.898C96.822 74.6372 97.5437 76.4569 99.0156 76.9624C100.487 77.4678 102.152 76.4677 102.734 74.7285Z" fill="white"/>
</g>
<g opacity="0.35">
<path d="M111.915 42.6863C116.78 47.4732 119.618 54.0094 119.547 62.5167C119.476 70.5207 116.845 77.9316 112.412 84.0425C109.083 88.6257 95.4988 96.5698 78.8107 96.5758C72.9169 96.5758 67.2419 95.3476 62.2881 93.5683C82.8009 93.1189 99.3472 83.3655 103.473 77.686C109.107 69.9336 112.441 60.5277 112.53 50.3728C112.553 47.6589 112.341 45.1007 111.915 42.6983V42.6863Z" fill="#111A28"/>
</g>
<path d="M116.248 44.9089C116.03 44.9089 115.811 44.837 115.628 44.6812L115.521 44.5974L115.439 44.4835C108.717 34.7481 95.6115 29.0806 79.4909 28.9368C63.2934 28.781 50.0931 34.4006 43.3067 44.3278L43.2594 44.3937C42.9165 44.819 42.2899 44.8849 41.8702 44.5315C41.4623 44.19 41.3914 43.5909 41.7047 43.1655C48.8694 32.6991 62.655 26.786 79.5086 26.9358C96.2618 27.0855 109.941 33.0526 117.035 43.3093C117.295 43.6687 117.295 44.178 117.005 44.5374C116.81 44.7771 116.526 44.9029 116.243 44.9029L116.248 44.9089Z" fill="#371A45"/>
<g opacity="0.7">
<path d="M48.2186 74.4867C48.2186 74.4867 41.9287 53.53 53.1133 45.3043C64.2978 37.0786 80.2883 37.2524 79.9041 38.2888C79.9041 38.2888 62.1696 42.4706 55.1173 56.5914C49.6846 67.4772 48.2186 74.4867 48.2186 74.4867Z" fill="white"/>
</g>
<path d="M0.287945 151.226C3.58064 150.699 6.87925 150.573 10.1719 150.507C11.8212 150.471 13.4646 150.465 15.1139 150.471C16.7632 150.471 18.4066 150.495 20.0559 150.513C23.3486 150.543 26.6472 150.555 29.9399 150.549H143.618L146.089 150.525L148.56 150.483C151.852 150.471 155.151 150.501 158.444 151.232C158.627 151.274 158.745 151.46 158.704 151.645C158.674 151.783 158.568 151.885 158.444 151.909C155.151 152.64 151.852 152.67 148.56 152.658L146.089 152.616L143.618 152.592H138.676H118.908H29.9399C26.6472 152.592 23.3486 152.592 20.0559 152.628C18.4066 152.646 16.7632 152.67 15.1139 152.67C13.4646 152.682 11.8212 152.67 10.1719 152.634C6.87925 152.568 3.58064 152.442 0.287945 151.915C0.104689 151.885 -0.0253636 151.711 0.00419383 151.519C0.0278398 151.37 0.146069 151.256 0.287945 151.232V151.226Z" fill="#371A45"/>
<path d="M144.387 143.48H14.3405C13.015 143.48 11.9404 144.569 11.9404 145.912V148.728C11.9404 150.071 13.015 151.16 14.3405 151.16H144.387C145.713 151.16 146.787 150.071 146.787 148.728V145.912C146.787 144.569 145.713 143.48 144.387 143.48Z" fill="#F92323"/>
<path d="M143.056 151.31H15.6699C13.5358 151.31 11.7979 149.548 11.7979 147.385V147.26C11.7979 145.097 13.5358 143.335 15.6699 143.335H143.056C145.19 143.335 146.928 145.097 146.928 147.26V147.385C146.928 149.548 145.19 151.31 143.056 151.31ZM15.6699 143.629C13.6895 143.629 12.0816 145.259 12.0816 147.266V147.391C12.0816 149.398 13.6895 151.028 15.6699 151.028H143.056C145.037 151.028 146.645 149.398 146.645 147.391V147.266C146.645 145.259 145.037 143.629 143.056 143.629H15.6699Z" fill="#371A45"/>
<path d="M143.056 152.16H15.6695C13.0684 152.16 10.958 150.015 10.958 147.385V147.259C10.958 144.623 13.0743 142.485 15.6695 142.485H143.056C145.657 142.485 147.767 144.629 147.767 147.259V147.385C147.767 150.021 145.651 152.16 143.056 152.16ZM15.6695 144.48C14.1561 144.48 12.9206 145.726 12.9206 147.265V147.391C12.9206 148.925 14.1502 150.177 15.6695 150.177H143.056C144.569 150.177 145.805 148.931 145.805 147.391V147.265C145.805 145.732 144.575 144.48 143.056 144.48H15.6695Z" fill="#371A45"/>
<g opacity="0.5">
<path d="M143.115 144.618H15.6107C14.186 144.618 13.0273 145.828 13.0273 147.32C13.0273 148.41 13.648 149.351 14.5466 149.782C14.2747 149.357 14.1151 148.841 14.1151 148.29C14.1151 146.799 15.2737 145.588 16.6984 145.588H27.6228C28.1903 146.247 30.0169 146.727 32.1983 146.727C34.3796 146.727 36.2063 146.247 36.7738 145.588H144.209C144.587 145.588 144.948 145.678 145.273 145.834C144.812 145.103 144.02 144.618 143.121 144.618H143.115Z" fill="white"/>
</g>
<path d="M37.3535 136.859H121.332V139.178C121.332 141.383 119.564 143.174 117.389 143.174H41.2965C39.121 143.174 37.3535 141.383 37.3535 139.178V136.859Z" fill="#C5D3E2"/>
<g opacity="0.35">
<path d="M121.331 136.859V137.165C121.331 140.484 118.677 143.174 115.402 143.174H43.2759C40.0009 143.174 37.3467 140.484 37.3467 137.165V136.859H37.6127C38.3575 139.31 40.6098 141.095 43.2759 141.095H115.402C118.062 141.095 120.32 139.31 121.065 136.859H121.331Z" fill="#371A45"/>
</g>
<path d="M115.402 144.168H43.2758C39.4628 144.168 36.3652 141.029 36.3652 137.165V135.859H122.312V137.165C122.312 141.029 119.215 144.168 115.402 144.168ZM38.381 137.854C38.7121 140.292 40.7811 142.173 43.2758 142.173H115.402C117.896 142.173 119.965 140.292 120.296 137.854H38.381Z" fill="#371A45"/>
<g opacity="0.6">
<path d="M41.1363 138.854H119.925C120.025 138.579 120.108 138.297 120.161 138.004H38.5234C38.8604 139.867 40.2023 141.371 41.9344 141.868C41.3018 141.359 40.7934 140.694 40.4683 139.921C40.2555 139.424 40.6161 138.86 41.1363 138.86V138.854Z" fill="white"/>
</g>
<path d="M108.374 143.108H50.3584C47.2608 143.108 44.6597 140.891 44.3169 137.956L39.4044 95.8508C39.0025 92.418 41.8222 89.4164 45.446 89.4164H113.28C116.904 89.4164 119.718 92.418 119.322 95.8508L114.409 137.956C114.066 140.891 111.465 143.108 108.368 143.108H108.374Z" fill="#3AAAFF"/>
<g opacity="0.6">
<path d="M83.4159 120.839C83.4159 120.839 83.4396 120.827 83.4514 120.827C83.8061 120.678 84.143 121.073 83.9361 121.402C83.3568 122.361 82.476 123.152 81.3587 123.601C78.8345 124.626 75.8965 123.529 74.6374 121.085C73.1831 118.269 74.4009 114.836 77.2325 113.584C78.3025 113.111 79.4434 113.021 80.5015 113.249C80.8503 113.327 80.9035 113.812 80.5725 113.956H80.5607C78.6099 114.824 77.7704 117.197 78.7872 119.138C79.6621 120.809 81.6838 121.552 83.4159 120.839Z" fill="white"/>
</g>
<path d="M109.318 100.35C109.301 99.799 109.289 99.2418 109.1 98.7086C109.046 98.6547 108.993 98.6007 108.934 98.5468C108.769 98.5169 108.609 98.4629 108.443 98.445C107.267 98.3192 106.102 98.3791 104.956 98.6607C103.454 99.0261 102.13 99.7151 101.078 100.877C100.693 101.297 100.357 101.758 100.014 102.207C99.9191 102.327 99.8422 102.387 99.6826 102.339C99.2984 102.231 98.9023 102.213 98.5062 102.255C97.4481 102.369 96.5554 102.854 95.7633 103.549C94.9061 104.298 94.2559 105.227 93.6765 106.203C93.4283 106.617 93.6056 107.012 94.0785 107.096C94.38 107.144 94.6756 107.198 94.9771 107.246C95.6924 107.366 96.4076 107.485 97.1229 107.605C97.1229 107.629 97.1229 107.635 97.1229 107.647C97.1229 107.659 97.117 107.677 97.1111 107.695C96.8806 108.109 97.0047 108.444 97.3476 108.72C97.383 108.75 97.4185 108.792 97.454 108.821C97.6431 109.007 97.8323 109.193 98.0333 109.385C97.8323 109.594 97.6313 109.78 97.4599 109.996C97.3712 110.104 97.3062 110.247 97.2885 110.385C97.2589 110.607 97.3949 110.81 97.6018 110.894C97.8205 110.984 98.0215 110.948 98.187 110.787C98.3939 110.583 98.5949 110.361 98.8077 110.139C99.0796 110.409 99.3338 110.661 99.588 110.906C99.8836 111.188 100.061 111.218 100.427 111.056C100.492 111.026 100.558 110.996 100.64 110.966C100.658 111.05 100.676 111.116 100.688 111.176C100.883 112.164 101.078 113.159 101.279 114.147C101.373 114.615 101.775 114.783 102.165 114.519C102.52 114.279 102.869 114.028 103.212 113.77C103.998 113.165 104.696 112.464 105.204 111.601C105.842 110.511 106.108 109.361 105.718 108.115C105.7 108.067 105.73 107.971 105.771 107.941C106.114 107.629 106.475 107.336 106.824 107.03C107.604 106.323 108.189 105.478 108.603 104.502C109.165 103.184 109.377 101.794 109.324 100.362L109.318 100.35ZM97.5426 106.569C96.715 106.431 95.8579 106.281 94.9771 106.137C95.7042 105.071 96.5022 104.113 97.6904 103.579C98.2047 103.352 98.8254 103.268 99.2097 103.364C98.6599 104.43 98.1101 105.49 97.5426 106.575V106.569ZM104.79 109.666C104.684 110.343 104.382 110.93 103.98 111.475C103.478 112.146 102.863 112.68 102.183 113.183C102 112.272 101.823 111.38 101.645 110.505C102.697 109.894 103.72 109.301 104.755 108.702C104.843 109.001 104.837 109.331 104.79 109.666ZM107.994 102.89C107.764 103.801 107.409 104.658 106.835 105.407C106.392 105.982 105.86 106.473 105.299 106.916C103.762 108.132 102.065 109.067 100.309 109.912C100.221 109.954 100.167 109.954 100.096 109.882C99.9427 109.714 99.7713 109.558 99.6058 109.397C99.5939 109.385 99.588 109.373 99.5703 109.343C99.6117 109.295 99.659 109.253 99.7003 109.205C100.628 108.228 101.562 107.252 102.491 106.275C102.757 105.994 102.715 105.592 102.396 105.407C102.177 105.275 101.917 105.317 101.716 105.52C101.155 106.108 100.599 106.689 100.043 107.276C99.6294 107.713 99.2156 108.144 98.7841 108.6C98.5831 108.402 98.3939 108.228 98.2166 108.037C98.187 108.001 98.1988 107.905 98.2225 107.851C98.654 106.922 99.0855 105.982 99.5407 105.065C99.9959 104.154 100.534 103.292 101.149 102.477C101.728 101.71 102.372 101.015 103.206 100.536C103.738 100.224 104.299 99.9847 104.897 99.8229C104.95 99.8049 105.038 99.8529 105.086 99.8948C105.819 100.608 106.546 101.321 107.279 102.034C107.498 102.243 107.716 102.465 107.941 102.675C108.006 102.741 108.024 102.8 108 102.89H107.994ZM108.189 101.71C107.462 100.997 106.753 100.302 106.043 99.6072C106.043 99.5893 106.043 99.5653 106.043 99.5473C106.747 99.5234 107.456 99.5054 108.166 99.4814C108.266 100.248 108.26 100.967 108.189 101.71Z" fill="#371A45"/>
<path d="M107.935 102.668C107.711 102.459 107.492 102.243 107.273 102.027C106.546 101.314 105.819 100.595 105.08 99.8885C105.033 99.8406 104.944 99.7987 104.891 99.8166C104.294 99.9724 103.732 100.218 103.2 100.53C102.367 101.015 101.722 101.71 101.143 102.471C100.528 103.279 99.9843 104.142 99.535 105.059C99.0739 105.981 98.6483 106.916 98.2167 107.845C98.1872 107.899 98.1813 107.994 98.2108 108.03C98.3882 108.222 98.5774 108.402 98.7783 108.593C99.2099 108.138 99.6237 107.707 100.037 107.269C100.593 106.682 101.155 106.101 101.71 105.514C101.911 105.304 102.172 105.262 102.39 105.4C102.704 105.592 102.751 105.993 102.485 106.269C101.557 107.246 100.623 108.222 99.6946 109.199C99.6473 109.247 99.6059 109.288 99.5646 109.336C99.5823 109.366 99.5882 109.384 99.6 109.39C99.7656 109.552 99.9311 109.708 100.091 109.876C100.162 109.947 100.221 109.947 100.304 109.906C102.059 109.067 103.762 108.126 105.293 106.91C105.86 106.461 106.386 105.975 106.83 105.4C107.403 104.651 107.758 103.795 107.988 102.884C108.012 102.794 107.994 102.734 107.929 102.668H107.935ZM106.274 104.178C105.565 104.915 104.406 104.939 103.685 104.226C102.958 103.519 102.94 102.345 103.643 101.602C104.335 100.871 105.494 100.859 106.221 101.566C106.942 102.273 106.966 103.459 106.274 104.178Z" fill="white"/>
<path d="M108.195 101.704C107.468 100.991 106.758 100.296 106.049 99.6012C106.049 99.5832 106.049 99.5593 106.049 99.5413C106.752 99.5233 107.462 99.4994 108.171 99.4754C108.272 100.242 108.266 100.961 108.195 101.704Z" fill="#DB2C2C"/>
<path d="M99.2092 103.358C98.6594 104.418 98.1037 105.484 97.5421 106.569C96.7145 106.425 95.8574 106.281 94.9766 106.137C95.7037 105.071 96.5017 104.112 97.6899 103.579C98.2042 103.346 98.819 103.268 99.2092 103.364V103.358Z" fill="#DB2C2C"/>
<path d="M103.981 111.47C103.478 112.141 102.863 112.674 102.183 113.177C102 112.267 101.823 111.374 101.646 110.499C102.698 109.888 103.72 109.295 104.755 108.696C104.844 108.995 104.838 109.331 104.79 109.66C104.684 110.337 104.383 110.925 103.981 111.47Z" fill="#DB2C2C"/>
<path d="M106.22 101.572C105.493 100.865 104.335 100.883 103.643 101.608C102.939 102.351 102.957 103.525 103.684 104.232C104.406 104.945 105.564 104.921 106.274 104.184C106.965 103.465 106.936 102.279 106.22 101.572ZM105.635 103.591C105.275 103.963 104.666 103.974 104.287 103.609C103.897 103.238 103.891 102.597 104.275 102.207C104.636 101.836 105.257 101.836 105.623 102.201C106.008 102.585 106.008 103.202 105.629 103.591H105.635Z" fill="#371A45"/>
<path d="M105.635 103.585C105.274 103.957 104.665 103.969 104.287 103.603C103.897 103.232 103.891 102.591 104.281 102.201C104.641 101.83 105.262 101.83 105.629 102.195C106.013 102.579 106.013 103.196 105.635 103.585Z" fill="#22A7F0"/>
<g opacity="0.35">
<path d="M111.606 138.07L116.519 95.9647C116.655 94.8144 116.3 93.6761 115.531 92.7655C114.657 91.735 113.368 91.1299 111.967 91.082C111.967 91.082 111.967 91.076 111.967 91.07C109.957 98.0616 98.7606 137.051 45.7051 138.531C46.1721 140.544 48.0933 142.012 50.3574 142.012H106.871C109.307 142.012 111.346 140.316 111.606 138.064V138.07Z" fill="#371A45"/>
</g>
<g opacity="0.6">
<path d="M47.101 138.782L42.1886 96.6774C42.0467 95.4612 42.4191 94.257 43.229 93.2925C44.1808 92.1661 45.6113 91.5191 47.1483 91.5191H114.983C115.509 91.5191 116.023 91.603 116.514 91.7468C116.413 91.597 116.307 91.4472 116.183 91.3034C115.231 90.1771 113.8 89.5301 112.263 89.5301H44.429C42.8921 89.5301 41.4674 90.1771 40.5097 91.3034C39.6939 92.268 39.3274 93.4662 39.4693 94.6884L44.3818 136.793C44.6005 138.663 45.9838 140.172 47.8104 140.718C47.4321 140.148 47.1838 139.489 47.101 138.782Z" fill="white"/>
</g>
<path d="M108.373 144.103H50.3577C46.7577 144.103 43.7428 141.509 43.3408 138.07L38.4284 95.9649C38.2097 94.0957 38.7831 92.2684 40.0481 90.8306C41.39 89.2969 43.3585 88.4162 45.4453 88.4162H113.28C115.366 88.4162 117.335 89.2969 118.677 90.8306C119.936 92.2684 120.515 94.0897 120.296 95.9649L115.384 138.07C114.982 141.509 111.967 144.103 108.367 144.103H108.373ZM45.4512 90.4112C43.9261 90.4112 42.4955 91.0463 41.526 92.1546C40.6452 93.1611 40.2373 94.4312 40.391 95.7313L45.3034 137.836C45.5872 140.275 47.7626 142.108 50.3637 142.108H108.379C110.98 142.108 113.155 140.269 113.439 137.836L118.352 95.7313C118.505 94.4312 118.097 93.1611 117.217 92.1546C116.247 91.0463 114.811 90.4112 113.291 90.4112H45.4571H45.4512Z" fill="#371A45"/>
<g opacity="0.35">
<path d="M17.6497 151.16H143.121C145.149 151.16 146.792 149.441 146.792 147.32C146.792 145.199 145.149 143.48 143.121 143.48H92.6014C90.6033 144.618 75.6354 151.687 13.8486 149.854L17.6497 151.16Z" fill="#371A45"/>
</g>
<g opacity="0.15">
<path d="M56.4294 98.9242H53.2372C51.7158 98.9242 50.4824 100.174 50.4824 101.716V113.776C50.4824 115.318 51.7158 116.568 53.2372 116.568H56.4294C57.9508 116.568 59.1841 115.318 59.1841 113.776V101.716C59.1841 100.174 57.9508 98.9242 56.4294 98.9242Z" fill="white"/>
</g>
<path d="M84.0946 120.151C84.0946 120.151 84.1183 120.139 84.1301 120.139C84.4848 119.989 84.8217 120.384 84.6148 120.714C84.0355 121.672 83.1547 122.463 82.0374 122.912C79.5132 123.937 76.5752 122.841 75.3161 120.396C73.8618 117.58 75.0796 114.148 77.9112 112.895C78.9812 112.422 80.1221 112.332 81.1803 112.56C81.529 112.638 81.5822 113.123 81.2512 113.267H81.2394C79.2886 114.136 78.4492 116.508 79.4659 118.449C80.3408 120.121 82.3626 120.863 84.0946 120.151Z" fill="#371A45"/>
<path d="M137.492 40.721C137.232 40.721 136.972 40.6191 136.777 40.4214C136.452 40.0919 136.387 39.5827 136.618 39.1753L139.496 34.1847C140.159 33.0404 140.017 31.6146 139.148 30.644C136.275 27.4208 134.679 23.2571 134.643 18.9195C134.566 9.256 142.263 1.23998 151.786 1.05426C151.905 1.05426 152.017 1.05426 152.129 1.05426C156.853 1.05426 161.28 2.93545 164.597 6.34435C167.913 9.75924 169.692 14.2765 169.621 19.0633C169.474 28.679 161.623 36.5033 152.129 36.5033H151.976C150.492 36.4913 149.014 36.2876 147.589 35.8982C147.353 35.8323 147.105 35.8023 146.856 35.8023C146.348 35.8023 145.845 35.9401 145.402 36.2037L137.995 40.5832C137.835 40.679 137.658 40.721 137.487 40.721H137.492Z" fill="#F92323"/>
<path d="M152.135 2.0729C161.322 2.0729 168.758 9.69351 168.611 19.0395C168.469 28.116 161.074 35.467 152.135 35.467C152.088 35.467 152.041 35.467 151.993 35.467C150.563 35.455 149.18 35.2573 147.861 34.8978C147.536 34.808 147.199 34.766 146.868 34.766C146.182 34.766 145.503 34.9517 144.9 35.3052L137.493 39.6847L140.372 34.6941C141.246 33.1784 141.063 31.2493 139.899 29.9492C137.292 27.0196 135.69 23.1494 135.66 18.9017C135.589 9.80734 142.837 2.25263 151.81 2.0729C151.917 2.0729 152.029 2.0729 152.135 2.0729ZM152.135 0.0179731C152.011 0.0179731 151.893 0.0179731 151.769 0.0179731C141.69 0.215678 133.55 8.693 133.627 18.9137C133.662 23.5029 135.353 27.9123 138.391 31.3212C138.959 31.9622 139.053 32.8968 138.616 33.6517L135.737 38.6422C135.27 39.451 135.4 40.4695 136.056 41.1345C136.446 41.5299 136.966 41.7336 137.493 41.7336C137.841 41.7336 138.196 41.6437 138.515 41.452L145.922 37.0726C146.212 36.9048 146.537 36.809 146.868 36.809C147.028 36.809 147.182 36.8269 147.335 36.8689C148.843 37.2763 150.403 37.4919 151.976 37.5099H152.135C162.179 37.5099 170.479 29.2363 170.638 19.0575C170.715 13.9891 168.829 9.20823 165.324 5.60162C161.818 1.98903 157.136 0 152.135 0V0.0179731Z" fill="#371A45"/>
<g opacity="0.2">
<path d="M168.587 17.9971C168.581 17.8114 168.569 17.6317 168.552 17.4519C168.546 17.3561 168.54 17.2662 168.528 17.1704C168.51 16.9846 168.487 16.8049 168.469 16.6192C168.457 16.5413 168.451 16.4634 168.439 16.3795C168.404 16.1399 168.363 15.8943 168.321 15.6606C168.303 15.5588 168.28 15.4509 168.256 15.3491C168.227 15.2053 168.197 15.0675 168.168 14.9237C168.138 14.7979 168.108 14.6781 168.079 14.5523C168.049 14.4385 168.02 14.3246 167.984 14.2108C167.949 14.079 167.907 13.9472 167.872 13.8154C167.848 13.7375 167.819 13.6596 167.795 13.5817C167.695 13.2762 167.588 12.9706 167.476 12.6711C167.458 12.6292 167.446 12.5872 167.429 12.5453C167.364 12.3775 167.293 12.2158 167.222 12.054C167.198 12.0061 167.18 11.9582 167.157 11.9042C167.08 11.7365 167.003 11.5628 166.92 11.401C166.914 11.389 166.908 11.377 166.902 11.365C166.53 10.6102 166.11 9.88526 165.631 9.19629C166.441 11.2153 166.873 13.426 166.837 15.7445C166.713 23.5388 161.239 30.0571 154.033 31.7466C146.39 33.46 141.944 32.0102 139.237 29.3082C139.225 29.2902 138.137 26.6722 138.125 26.6542C137.67 26.145 137.25 25.6058 136.866 25.0486C136.925 25.2044 136.99 25.3541 137.061 25.5039C137.777 27.1395 138.74 28.6432 139.905 29.9493C141.069 31.2553 141.253 33.1784 140.378 34.6942L137.499 39.6847L144.906 35.3053C145.798 34.778 146.863 34.6223 147.867 34.8979C149.186 35.2573 150.569 35.455 152 35.467C152.26 35.467 152.514 35.467 152.774 35.455C153.01 35.4431 153.247 35.4311 153.483 35.4071C153.519 35.4071 153.554 35.4071 153.59 35.4011C153.809 35.3831 154.021 35.3532 154.234 35.3292C154.287 35.3232 154.341 35.3172 154.394 35.3112C154.595 35.2813 154.796 35.2453 154.991 35.2154C155.056 35.2034 155.121 35.1914 155.186 35.1794C155.375 35.1435 155.564 35.1016 155.747 35.0596C155.818 35.0417 155.895 35.0297 155.966 35.0117C156.144 34.9698 156.321 34.9158 156.498 34.8679C156.575 34.8439 156.652 34.826 156.735 34.802C156.906 34.7481 157.078 34.6942 157.243 34.6403C157.326 34.6103 157.409 34.5863 157.485 34.5564C157.651 34.4965 157.811 34.4366 157.97 34.3766C158.053 34.3467 158.136 34.3107 158.224 34.2808C158.384 34.2149 158.538 34.149 158.691 34.0831C158.774 34.0471 158.863 34.0052 158.946 33.9693C159.093 33.8974 159.241 33.8255 159.389 33.7536C159.478 33.7116 159.56 33.6637 159.649 33.6218C159.791 33.5439 159.933 33.466 160.075 33.3881C160.163 33.3402 160.252 33.2923 160.335 33.2383C160.471 33.1605 160.607 33.0766 160.743 32.9927C160.831 32.9388 160.92 32.8849 161.003 32.825C161.133 32.7411 161.263 32.6512 161.387 32.5614C161.476 32.5014 161.558 32.4415 161.647 32.3756C161.771 32.2858 161.895 32.1959 162.014 32.1C162.102 32.0341 162.185 31.9682 162.274 31.9023C162.392 31.8065 162.504 31.7166 162.623 31.6148C162.705 31.5429 162.794 31.471 162.877 31.3991C162.989 31.3032 163.095 31.2014 163.208 31.1055C163.291 31.0277 163.373 30.9498 163.456 30.8719C163.562 30.77 163.663 30.6682 163.769 30.5663C163.852 30.4825 163.929 30.3986 164.012 30.3147C164.112 30.2129 164.207 30.105 164.301 29.9972C164.378 29.9073 164.461 29.8175 164.538 29.7276C164.632 29.6198 164.721 29.5119 164.81 29.4041C164.887 29.3082 164.963 29.2184 165.034 29.1225C165.123 29.0147 165.206 28.9008 165.289 28.793C165.36 28.6911 165.436 28.5953 165.507 28.4934C165.584 28.3796 165.667 28.2718 165.744 28.1579C165.815 28.0561 165.88 27.9483 165.951 27.8404C166.022 27.7266 166.098 27.6128 166.169 27.4989C166.234 27.3911 166.299 27.2773 166.364 27.1634C166.43 27.0496 166.5 26.9298 166.565 26.8159C166.631 26.7021 166.69 26.5823 166.749 26.4685C166.808 26.3486 166.873 26.2348 166.926 26.115C166.985 25.9952 167.038 25.8694 167.098 25.7495C167.151 25.6297 167.204 25.5159 167.257 25.3901C167.31 25.2643 167.364 25.1385 167.411 25.0126C167.458 24.8928 167.505 24.773 167.553 24.6532C167.6 24.5214 167.647 24.3896 167.695 24.2578C167.736 24.138 167.777 24.0181 167.819 23.8983C167.86 23.7605 167.901 23.6227 167.943 23.4849C167.978 23.3651 168.014 23.2453 168.049 23.1255C168.085 22.9817 168.12 22.8379 168.156 22.6941C168.185 22.5743 168.215 22.4545 168.238 22.3346C168.268 22.1849 168.298 22.0351 168.327 21.8793C168.351 21.7655 168.374 21.6457 168.392 21.5318C168.416 21.3701 168.439 21.2083 168.463 21.0466C168.481 20.9327 168.499 20.8249 168.51 20.7111C168.534 20.5313 168.546 20.3456 168.558 20.1659C168.564 20.07 168.575 19.9802 168.581 19.8843C168.599 19.6087 168.611 19.3271 168.617 19.0456C168.617 18.776 168.617 18.5124 168.611 18.2488C168.611 18.1649 168.605 18.081 168.599 17.9971H168.587Z" fill="#102770"/>
</g>
<g opacity="0.5">
<path d="M159.898 13.9114C158.09 12.0781 155.069 12.1321 153.017 13.9713C152.095 13.1446 150.954 12.6533 149.76 12.5694C148.377 12.4736 147.088 12.9528 146.142 13.9114C144.174 15.9064 144.174 19.1536 146.142 21.1486L151.699 26.7802C152.054 27.1396 152.527 27.3373 153.023 27.3373C153.52 27.3373 153.993 27.1396 154.348 26.7802L159.904 21.1486C161.873 19.1536 161.873 15.9064 159.904 13.9114H159.898Z" fill="white"/>
</g>
<g opacity="0.5">
<path d="M136.546 20.1C136.475 11.0056 143.723 3.44493 152.697 3.27119C157.946 3.16934 162.651 5.55378 165.737 9.34611C162.711 4.8708 157.597 1.96514 151.816 2.07897C142.842 2.25271 135.595 9.80742 135.666 18.9078C135.695 22.8799 137.096 26.5164 139.408 29.3682C137.628 26.7261 136.576 23.5389 136.552 20.106L136.546 20.1Z" fill="white"/>
</g>
<path d="M145.775 13.5458C147.46 11.8383 150.185 12.1439 151.87 13.8513L152.13 14.1149L152.39 13.8513C154.075 12.1439 156.8 11.8383 158.485 13.5458C160.17 15.2532 160.17 18.0151 158.485 19.7226L158.225 19.9862L152.934 25.3481C152.491 25.7975 151.77 25.7975 151.326 25.3481L146.035 19.9862L145.775 19.7226C144.091 18.0151 144.091 15.2532 145.775 13.5458Z" fill="white"/>
<path d="M152.136 26.3724C151.669 26.3724 151.208 26.1927 150.853 25.8332L145.296 20.2017C144.356 19.2491 143.836 17.979 143.836 16.631C143.836 15.283 144.356 14.0129 145.296 13.0603C147.093 11.2391 150.102 11.305 152.13 13.1562C154.157 11.305 157.172 11.2391 158.963 13.0603C160.908 15.0314 160.908 18.2366 158.963 20.2077L153.407 25.8392C153.052 26.1987 152.591 26.3784 152.124 26.3784L152.136 26.3724ZM148.547 13.0963C147.69 13.0963 146.869 13.4018 146.254 14.0249C145.568 14.7199 145.19 15.6425 145.19 16.631C145.19 17.6195 145.568 18.5421 146.254 19.2371L151.811 24.8687C151.988 25.0484 152.283 25.0484 152.461 24.8687L158.018 19.2371C159.436 17.7993 159.436 15.4627 158.018 14.0309C156.682 12.6769 154.376 12.8147 152.88 14.3364L152.62 14.6C152.354 14.8696 151.929 14.8696 151.663 14.6L151.403 14.3364C150.593 13.5157 149.552 13.1023 148.553 13.1023L148.547 13.0963Z" fill="#371A45"/>
</svg>
