<svg width="164" height="156" viewBox="0 0 164 156" fill="none" xmlns="http://www.w3.org/2000/svg">
<path d="M18.8311 141.918H145.984V144.119C145.984 149.974 141.798 154.719 136.65 154.719H28.1648C23.0097 154.719 18.8311 149.965 18.8311 144.119V141.918Z" fill="#DBE3EE"/>
<path d="M67.8921 141.918C67.8921 142.787 68.1116 143.603 68.4901 144.308H19.0354C18.8992 143.535 18.8311 142.735 18.8311 141.918H67.8921Z" fill="white"/>
<path d="M146.506 141.746C146.506 145.28 145.166 148.486 143.001 150.799C142.289 151.564 141.479 152.235 140.601 152.785C142.554 150.507 143.742 147.472 143.742 144.136H96.8389C97.2174 143.431 97.4369 142.615 97.4369 141.746H146.498H146.506Z" fill="white"/>
<path d="M134.705 155.656H30.1029C23.4338 155.656 18.0137 149.492 18.0137 141.927C18.0137 141.411 18.377 140.998 18.8312 140.998H145.984C146.438 140.998 146.802 141.411 146.802 141.927C146.802 149.501 141.374 155.656 134.705 155.656ZM19.6791 142.855C20.0954 148.968 24.6147 153.799 30.1029 153.799H134.705C140.193 153.799 144.712 148.968 145.129 142.855H19.6791Z" fill="#390075"/>
<g opacity="0.3">
<path d="M145.961 141.918C145.961 145.452 144.621 148.658 142.456 150.971C140.291 153.292 137.301 154.719 134.008 154.719H30.7684C24.1674 154.719 18.8154 148.985 18.8154 141.918H19.4135C20.9804 147.025 25.477 150.713 30.7684 150.713H134.015C137.316 150.713 140.306 149.277 142.464 146.965C143.773 145.563 144.772 143.844 145.363 141.918H145.961Z" fill="#390075"/>
</g>
<path d="M92.7069 147.635H72.1014C69.3308 147.635 67.0674 145.073 67.0674 141.918C67.0674 141.403 67.4307 140.99 67.8849 140.99H96.9158C97.37 140.99 97.7334 141.403 97.7334 141.918C97.7334 145.065 95.4775 147.635 92.6993 147.635H92.7069ZM68.8085 142.847C69.1718 144.523 70.5117 145.77 72.1014 145.77H92.7069C94.2966 145.77 95.6365 144.523 95.9998 142.847H68.8085Z" fill="#390075"/>
<g opacity="0.3">
<path d="M92.7058 146.707H72.1003C69.7763 146.707 67.8838 144.566 67.8838 141.918H96.9147C96.9147 144.558 95.0297 146.707 92.6982 146.707H92.7058Z" fill="#390075"/>
</g>
<g opacity="0.3">
<path d="M96.1965 141.918C96.1965 143.242 95.6969 144.437 94.8869 145.297C94.0769 146.165 92.9641 146.698 91.7302 146.698H88.3994C89.6333 146.698 90.7461 146.165 91.5561 145.297C92.3661 144.429 92.8657 143.234 92.8657 141.918H96.1965Z" fill="#390075"/>
</g>
<path d="M131.577 62.4827H33.2276C29.8454 62.4827 27.1035 65.5965 27.1035 69.4376V134.963C27.1035 138.804 29.8454 141.918 33.2276 141.918H131.577C134.959 141.918 137.701 138.804 137.701 134.963V69.4376C137.701 65.5965 134.959 62.4827 131.577 62.4827Z" fill="#DBE3EE"/>
<path d="M131.577 142.082H33.2281C29.7762 142.082 26.9678 138.892 26.9678 134.972V69.4464C26.9678 65.5262 29.7762 62.3367 33.2281 62.3367H131.585C135.037 62.3367 137.845 65.5262 137.845 69.4464V134.972C137.845 138.892 135.037 142.082 131.585 142.082H131.577ZM33.2281 62.6462C29.9276 62.6462 27.2403 65.6981 27.2403 69.4464V134.972C27.2403 138.72 29.9276 141.772 33.2281 141.772H131.585C134.885 141.772 137.573 138.72 137.573 134.972V69.4464C137.573 65.6981 134.885 62.6462 131.585 62.6462H33.2281Z" fill="#390075"/>
<g opacity="0.3">
<path d="M136.485 139.27C135.334 140.723 133.616 141.635 131.693 141.635H33.7072C30.225 141.635 27.4014 138.609 27.4014 134.877V68.9477C27.4014 66.979 28.1886 65.1995 29.4528 63.9701C29.3166 64.4515 29.2409 64.9673 29.2409 65.5003V134.19C29.2409 137.156 31.4816 139.563 34.2522 139.563H134.827C135.41 139.563 135.97 139.46 136.485 139.262V139.27Z" fill="#390075"/>
</g>
<g opacity="0.6">
<path d="M137.475 69.412V135.342C137.475 137.302 136.695 139.073 135.446 140.302C135.567 139.838 135.635 139.356 135.635 138.858V69.8332C135.635 66.9532 133.463 64.6235 130.776 64.6235H126.635C126.075 66.4718 121.616 66.4718 121.063 64.6235H29.8904C29.4211 64.6235 28.9745 64.7009 28.543 64.8298C29.6936 63.4973 31.3439 62.6548 33.1758 62.6548H131.169C134.651 62.6548 137.475 65.6809 137.475 69.412Z" fill="white"/>
</g>
<path d="M131.578 142.855H33.2288C29.3984 142.855 26.2871 139.322 26.2871 134.972V69.4464C26.2871 65.0963 29.3984 61.563 33.2288 61.563H131.586C135.416 61.563 138.527 65.0963 138.527 69.4464V134.972C138.527 139.322 135.416 142.855 131.586 142.855H131.578ZM33.2288 63.4199C30.3068 63.4199 27.9222 66.1194 27.9222 69.4464V134.972C27.9222 138.29 30.2992 140.998 33.2288 140.998H131.586C134.508 140.998 136.892 138.299 136.892 134.972V69.4464C136.892 66.1279 134.515 63.4199 131.586 63.4199H33.2288Z" fill="#390075"/>
<path d="M130.434 73.5299V130.88C130.434 132.728 129.034 134.233 127.308 134.233H37.5053C37.1495 134.233 36.8013 134.164 36.4834 134.052C35.257 133.597 34.3789 132.35 34.3789 130.88V73.5299C34.3789 71.6816 35.7794 70.1771 37.5053 70.1771H127.3C129.026 70.1771 130.427 71.6816 130.427 73.5299H130.434Z" fill="#33AEF1"/>
<path opacity="0.3" d="M130.436 73.5299V87.2591L105.864 134.233H91.2461L127.06 70.1771H127.309C129.035 70.1771 130.436 71.6815 130.436 73.5299Z" fill="url(#paint0_linear_60_5688)"/>
<path opacity="0.3" d="M99.012 70.1771L63.1984 134.233H37.2182C36.8624 134.233 36.5142 134.164 36.1963 134.052L71.8887 70.1857H99.0044L99.012 70.1771Z" fill="url(#paint1_linear_60_5688)"/>
<g opacity="0.3">
<path d="M132.653 72.739V126.607C132.653 128.421 131.768 130.012 130.428 130.923V73.5385C130.428 71.6902 129.027 70.1857 127.301 70.1857H37.5062C37.4153 70.1857 37.3245 70.1857 37.2412 70.2029C38.0588 68.6812 39.5955 67.6582 41.3593 67.6582H127.907C130.534 67.6582 132.661 69.9364 132.661 72.7562L132.653 72.739Z" fill="#390075"/>
</g>
<path opacity="0.3" d="M62.8125 70.1771L34.3721 123.031V91.1794L48.2024 70.1771H62.8125Z" fill="url(#paint2_linear_60_5688)"/>
<g opacity="0.3">
<path d="M130.435 73.5299V130.88C130.435 132.668 129.125 134.13 127.483 134.224V75.043C127.483 73.8824 126.604 72.9453 125.522 72.9453H34.4248C34.6822 71.3721 35.9615 70.1771 37.5058 70.1771H127.301C129.027 70.1771 130.427 71.6816 130.427 73.5299H130.435Z" fill="#390075"/>
</g>
<path d="M127.391 135.161H37.4146C35.2875 135.161 33.5615 133.192 33.5615 130.785V73.633C33.5615 71.2173 35.295 69.2572 37.4146 69.2572H127.391C129.519 69.2572 131.245 71.2259 131.245 73.633V130.785C131.245 133.201 129.511 135.161 127.391 135.161ZM37.4146 71.1055C36.1883 71.1055 35.1966 72.2403 35.1966 73.6244V130.777C35.1966 132.169 36.1959 133.296 37.4146 133.296H127.391C128.618 133.296 129.609 132.161 129.609 130.777V73.6244C129.609 72.2317 128.61 71.1055 127.391 71.1055H37.4146Z" fill="#390075"/>
<mask id="mask0_60_5688" style="mask-type:luminance" maskUnits="userSpaceOnUse" x="33" y="64" width="98" height="78">
<path d="M120.442 141.196H35.0756C31.2073 137.242 34.4018 128.989 36.529 127.123V133.502C40.3064 122.403 48.482 114.606 56.3775 121.088C57.9445 119.274 60.0262 118.311 62.0474 118.535C64.3865 107.78 69.6704 96.5696 76.3168 85.1357L66.93 93.5951C73.1828 80.588 81.9337 70.1771 91.9564 64.7782C91.9564 64.7782 97.4976 62.1992 97.5582 71.0282C97.5279 71.097 97.4976 71.1657 97.4673 71.2259C91.7066 84.491 89.4886 107.926 94.1668 116.652C94.1895 116.704 94.2198 116.755 94.2501 116.807C96.3621 115.93 98.7997 116.377 99.4507 118.922C102.797 115.896 107.952 118.217 108.421 122.455C110.503 120.684 112.887 119.652 115.249 119.351C121.525 118.543 127.619 122.928 127.429 132.402L130.624 128.447C130.806 137.474 126.377 140.337 120.45 141.205L120.442 141.196Z" fill="white"/>
</mask>
<g mask="url(#mask0_60_5688)">
<path d="M31.1982 135.376L34.6047 124.621L75.1495 141.196H31.1982V135.376Z" fill="#F47C00"/>
<path d="M34.6055 124.621L34.8856 123.744L77.5878 141.196H75.1503L34.6055 124.621Z" fill="#F47C00"/>
<path d="M34.8857 123.744L35.1658 122.859L80.0255 141.196H77.588L34.8857 123.744Z" fill="#F47D01"/>
<path d="M35.165 122.859L35.4451 121.974L82.4623 141.196H80.0247L35.165 122.859Z" fill="#F47E01"/>
<path d="M35.4453 121.973L35.7254 121.088L84.9076 141.196H82.4625L35.4453 121.973Z" fill="#F47F02"/>
<path d="M35.7266 121.088L36.0067 120.211L87.3463 141.196H84.9087L35.7266 121.088Z" fill="#F58002"/>
<path d="M36.0049 120.211L36.285 119.326L89.782 141.196H87.3445L36.0049 120.211Z" fill="#F58103"/>
<path d="M36.2852 119.326L36.5652 118.44L92.2197 141.196H89.7822L36.2852 119.326Z" fill="#F58203"/>
<path d="M36.5654 118.44L36.8455 117.563L94.665 141.196H92.2199L36.5654 118.44Z" fill="#F58304"/>
<path d="M36.8457 117.563L37.1258 116.678L97.1027 141.196H94.6652L36.8457 117.563Z" fill="#F58404"/>
<path d="M37.126 116.678L37.4061 115.792L99.5405 141.196H97.1029L37.126 116.678Z" fill="#F58505"/>
<path d="M37.4062 115.792L37.6863 114.907L101.986 141.196H99.5407L37.4062 115.792Z" fill="#F58605"/>
<path d="M37.6865 114.907L37.9666 114.03L104.423 141.196H101.986L37.6865 114.907Z" fill="#F68706"/>
<path d="M37.9668 114.03L38.2469 113.144L106.861 141.196H104.424L37.9668 114.03Z" fill="#F68806"/>
<path d="M38.2451 113.145L38.5252 112.259L109.297 141.196H106.859L38.2451 113.145Z" fill="#F68907"/>
<path d="M38.5254 112.259L38.8055 111.382L111.742 141.196H109.297L38.5254 112.259Z" fill="#F68A07"/>
<path d="M38.8066 111.382L39.0867 110.497L114.181 141.196H111.743L38.8066 111.382Z" fill="#F68B08"/>
<path d="M39.0869 110.497L39.367 109.611L116.619 141.196H114.181L39.0869 110.497Z" fill="#F68C09"/>
<path d="M39.3662 109.611L39.6463 108.734L119.055 141.196H116.618L39.3662 109.611Z" fill="#F68D09"/>
<path d="M39.6475 108.734L39.9275 107.849L121.502 141.196H119.057L39.6475 108.734Z" fill="#F78E0A"/>
<path d="M39.9277 107.849L40.2078 106.963L123.939 141.196H121.502L39.9277 107.849Z" fill="#F78F0A"/>
<path d="M40.208 106.963L40.4881 106.078L126.377 141.196H123.94L40.208 106.963Z" fill="#F7900B"/>
<path d="M40.4863 106.078L40.7664 105.201L128.813 141.196H126.375L40.4863 106.078Z" fill="#F7910B"/>
<path d="M40.7666 105.201L41.0467 104.315L130.335 140.818L130.214 141.196H128.813L40.7666 105.201Z" fill="#F7920C"/>
<path d="M41.3283 103.436L41.0488 104.317L130.336 140.823L130.615 139.942L41.3283 103.436Z" fill="#F7930C"/>
<path d="M41.3271 103.43L41.6072 102.553L130.804 139.021V139.331L130.615 139.932L41.3271 103.43Z" fill="#F7940D"/>
<path d="M41.6064 102.553L41.8865 101.668L130.804 138.024V139.021L41.6064 102.553Z" fill="#F8950D"/>
<path d="M41.8877 101.668L42.1678 100.782L130.805 137.027V138.024L41.8877 101.668Z" fill="#F8960E"/>
<path d="M42.168 100.782L42.4481 99.9052L130.805 136.021V137.027L42.168 100.782Z" fill="#F8970E"/>
<path d="M42.4482 99.9053L42.7283 99.0198L130.805 135.024V136.021L42.4482 99.9053Z" fill="#F8980F"/>
<path d="M42.7275 99.0198L43.0076 98.1343L130.804 134.026V135.024L42.7275 99.0198Z" fill="#F8990F"/>
<path d="M43.0078 98.1343L43.2879 97.2488L130.804 133.029V134.026L43.0078 98.1343Z" fill="#F89A10"/>
<path d="M43.2871 97.2488L43.5672 96.3719L130.804 132.032V133.029L43.2871 97.2488Z" fill="#F89B11"/>
<path d="M43.5674 96.3719L43.8475 95.4864L130.804 131.035V132.032L43.5674 96.3719Z" fill="#F99C11"/>
<path d="M43.8486 95.4864L44.1287 94.601L130.805 130.037V131.035L43.8486 95.4864Z" fill="#F99D12"/>
<path d="M44.1279 94.6009L44.408 93.724L130.804 129.04V130.037L44.1279 94.6009Z" fill="#F99E12"/>
<path d="M44.4082 93.724L44.6883 92.8386L130.804 128.043V129.04L44.4082 93.724Z" fill="#F99F13"/>
<path d="M44.6895 92.8385L44.962 91.9531L130.806 127.046V128.043L44.6895 92.8385Z" fill="#F9A013"/>
<path d="M44.9609 91.9531L45.241 91.0676L130.805 126.048V127.046L44.9609 91.9531Z" fill="#F9A114"/>
<path d="M45.2412 91.0676L45.5213 90.1907L130.805 125.051V126.048L45.2412 91.0676Z" fill="#F9A214"/>
<path d="M45.5205 90.1907L45.8006 89.3052L130.804 124.054V125.051L45.5205 90.1907Z" fill="#FAA415"/>
<path d="M45.8018 89.3052L46.0818 88.4197L130.805 123.057V124.054L45.8018 89.3052Z" fill="#FAA515"/>
<path d="M46.082 88.4197L46.3621 87.5428L130.805 122.059V123.057L46.082 88.4197Z" fill="#FAA616"/>
<path d="M46.3613 87.5429L46.6414 86.6574L130.804 121.062V122.06L46.3613 87.5429Z" fill="#FAA716"/>
<path d="M46.6406 86.6574L46.9207 85.7719L130.804 120.065V121.062L46.6406 86.6574Z" fill="#FAA817"/>
<path d="M46.9209 85.7719L47.201 84.895L130.804 119.068V120.065L46.9209 85.7719Z" fill="#FAA917"/>
<path d="M47.2012 84.895L47.4813 84.0095L130.804 118.071V119.068L47.2012 84.895Z" fill="#FAAA18"/>
<path d="M47.4814 84.0095L47.7615 83.124L130.804 117.073V118.07L47.4814 84.0095Z" fill="#FBAB18"/>
<path d="M47.7607 83.1241L48.0408 82.2386L130.803 116.076V117.073L47.7607 83.1241Z" fill="#FBAC19"/>
<path d="M48.042 82.2386L48.3221 81.3617L130.805 115.079V116.076L48.042 82.2386Z" fill="#FBAD1A"/>
<path d="M48.3223 81.3617L48.6024 80.4762L130.805 114.082V115.079L48.3223 81.3617Z" fill="#FBAE1A"/>
<path d="M48.6025 80.4762L48.8826 79.5907L130.805 113.084V114.082L48.6025 80.4762Z" fill="#FBAF1B"/>
<path d="M48.8828 79.5907L49.1629 78.7138L130.805 112.087V113.084L48.8828 79.5907Z" fill="#FBB01B"/>
<path d="M49.1621 78.7139L49.4422 77.8284L130.804 111.09V112.087L49.1621 78.7139Z" fill="#FBB11C"/>
<path d="M49.4414 77.8284L49.7215 76.9429L130.804 110.093V111.09L49.4414 77.8284Z" fill="#FCB21C"/>
<path d="M49.7217 76.9429L50.0018 76.066L130.804 109.095V110.093L49.7217 76.9429Z" fill="#FCB31D"/>
<path d="M50.0039 76.066L50.284 75.1805L130.806 108.098V109.095L50.0039 76.066Z" fill="#FCB41D"/>
<path d="M50.2822 75.1805L50.5623 74.295L130.804 107.101V108.098L50.2822 75.1805Z" fill="#FCB51E"/>
<path d="M50.5625 74.295L50.8426 73.4095L130.804 106.104V107.101L50.5625 74.295Z" fill="#FCB61E"/>
<path d="M50.8428 73.4095L51.1229 72.5327L130.804 105.106V106.104L50.8428 73.4095Z" fill="#FCB71F"/>
<path d="M51.124 72.5326L51.4041 71.6472L130.806 104.109V105.106L51.124 72.5326Z" fill="#FCB81F"/>
<path d="M51.4023 71.6471L51.6824 70.7617L130.804 103.112V104.109L51.4023 71.6471Z" fill="#FDB920"/>
<path d="M51.6826 70.7617L51.9627 69.8848L130.804 102.115V103.112L51.6826 70.7617Z" fill="#FDBA20"/>
<path d="M51.9629 69.8848L52.243 68.9993L130.804 101.117V102.115L51.9629 69.8848Z" fill="#FDBB21"/>
<path d="M52.2432 68.9993L52.5233 68.1138L130.804 100.12V101.117L52.2432 68.9993Z" fill="#FDBC22"/>
<path d="M52.5234 68.1138L52.8035 67.2283L130.805 99.1229V100.12L52.5234 68.1138Z" fill="#FDBD22"/>
<path d="M52.8027 67.2283L53.0828 66.3514L130.804 98.1256V99.1229L52.8027 67.2283Z" fill="#FDBE23"/>
<path d="M53.084 66.3515L53.3641 65.466L130.805 97.1285V98.1257L53.084 66.3515Z" fill="#FDBF23"/>
<path d="M53.3643 65.466L53.6443 64.5805L130.805 96.1312V97.1284L53.3643 65.466Z" fill="#FEC024"/>
<path d="M53.6436 64.5805L53.9236 63.7036L130.804 95.1339V96.1312L53.6436 64.5805Z" fill="#FEC124"/>
<path d="M53.9248 63.7036L54.2049 62.8181L130.806 94.1367V95.1339L53.9248 63.7036Z" fill="#FEC225"/>
<path d="M54.2041 62.8181L54.4009 62.1906H55.1201L130.805 93.1395V94.1367L54.2041 62.8181Z" fill="#FEC325"/>
<path d="M57.5567 62.1906L130.804 92.1422V93.1394L55.1191 62.1906H57.5567Z" fill="#FEC426"/>
<path d="M59.9942 62.1906L130.804 91.145V92.1422L57.5566 62.1906H59.9942Z" fill="#FEC526"/>
<path d="M62.4317 62.1906L130.804 90.1477V91.145L59.9941 62.1906H62.4317Z" fill="#FEC627"/>
<path d="M64.8777 62.1906L130.805 89.1505V90.1477L62.4326 62.1906H64.8777Z" fill="#FFC727"/>
<path d="M67.3155 62.1906L130.805 88.1532V89.1505L64.8779 62.1906H67.3155Z" fill="#FFC828"/>
<path d="M69.752 62.1906L130.804 87.156V88.1532L67.3145 62.1906H69.752Z" fill="#FFC928"/>
<path d="M72.1895 62.1906L130.804 86.1588V87.156L69.752 62.1906H72.1895Z" fill="#FFCA29"/>
<path d="M130.805 86.1588L72.1904 62.1906H130.805V86.1588Z" fill="#FFCA29"/>
</g>
<g opacity="0.55">
<path d="M36.5202 127.123V131.507C35.2712 134.301 34.4687 138.308 35.907 141.196H35.0668C31.1985 137.242 34.393 128.989 36.5202 127.123Z" fill="white"/>
</g>
<g opacity="0.55">
<path d="M72.7058 91.5663L78.1941 86.6144C71.5401 98.0483 66.2638 109.259 63.9247 120.013C61.911 119.79 59.8217 120.753 58.2547 122.567C50.3668 116.093 42.1837 123.882 38.4062 134.981V128.946C42.6379 120.443 49.6098 115.534 56.3698 121.079C57.9368 119.266 60.0185 118.303 62.0397 118.526C63.9398 109.8 67.7778 100.774 72.7058 91.5663Z" fill="white"/>
</g>
<g opacity="0.55">
<path d="M93.84 66.2656C85.4373 70.7875 77.9279 78.8342 72.0384 88.9872L66.9287 93.5951C73.1815 80.588 81.9324 70.1772 91.9551 64.7783C91.9551 64.7783 94.8695 63.42 96.4895 66.042C95.142 65.6552 93.84 66.2656 93.84 66.2656Z" fill="white"/>
</g>
<g opacity="0.55">
<path d="M38.4132 128.954V128.61C37.8076 129.143 37.1188 130.192 36.5283 131.508L38.4132 128.946V128.954Z" fill="white"/>
<path d="M35.8467 132.668L36.3993 131.439C36.9897 130.123 37.6938 129.049 38.3296 128.49L38.5567 128.292V129.014L35.8542 132.677L35.8467 132.668ZM37.9738 129.29C37.8754 129.41 37.7846 129.539 37.6862 129.676L37.9738 129.29Z" fill="#390075"/>
</g>
<path d="M120.441 141.196H83.3477C88.0032 140.534 91.2356 138.591 92.636 134.989C95.8684 138.101 98.4271 136.253 100.706 132.298C102.78 136.133 104.619 136.253 106.126 130.863C114.316 130.742 117.36 126.908 115.24 119.352C121.516 118.543 127.609 122.928 127.42 132.402L130.615 128.447C130.796 137.474 126.368 140.337 120.441 141.205V141.196Z" fill="#D36C0F"/>
<path d="M57.0881 121.535C56.6794 122.102 56.2782 122.687 55.8845 123.289C55.4909 123.891 55.12 124.51 54.6885 125.103C54.643 125.163 54.5673 125.172 54.5144 125.12C54.4765 125.086 54.4614 125.017 54.4765 124.965C54.6885 124.269 54.8474 123.53 55.0443 122.807C55.2335 122.077 55.4379 121.346 55.6574 120.624C55.8088 120.125 56.2857 119.867 56.7172 120.039C57.1487 120.211 57.3758 120.753 57.2244 121.243C57.1941 121.346 57.1411 121.449 57.0806 121.535H57.0881Z" fill="#390075"/>
<path d="M65.9672 121.741C65.3161 121.208 64.597 120.77 63.8778 120.366C63.1587 119.97 62.4168 119.635 61.675 119.36C61.2435 119.197 61.0012 118.672 61.1451 118.174C61.2889 117.684 61.7507 117.409 62.1897 117.572C62.2654 117.598 62.3336 117.641 62.3941 117.684C63.1057 118.242 63.7719 118.836 64.3926 119.48C65.0133 120.125 65.6114 120.787 66.1261 121.544C66.164 121.604 66.1564 121.69 66.1034 121.741C66.058 121.776 65.9974 121.776 65.9596 121.741H65.9672Z" fill="#390075"/>
<path d="M120.442 142.142H35.0749C34.8705 142.142 34.6737 142.056 34.5147 141.901C33.0613 140.423 32.3422 138.265 32.4254 135.668C32.5466 131.886 34.3785 127.811 36.0136 126.375C36.2634 126.152 36.6041 126.117 36.8917 126.272C37.1794 126.435 37.3611 126.762 37.3611 127.123V129.152C40.003 123.538 43.6669 119.584 47.573 118.268C50.5253 117.271 53.523 117.83 56.2936 119.876C57.7849 118.389 59.5941 117.563 61.4033 117.555C63.3185 109.199 67.0127 100.146 72.9021 89.4256L67.4442 94.3431C67.1338 94.6267 66.6947 94.6181 66.3919 94.3259C66.0891 94.0336 66.0059 93.5435 66.1951 93.1481C72.6902 79.6337 81.7136 69.2573 91.6 63.9272C91.6151 63.9272 91.6302 63.91 91.6378 63.91C91.7362 63.867 94.1056 62.7838 96.0663 64.271C97.5803 65.4144 98.36 67.684 98.3827 71.0282C98.3827 71.1744 98.3524 71.3291 98.2918 71.4581C92.3645 84.9208 90.578 107.187 94.628 115.698C95.9679 115.302 97.2926 115.405 98.3297 116.007C98.9504 116.36 99.4425 116.884 99.7983 117.538C101.509 116.463 103.614 116.317 105.521 117.194C107.149 117.942 108.352 119.291 108.92 120.933C113.129 117.916 118.261 117.452 122.296 119.816C125.65 121.776 127.724 125.455 128.163 130.098L129.995 127.828C130.222 127.544 130.585 127.45 130.903 127.579C131.221 127.716 131.433 128.06 131.441 128.438C131.66 139.279 125.324 141.454 120.54 142.15C120.502 142.15 120.472 142.15 120.434 142.15L120.442 142.142ZM35.4004 140.251H120.381C126.286 139.382 129.177 136.562 129.7 130.975L128.034 133.038C127.8 133.33 127.429 133.425 127.111 133.278C126.785 133.132 126.581 132.771 126.588 132.376C126.687 127.304 124.893 123.435 121.539 121.475C117.792 119.283 112.72 119.988 108.913 123.211C108.678 123.409 108.36 123.452 108.087 123.323C107.815 123.194 107.626 122.902 107.588 122.575C107.414 120.985 106.399 119.627 104.893 118.93C103.205 118.157 101.32 118.432 99.9572 119.661C99.7377 119.859 99.45 119.919 99.1851 119.824C98.9201 119.73 98.7158 119.489 98.6401 119.188C98.4584 118.492 98.1026 117.985 97.5727 117.684C96.7854 117.228 95.6499 117.237 94.5296 117.701C94.1586 117.856 93.7498 117.701 93.5379 117.314C91.1988 113.11 90.2904 105.184 91.0625 95.581C91.7817 86.5457 93.8937 77.304 96.7097 70.8133C96.6643 68.3116 96.1268 66.5922 95.1503 65.8529C93.9997 64.976 92.4554 65.5778 92.2813 65.6551C83.7953 70.2373 75.9528 78.6881 69.8817 89.7265L75.7939 84.3964C76.1118 84.1041 76.5736 84.1213 76.8764 84.4394C77.1792 84.7575 77.2322 85.2733 77.0051 85.6602C69.4275 98.6845 64.9309 109.207 62.8492 118.767C62.7508 119.223 62.3647 119.523 61.9559 119.48C60.2224 119.283 58.3602 120.142 56.9673 121.759C56.6872 122.085 56.2027 122.128 55.8848 121.862C53.3564 119.79 50.7145 119.197 48.0423 120.091C43.8183 121.509 39.7078 126.788 37.3005 133.846C37.1567 134.267 36.763 134.516 36.3694 134.439C35.9758 134.353 35.6881 133.966 35.6881 133.511V129.797C34.8781 131.37 34.159 133.579 34.0908 135.746C34.0303 137.646 34.4693 139.159 35.408 140.259L35.4004 140.251Z" fill="#390075"/>
<path d="M108.906 123.203C108.596 123.383 108.27 123.607 107.96 123.839C107.642 124.071 107.339 124.32 107.036 124.578C106.438 125.103 105.863 125.67 105.363 126.332C105.318 126.392 105.242 126.401 105.189 126.349C105.144 126.306 105.136 126.246 105.159 126.186C105.477 125.361 105.893 124.578 106.363 123.839C106.597 123.469 106.847 123.108 107.104 122.756C107.362 122.403 107.627 122.059 107.937 121.716L107.952 121.698C108.278 121.329 108.8 121.337 109.126 121.698C109.451 122.068 109.443 122.661 109.126 123.031C109.065 123.1 108.997 123.16 108.921 123.194L108.906 123.203Z" fill="#390075"/>
<path d="M96.9289 122.635C96.9592 122.231 97.0727 121.845 97.2014 121.475C97.3377 121.105 97.4891 120.753 97.6632 120.4C97.8373 120.056 98.019 119.721 98.2158 119.386C98.4202 119.051 98.617 118.741 98.8895 118.397L98.5791 119.128C98.5791 118.612 98.9425 118.199 99.3967 118.199C99.8509 118.199 100.214 118.612 100.214 119.128V119.291C100.214 119.541 100.086 119.756 99.9039 119.859C99.6692 119.988 99.3967 120.203 99.1393 120.4C98.8819 120.607 98.6321 120.83 98.3899 121.071C98.1477 121.303 97.913 121.552 97.701 121.819C97.4891 122.085 97.2923 122.369 97.1636 122.696C97.1333 122.773 97.0576 122.799 96.997 122.764C96.9516 122.739 96.9213 122.678 96.9289 122.627V122.635Z" fill="#390075"/>
<path d="M94.6135 117.641C94.0684 117.813 93.5764 118.045 93.16 118.475C92.7437 118.904 92.4106 119.558 92.0094 120.151C91.9715 120.211 91.8883 120.22 91.8353 120.177C91.7899 120.142 91.7747 120.082 91.7899 120.022C91.8807 119.678 91.9564 119.326 92.0397 118.965C92.1229 118.604 92.2289 118.225 92.3955 117.856C92.5544 117.486 92.7815 117.125 93.0389 116.815C93.2963 116.506 93.5839 116.231 93.8792 115.982L93.8943 115.964C94.2652 115.655 94.7876 115.741 95.0601 116.162C95.3326 116.583 95.2569 117.176 94.886 117.486C94.8027 117.555 94.7043 117.606 94.6135 117.632V117.641Z" fill="#390075"/>
<path d="M99.4433 120.031C98.9059 120.031 98.4668 119.532 98.4668 118.922C98.4668 118.303 98.9059 117.804 99.4433 117.804C99.9808 117.804 100.42 118.303 100.42 118.913C100.42 119.523 99.9808 120.031 99.4433 120.031Z" fill="#390075"/>
<path d="M93.0376 66.3429C89.2072 69.7902 85.7629 74.4326 82.5986 79.9604L86.1565 77.1578C82.1142 84.2159 78.4654 93.6811 74.9757 104.118L78.8212 97.7646C75.2179 108.502 74.6123 117.331 74.6123 125.034L81.2436 104.255L83.1815 108.657C84.5744 99.2003 90.3579 75.1031 95.8612 69.5409L92.7273 65.913" fill="#FFCA29"/>
<g opacity="0.2">
<path d="M51.2218 125.515C50.5481 124.802 48.0954 125.515 46.2937 127.708C44.4921 129.9 44.0227 132.728 44.6965 133.442C45.3702 134.155 46.9448 132.496 48.7464 130.313C50.5481 128.12 51.9031 126.229 51.2294 125.515H51.2218Z" fill="white"/>
</g>
<path d="M161.538 155.046C158.245 155.536 154.944 155.656 151.651 155.716C150.001 155.751 148.358 155.759 146.708 155.751C145.058 155.751 143.415 155.734 141.765 155.716C138.472 155.691 135.171 155.682 131.878 155.682H18.2076L15.7398 155.708L13.272 155.751C11.6217 155.768 9.97905 155.751 8.3288 155.656C6.67854 155.562 5.03585 155.415 3.3856 155.054C3.2342 155.02 3.12822 154.857 3.1585 154.676C3.18121 154.547 3.27205 154.444 3.3856 154.418C5.03585 154.066 6.67854 153.911 8.3288 153.816C9.97905 153.73 11.6217 153.705 13.272 153.722L15.7398 153.765L18.2076 153.791H23.1508H42.9236H131.886C135.179 153.791 138.479 153.791 141.772 153.756C143.423 153.739 145.065 153.722 146.716 153.722C148.366 153.713 150.009 153.722 151.659 153.756C154.952 153.816 158.252 153.937 161.545 154.427C161.697 154.453 161.81 154.607 161.787 154.779C161.772 154.925 161.666 155.037 161.545 155.054L161.538 155.046Z" fill="#390075"/>
<path d="M152.304 99.7075L153.871 113.359C153.917 113.789 153.705 114.193 153.349 114.348C152.668 114.64 151.979 114.898 151.29 115.113C150.752 115.285 150.207 115.431 149.655 115.56C147.399 116.093 145.105 116.291 142.857 116.368C141.661 116.403 140.472 116.403 139.314 116.385C135.839 116.343 132.615 116.188 130.003 116.669C128.996 116.858 128.088 117.133 127.285 117.546C126.786 117.804 126.21 117.452 126.142 116.824L124.583 103.241C124.537 102.871 124.696 102.501 124.977 102.321C125.892 101.728 126.99 101.367 128.216 101.135C130.828 100.653 134.053 100.808 137.528 100.851C140.851 100.894 144.409 100.842 147.861 100.026C148.989 99.7591 150.109 99.4152 151.207 98.9681C151.699 98.7704 152.228 99.1229 152.297 99.7161L152.304 99.7075Z" fill="#1EBC61"/>
<g opacity="0.3">
<path d="M153.704 111.924L153.901 113.643C153.947 114.073 153.735 114.477 153.379 114.632C152.698 114.924 152.009 115.182 151.32 115.397C150.782 115.569 150.237 115.715 149.685 115.844C147.429 116.377 145.135 116.575 142.887 116.652C141.691 116.686 140.502 116.686 139.344 116.669C135.87 116.626 132.645 116.471 130.033 116.953C129.026 117.142 128.118 117.417 127.315 117.83C126.816 118.088 126.241 117.735 126.172 117.108L125.976 115.388C126.044 116.007 126.627 116.368 127.119 116.11C127.921 115.698 128.829 115.414 129.836 115.233C132.448 114.752 135.673 114.907 139.147 114.95C140.306 114.967 141.486 114.967 142.69 114.933C144.938 114.864 147.232 114.657 149.488 114.124C150.033 113.995 150.578 113.849 151.123 113.677C151.819 113.462 152.501 113.213 153.182 112.912C153.538 112.758 153.757 112.353 153.704 111.924Z" fill="#282E6B"/>
<path d="M126.983 118.07C126.824 118.07 126.665 118.027 126.521 117.933C126.256 117.77 126.082 117.469 126.037 117.125L125.84 115.405L126.112 115.362C126.143 115.603 126.264 115.809 126.453 115.93C126.642 116.05 126.862 116.059 127.066 115.956C127.838 115.552 128.739 115.268 129.814 115.062C132.032 114.649 134.719 114.7 137.558 114.752C138.08 114.761 138.61 114.769 139.14 114.778C140.185 114.786 141.426 114.795 142.675 114.761C145.317 114.675 147.475 114.425 149.451 113.961C149.996 113.832 150.541 113.686 151.071 113.523C151.759 113.308 152.456 113.05 153.122 112.766C153.417 112.637 153.599 112.302 153.561 111.949L153.834 111.906L154.03 113.626C154.091 114.124 153.834 114.597 153.417 114.778C152.736 115.07 152.04 115.328 151.343 115.543C150.806 115.715 150.253 115.861 149.7 115.99C147.71 116.454 145.544 116.712 142.88 116.798C141.623 116.833 140.382 116.833 139.337 116.815C138.8 116.815 138.27 116.798 137.747 116.79C134.916 116.738 132.252 116.686 130.056 117.099C129.004 117.297 128.126 117.58 127.377 117.967C127.248 118.036 127.112 118.07 126.975 118.07H126.983ZM126.203 116.119L126.317 117.082C126.347 117.323 126.468 117.529 126.657 117.649C126.847 117.77 127.066 117.778 127.271 117.675C128.043 117.271 128.944 116.987 130.018 116.781C132.236 116.368 134.924 116.42 137.763 116.471C138.285 116.48 138.815 116.489 139.352 116.497C140.397 116.506 141.638 116.514 142.887 116.48C145.529 116.394 147.687 116.145 149.655 115.681C150.2 115.552 150.745 115.405 151.275 115.242C151.964 115.027 152.653 114.778 153.326 114.486C153.622 114.357 153.803 114.021 153.766 113.669L153.652 112.706C153.546 112.861 153.402 112.99 153.228 113.058C152.554 113.351 151.85 113.609 151.154 113.824C150.616 113.996 150.064 114.142 149.511 114.271C147.52 114.735 145.355 114.993 142.691 115.079C141.434 115.122 140.193 115.113 139.148 115.096C138.61 115.096 138.08 115.079 137.558 115.07C134.727 115.019 132.055 114.967 129.86 115.38C128.807 115.577 127.929 115.861 127.18 116.248C126.9 116.394 126.589 116.377 126.317 116.214C126.271 116.188 126.233 116.162 126.196 116.128L126.203 116.119Z" fill="#390075"/>
</g>
<g opacity="0.55">
<path d="M152.237 100.12L152.396 101.53C152.328 100.945 151.798 100.584 151.306 100.782C150.208 101.229 149.088 101.573 147.96 101.84C144.5 102.648 140.95 102.708 137.627 102.665C134.152 102.622 130.928 102.467 128.316 102.949C127.082 103.172 125.992 103.542 125.076 104.135C124.788 104.315 124.637 104.685 124.682 105.055L124.523 103.645C124.478 103.275 124.637 102.906 124.917 102.725C125.833 102.132 126.931 101.771 128.157 101.539C130.769 101.057 133.993 101.212 137.468 101.255C140.791 101.298 144.349 101.246 147.801 100.43C148.929 100.163 150.049 99.8192 151.147 99.3722C151.639 99.1745 152.169 99.5269 152.237 100.12Z" fill="white"/>
</g>
<path d="M126.953 118.414C126.703 118.414 126.453 118.346 126.219 118.199C125.795 117.933 125.522 117.469 125.454 116.927L123.895 103.335C123.812 102.639 124.107 101.969 124.637 101.625C127.369 99.8709 131.351 99.9482 135.961 100.034C140.715 100.12 146.098 100.215 150.973 98.2203C151.404 98.0397 151.881 98.0999 152.275 98.3664C152.668 98.6329 152.926 99.0886 152.979 99.6044L154.546 113.256C154.636 114.047 154.235 114.795 153.577 115.079C152.888 115.38 152.169 115.638 151.45 115.861C148.997 116.626 146.264 117.039 142.858 117.133C141.086 117.185 139.368 117.159 137.702 117.133C133.562 117.056 129.989 116.996 127.574 118.251C127.369 118.354 127.157 118.406 126.945 118.406L126.953 118.414ZM133.168 101.573C129.951 101.573 127.203 101.788 125.326 103C125.288 103.026 125.273 103.078 125.28 103.129L126.84 116.712C126.84 116.755 126.862 116.79 126.9 116.815C126.923 116.833 126.961 116.841 127.014 116.815C129.716 115.414 133.433 115.483 137.74 115.56C139.391 115.586 141.101 115.62 142.842 115.56C146.135 115.457 148.755 115.07 151.101 114.339C151.783 114.133 152.456 113.884 153.1 113.6C153.153 113.574 153.191 113.514 153.183 113.454L151.616 99.8021C151.616 99.8021 151.593 99.7247 151.563 99.7075C151.54 99.6903 151.503 99.6731 151.45 99.6989C146.332 101.788 140.814 101.693 135.946 101.599C134.992 101.582 134.061 101.564 133.176 101.564L133.168 101.573Z" fill="#390075"/>
<path d="M149.632 105.106L150.139 109.491C148.898 109.671 148.02 110.969 148.179 112.379C148.186 112.474 148.201 112.56 148.224 112.654C147.656 112.783 147.066 112.895 146.453 112.99C145.264 113.161 143.97 113.273 142.501 113.316C140.942 113.368 139.39 113.333 137.891 113.316C135.552 113.273 133.334 113.239 131.351 113.497V113.445C131.184 112.035 130.041 111.038 128.799 111.227L128.3 106.86C129.541 106.679 130.419 105.381 130.26 103.971C131.964 103.756 134.03 103.799 136.21 103.834C139.019 103.885 142.198 103.946 145.363 103.473C145.976 103.378 146.566 103.275 147.141 103.146C147.399 104.427 148.481 105.287 149.647 105.115L149.632 105.106Z" fill="#9EEF79"/>
<path d="M131.229 113.66L131.206 113.454C131.131 112.809 130.843 112.242 130.389 111.846C129.935 111.451 129.375 111.279 128.814 111.365L128.678 111.382L128.141 106.697L128.277 106.68C129.443 106.508 130.268 105.287 130.116 103.972L130.101 103.808L130.245 103.791C131.963 103.576 134.03 103.619 136.21 103.653C139.011 103.705 142.191 103.765 145.347 103.292C145.96 103.198 146.558 103.095 147.111 102.974L147.24 102.949L147.27 103.095C147.52 104.315 148.527 105.106 149.624 104.943L149.76 104.926L150.298 109.62L150.162 109.637C148.996 109.809 148.171 111.03 148.322 112.354C148.33 112.44 148.345 112.526 148.368 112.611L148.405 112.775L148.262 112.809C147.671 112.947 147.088 113.05 146.475 113.144C145.287 113.316 143.992 113.428 142.508 113.471C140.957 113.523 139.427 113.488 137.944 113.471H137.898C135.567 113.428 133.356 113.385 131.373 113.643L131.237 113.66H131.229ZM129.094 111.038C129.624 111.038 130.132 111.236 130.555 111.606C131.04 112.027 131.358 112.637 131.464 113.316C133.424 113.076 135.597 113.11 137.891 113.153H137.936C139.42 113.179 140.949 113.205 142.493 113.153C143.969 113.11 145.256 112.998 146.437 112.826C146.997 112.74 147.527 112.646 148.065 112.526C148.065 112.483 148.05 112.44 148.05 112.397C147.883 110.952 148.746 109.62 149.988 109.353L149.518 105.27C148.383 105.364 147.346 104.548 147.035 103.31C146.505 103.421 145.953 103.525 145.377 103.602C142.206 104.075 139.019 104.015 136.203 103.963C134.083 103.929 132.085 103.886 130.412 104.083C130.495 105.459 129.655 106.705 128.459 106.963L128.928 111.03C128.988 111.03 129.049 111.03 129.11 111.03L129.094 111.038Z" fill="#390075"/>
<g opacity="0.55">
<path d="M149.633 105.106L149.755 106.172C148.589 106.344 147.506 105.476 147.249 104.204C146.674 104.333 146.083 104.436 145.47 104.53C142.306 104.995 139.126 104.943 136.318 104.891C134.138 104.848 132.079 104.814 130.368 105.029C130.527 106.439 129.649 107.737 128.407 107.918L128.286 106.852C129.528 106.671 130.406 105.373 130.247 103.963C131.95 103.748 134.017 103.791 136.197 103.825C139.005 103.877 142.185 103.929 145.349 103.464C145.962 103.37 146.552 103.267 147.128 103.138C147.385 104.419 148.468 105.278 149.633 105.106Z" fill="white"/>
</g>
<path d="M131.344 114.116C131.071 114.116 130.829 113.884 130.791 113.566V113.514C130.723 112.998 130.496 112.543 130.133 112.225C129.769 111.907 129.323 111.769 128.861 111.838C128.717 111.864 128.566 111.812 128.452 111.709C128.339 111.606 128.255 111.46 128.24 111.288L127.741 106.92C127.703 106.576 127.915 106.258 128.218 106.215C129.156 106.078 129.815 105.098 129.701 104.032C129.679 103.86 129.724 103.697 129.815 103.559C129.906 103.43 130.042 103.344 130.193 103.318C131.934 103.103 134.016 103.138 136.212 103.181C138.997 103.232 142.162 103.292 145.288 102.828C145.894 102.742 146.484 102.63 147.029 102.51C147.324 102.441 147.604 102.656 147.672 102.992C147.869 103.972 148.687 104.608 149.565 104.479C149.709 104.462 149.86 104.505 149.974 104.608C150.087 104.711 150.171 104.857 150.186 105.029L150.685 109.413C150.723 109.757 150.511 110.075 150.208 110.118C149.27 110.256 148.604 111.236 148.732 112.302C148.74 112.371 148.747 112.431 148.763 112.5C148.8 112.672 148.778 112.844 148.694 112.998C148.611 113.145 148.482 113.248 148.331 113.282C147.733 113.42 147.143 113.531 146.522 113.617C145.318 113.798 144.009 113.901 142.51 113.953C140.95 114.004 139.414 113.97 137.922 113.953H137.877C135.553 113.91 133.365 113.875 131.412 114.125C131.389 114.125 131.367 114.125 131.352 114.125L131.344 114.116ZM129.277 110.565C129.83 110.608 130.36 110.832 130.807 111.227C131.268 111.631 131.609 112.182 131.776 112.801C133.668 112.603 135.719 112.637 137.884 112.68H137.93C139.406 112.706 140.935 112.732 142.472 112.68C143.933 112.637 145.205 112.534 146.37 112.362C146.787 112.302 147.196 112.233 147.597 112.147C147.559 110.729 148.354 109.456 149.512 109.009L149.141 105.751C148.096 105.674 147.173 104.943 146.749 103.851C146.317 103.937 145.871 104.015 145.417 104.083C142.215 104.556 139.012 104.496 136.181 104.453C134.236 104.419 132.381 104.384 130.807 104.53C130.723 105.803 129.966 106.912 128.899 107.324L129.27 110.565H129.277Z" fill="#390075"/>
<path d="M139.442 111.726C140.93 111.726 142.137 110.356 142.137 108.665C142.137 106.975 140.93 105.605 139.442 105.605C137.954 105.605 136.747 106.975 136.747 108.665C136.747 110.356 137.954 111.726 139.442 111.726Z" fill="#1EBC61"/>
<path d="M145.5 109.465C146.114 109.465 146.612 108.899 146.612 108.201C146.612 107.503 146.114 106.938 145.5 106.938C144.885 106.938 144.387 107.503 144.387 108.201C144.387 108.899 144.885 109.465 145.5 109.465Z" fill="#1EBC61"/>
<path d="M133.274 110.007C133.888 110.007 134.387 109.441 134.387 108.743C134.387 108.045 133.888 107.479 133.274 107.479C132.659 107.479 132.161 108.045 132.161 108.743C132.161 109.441 132.659 110.007 133.274 110.007Z" fill="#1EBC61"/>
<path d="M133.218 79.9346L136.844 93.0707C136.958 93.4834 137.306 93.7499 137.684 93.7155C138.411 93.6553 139.13 93.5607 139.834 93.4232C140.387 93.32 140.932 93.1911 141.477 93.0449C143.718 92.4517 145.875 91.5405 147.942 90.5346C149.047 89.993 150.114 89.4256 151.159 88.8668C154.293 87.1732 157.162 85.4882 159.713 84.6801C160.69 84.3706 161.621 84.1901 162.499 84.1815C163.044 84.1815 163.438 83.5797 163.271 82.9865L159.66 69.9106C159.562 69.5582 159.289 69.2916 158.964 69.2659C157.911 69.1713 156.784 69.3604 155.587 69.7387C153.044 70.5468 150.167 72.2232 147.033 73.9254C144.036 75.5502 140.788 77.1922 137.351 78.1035C136.231 78.4044 135.088 78.6193 133.922 78.7397C133.4 78.7912 133.052 79.3672 133.211 79.9346H133.218Z" fill="#1EBC61"/>
<g opacity="0.3">
<path d="M136.464 91.6951L136.918 93.3543C137.032 93.767 137.38 94.0335 137.758 93.9991C138.485 93.9389 139.204 93.8444 139.908 93.7068C140.461 93.6037 141.006 93.4747 141.551 93.3286C143.792 92.7354 145.949 91.8241 148.016 90.8183C149.121 90.2767 150.188 89.7093 151.233 89.1505C154.367 87.4569 157.236 85.7719 159.787 84.9638C160.764 84.6543 161.695 84.4737 162.573 84.4651C163.118 84.4651 163.511 83.8634 163.345 83.2702L162.891 81.611C163.057 82.2041 162.664 82.8059 162.119 82.8059C161.24 82.8059 160.309 82.9951 159.333 83.3045C156.782 84.1127 153.913 85.7891 150.779 87.4912C149.734 88.0586 148.659 88.626 147.561 89.1591C145.495 90.1649 143.337 91.0762 141.097 91.6694C140.552 91.8155 140.007 91.9359 139.454 92.0476C138.742 92.1852 138.031 92.2797 137.304 92.3399C136.926 92.3743 136.577 92.1078 136.464 91.6951Z" fill="#282E6B"/>
<path d="M137.699 94.1539C137.282 94.1539 136.911 93.853 136.79 93.3974L136.336 91.7382L136.601 91.6436C136.692 91.9875 136.972 92.2024 137.297 92.1766C138.009 92.1164 138.728 92.0219 139.44 91.8843C139.985 91.7812 140.537 91.6522 141.075 91.5147C143.035 90.9903 145.087 90.1993 147.517 89.013C148.667 88.4542 149.788 87.8524 150.734 87.3452C151.219 87.0873 151.695 86.8207 152.165 86.5628C154.723 85.1615 157.146 83.8376 159.311 83.1499C160.363 82.8146 161.287 82.6512 162.134 82.6426C162.354 82.6426 162.551 82.5309 162.679 82.3246C162.808 82.1268 162.838 81.8775 162.778 81.6454L163.043 81.5508L163.497 83.21C163.588 83.5367 163.535 83.8892 163.361 84.1729C163.179 84.4566 162.899 84.6113 162.596 84.6199C161.771 84.6199 160.87 84.7833 159.848 85.11C157.706 85.7891 155.299 87.1044 152.748 88.4971C152.278 88.7551 151.801 89.013 151.317 89.2795C150.371 89.7867 149.243 90.3885 148.092 90.9559C145.647 92.1508 143.588 92.9503 141.605 93.4748C141.06 93.6209 140.499 93.7499 139.954 93.853C139.243 93.9906 138.509 94.0937 137.789 94.1453C137.767 94.1453 137.744 94.1453 137.714 94.1453L137.699 94.1539ZM136.798 92.3744L137.055 93.3028C137.146 93.6467 137.441 93.8616 137.752 93.8358C138.463 93.7757 139.182 93.6811 139.894 93.5435C140.439 93.4404 140.991 93.3114 141.529 93.1739C143.497 92.6495 145.541 91.8585 147.971 90.6722C149.122 90.1134 150.242 89.5116 151.188 89.0044C151.673 88.7465 152.15 88.48 152.619 88.222C155.178 86.8207 157.592 85.4968 159.765 84.8091C160.817 84.4738 161.741 84.3104 162.589 84.3019C162.808 84.3019 163.005 84.1901 163.134 83.9838C163.262 83.786 163.293 83.5367 163.232 83.3046L162.975 82.3761C162.952 82.4191 162.929 82.4707 162.899 82.5137C162.717 82.7974 162.437 82.9521 162.134 82.9607C161.309 82.9607 160.408 83.1241 159.387 83.4508C157.244 84.1299 154.837 85.4452 152.286 86.8465C151.817 87.1044 151.34 87.3624 150.855 87.6289C149.909 88.1361 148.781 88.7379 147.63 89.3053C145.185 90.5002 143.126 91.2997 141.143 91.8242C140.598 91.9703 140.038 92.0993 139.493 92.2024C138.781 92.34 138.047 92.4431 137.328 92.4947C137.146 92.5119 136.964 92.4689 136.813 92.3744H136.798Z" fill="#390075"/>
</g>
<g opacity="0.55">
<path d="M133.438 80.2699L133.809 81.6282C133.65 81.0608 133.998 80.4848 134.521 80.4332C135.686 80.3129 136.83 80.098 137.95 79.7971C141.387 78.8858 144.634 77.2438 147.632 75.619C150.766 73.9254 153.642 72.2404 156.186 71.4323C157.39 71.054 158.51 70.8649 159.562 70.9594C159.888 70.9852 160.168 71.2517 160.259 71.6042L159.888 70.2459C159.789 69.8934 159.517 69.6269 159.191 69.6011C158.139 69.5066 157.011 69.6957 155.815 70.074C153.272 70.8821 150.395 72.5585 147.261 74.2607C144.263 75.8855 141.016 77.5275 137.579 78.4388C136.459 78.7396 135.316 78.9546 134.15 79.0749C133.627 79.1265 133.279 79.7025 133.438 80.2699Z" fill="white"/>
</g>
<path d="M137.623 94.5064C136.965 94.5064 136.382 94.025 136.177 93.3028L132.551 80.1667C132.415 79.6681 132.483 79.1351 132.733 78.7052C132.99 78.2668 133.399 77.9917 133.861 77.9487C139.024 77.4329 143.876 74.7765 148.153 72.4295C152.309 70.1513 155.897 68.1912 159.016 68.4749C159.622 68.5265 160.136 68.9993 160.326 69.6699L163.937 82.7458C164.08 83.2702 163.997 83.8204 163.717 84.2675C163.429 84.7145 162.99 84.9638 162.506 84.9724C159.849 84.9896 156.624 86.752 152.9 88.7894C151.401 89.6147 149.841 90.4572 148.221 91.2567C145.095 92.787 142.468 93.7241 139.955 94.1969C139.221 94.3344 138.471 94.4376 137.737 94.4978C137.699 94.4978 137.661 94.4978 137.631 94.4978L137.623 94.5064ZM133.884 79.7025L137.51 92.8386C137.525 92.8988 137.578 92.9331 137.638 92.9331C138.327 92.8816 139.031 92.7784 139.72 92.6494C142.127 92.1938 144.648 91.2997 147.669 89.8125C149.266 89.0301 150.803 88.1876 152.294 87.3709C156.177 85.2475 159.523 83.4164 162.498 83.3992C162.551 83.3992 162.582 83.3648 162.597 83.339C162.619 83.3046 162.627 83.2616 162.612 83.2186L159.001 70.1427C158.986 70.0911 158.948 70.0482 158.91 70.0482C156.162 69.7988 152.733 71.673 148.759 73.848C144.368 76.2551 139.395 78.9718 133.982 79.5134C133.929 79.5134 133.899 79.5477 133.884 79.5735C133.861 79.6079 133.861 79.6423 133.869 79.6853L133.884 79.7025Z" fill="#390075"/>
<path d="M137.638 83.5623L138.803 87.7834C140 87.3535 141.271 88.1101 141.65 89.4684C141.672 89.5544 141.695 89.6489 141.71 89.7435C142.271 89.5887 142.846 89.4082 143.444 89.2019C144.587 88.7978 145.798 88.2734 147.153 87.6115C148.591 86.9065 149.984 86.15 151.332 85.4106C153.436 84.2587 155.435 83.1668 157.335 82.4533L157.32 82.4017C156.941 81.0434 157.615 79.5991 158.811 79.1693L157.653 74.9654C156.457 75.3866 155.185 74.6387 154.806 73.2804C153.179 73.8994 151.317 74.9224 149.356 75.997C146.828 77.3811 143.959 78.9544 140.915 80.0376C140.325 80.2439 139.75 80.433 139.182 80.5878C139.417 81.8687 138.758 83.1754 137.638 83.5709V83.5623Z" fill="#9EEF79"/>
<path d="M141.597 89.9328L141.575 89.7695C141.559 89.6835 141.544 89.5976 141.522 89.5202C141.355 88.9012 140.977 88.4026 140.477 88.1017C139.97 87.8008 139.394 87.7406 138.849 87.9384L138.721 87.9813L137.472 83.4594L137.608 83.4164C138.66 83.0381 139.281 81.8345 139.061 80.6138L139.031 80.4676L139.16 80.4333C139.712 80.2785 140.288 80.0894 140.886 79.883C143.921 78.7998 146.783 77.2352 149.311 75.8511C151.279 74.7765 153.134 73.7534 154.777 73.1345L154.913 73.0829L154.958 73.2376C155.314 74.51 156.51 75.2149 157.631 74.8195L157.759 74.7765L159.001 79.2813L158.864 79.3242C157.744 79.7197 157.116 81.0866 157.464 82.359L157.517 82.5567L157.388 82.6083C155.496 83.3218 153.505 84.405 151.4 85.557L151.355 85.5828C150.023 86.3135 148.637 87.0701 147.214 87.7664C145.852 88.437 144.633 88.9528 143.49 89.3654C142.899 89.5718 142.332 89.7523 141.749 89.9156L141.605 89.9586L141.597 89.9328ZM139.478 87.5085C140.5 87.5085 141.453 88.2564 141.779 89.4256C141.794 89.4686 141.802 89.5116 141.809 89.5546C142.339 89.4084 142.854 89.2451 143.399 89.0474C144.527 88.6433 145.738 88.1275 147.093 87.4655C148.509 86.7778 149.886 86.0212 151.219 85.2905L151.264 85.2647C153.331 84.1385 155.284 83.0639 157.154 82.3504C156.828 80.992 157.472 79.565 158.63 79.0749L157.547 75.1633C156.366 75.4986 155.14 74.7765 154.709 73.4869C153.119 74.1059 151.317 75.0946 149.41 76.1434C146.874 77.5275 144.005 79.1007 140.946 80.1925C140.394 80.3903 139.849 80.5622 139.334 80.717C139.508 81.9979 138.872 83.2272 137.805 83.6829L138.887 87.6117C139.084 87.5515 139.281 87.5257 139.47 87.5257L139.478 87.5085Z" fill="#390075"/>
<g opacity="0.55">
<path d="M137.638 83.5625L137.918 84.5855C139.038 84.1815 139.697 82.8833 139.462 81.6024C140.03 81.4476 140.605 81.2585 141.196 81.0522C144.239 79.969 147.108 78.3957 149.636 77.0116C151.597 75.937 153.459 74.9226 155.087 74.3036C155.465 75.6619 156.737 76.4185 157.933 75.9886L157.653 74.9656C156.457 75.3868 155.185 74.6389 154.806 73.2806C153.179 73.8996 151.324 74.9226 149.364 75.9972C146.835 77.3813 143.966 78.9545 140.923 80.0378C140.333 80.2441 139.757 80.4332 139.19 80.588C139.424 81.8689 138.766 83.1756 137.645 83.5711L137.638 83.5625Z" fill="white"/>
</g>
<path d="M141.711 90.3713C141.605 90.3713 141.499 90.3369 141.408 90.2681C141.28 90.1735 141.189 90.0188 141.166 89.8555C141.158 89.7867 141.143 89.7265 141.121 89.6663C140.841 88.6433 139.872 88.0673 138.971 88.394C138.683 88.4972 138.365 88.3166 138.274 87.9813L137.109 83.7603C137.018 83.425 137.177 83.0725 137.472 82.9693C138.32 82.6684 138.819 81.697 138.638 80.7169C138.577 80.3817 138.759 80.055 139.046 79.9776C139.591 79.8229 140.159 79.6423 140.742 79.436C143.747 78.37 146.594 76.8053 149.107 75.4298C151.083 74.3466 152.952 73.3236 154.618 72.6874C154.762 72.6358 154.913 72.6444 155.049 72.7218C155.186 72.7992 155.284 72.9367 155.329 73.0915C155.617 74.1145 156.578 74.6819 157.479 74.3638C157.775 74.2607 158.085 74.4412 158.176 74.7765L159.334 78.9804C159.425 79.3156 159.266 79.6681 158.971 79.7713C158.07 80.0894 157.563 81.1898 157.843 82.2128L157.858 82.2558C157.949 82.5825 157.79 82.9349 157.502 83.0467C155.632 83.7517 153.656 84.8263 151.567 85.9697L151.522 85.9954C150.182 86.7262 148.797 87.4827 147.366 88.1877C145.988 88.8582 144.754 89.3912 143.604 89.8039C143.006 90.0188 142.423 90.1993 141.832 90.3627C141.787 90.3713 141.749 90.3799 141.703 90.3799L141.711 90.3713ZM139.485 87.0271C139.932 87.0271 140.379 87.1474 140.788 87.3967C141.37 87.7406 141.825 88.2994 142.082 88.9872C142.476 88.8668 142.869 88.7379 143.278 88.6003C144.398 88.2049 145.594 87.689 146.934 87.0357C148.342 86.3479 149.72 85.6 151.045 84.8692L151.09 84.8435C153.043 83.7774 154.89 82.763 156.684 82.0409C156.541 80.7341 157.116 79.4532 158.13 78.8256L157.267 75.7049C156.147 75.8425 155.049 75.1977 154.497 74.0801C153.013 74.6991 151.348 75.6104 149.591 76.5732C147.048 77.9659 144.156 79.5478 141.075 80.6482C140.636 80.8029 140.205 80.9491 139.781 81.078C139.803 82.273 139.236 83.3734 138.312 83.9408L139.175 87.0701C139.274 87.0615 139.379 87.0529 139.478 87.0529L139.485 87.0271Z" fill="#390075"/>
<path d="M148.198 84.9896C149.686 84.9896 150.893 83.6194 150.893 81.9291C150.893 80.2388 149.686 78.8686 148.198 78.8686C146.709 78.8686 145.503 80.2388 145.503 81.9291C145.503 83.6194 146.709 84.9896 148.198 84.9896Z" fill="#1EBC61"/>
<path d="M142.537 85.6602C143.151 85.6602 143.649 85.0944 143.649 84.3964C143.649 83.6985 143.151 83.1327 142.537 83.1327C141.922 83.1327 141.424 83.6985 141.424 84.3964C141.424 85.0944 141.922 85.6602 142.537 85.6602Z" fill="#1EBC61"/>
<path d="M153.831 80.3215C154.445 80.3215 154.943 79.7557 154.943 79.0578C154.943 78.3598 154.445 77.794 153.831 77.794C153.216 77.794 152.718 78.3598 152.718 79.0578C152.718 79.7557 153.216 80.3215 153.831 80.3215Z" fill="#1EBC61"/>
<path d="M16.0186 111.743L21.0072 124.286C21.1662 124.682 21.5371 124.896 21.9081 124.811C22.6272 124.656 23.3237 124.458 24.0125 124.226C24.55 124.045 25.0799 123.848 25.6022 123.633C27.7597 122.739 29.8111 121.544 31.7566 120.254C32.7937 119.566 33.8005 118.861 34.777 118.157C37.7066 116.042 40.3788 113.987 42.8239 112.835C43.7626 112.397 44.6634 112.087 45.5416 111.958C46.0866 111.881 46.4121 111.236 46.185 110.66L41.2191 98.1687C41.0828 97.8334 40.7876 97.6099 40.4545 97.6185C39.4023 97.67 38.3047 98.0053 37.154 98.5469C34.7089 99.6903 32.0367 101.754 29.1071 103.868C26.2987 105.889 23.2555 107.969 19.9399 109.345C18.8574 109.792 17.7446 110.17 16.6015 110.445C16.0943 110.565 15.8067 111.193 16.0186 111.726V111.743Z" fill="#1EBC61"/>
<g opacity="0.3">
<path d="M20.4844 122.971L21.1127 124.553C21.2717 124.948 21.6426 125.163 22.0135 125.077C22.7327 124.922 23.4291 124.724 24.118 124.492C24.6554 124.312 25.1853 124.114 25.7077 123.899C27.8651 123.005 29.9166 121.81 31.8621 120.521C32.8991 119.833 33.906 119.128 34.8825 118.423C37.8121 116.308 40.4843 114.253 42.9294 113.101C43.868 112.663 44.7689 112.354 45.647 112.225C46.192 112.147 46.5175 111.502 46.2904 110.926L45.6621 109.345C45.8892 109.912 45.5637 110.565 45.0187 110.643C44.1481 110.772 43.2397 111.073 42.3011 111.52C39.856 112.672 37.1838 114.726 34.2542 116.841C33.2776 117.546 32.2708 118.251 31.2337 118.939C29.2883 120.22 27.2444 121.423 25.0794 122.317C24.557 122.532 24.0196 122.739 23.4897 122.911C22.8008 123.143 22.0968 123.34 21.3852 123.495C21.0143 123.581 20.6358 123.366 20.4844 122.971Z" fill="#282E6B"/>
<path d="M21.8553 125.249C21.4844 125.249 21.1437 125.008 20.9848 124.613L20.3564 123.031L20.6063 122.902C20.7349 123.229 21.0453 123.409 21.3557 123.34C22.0597 123.186 22.7637 122.988 23.4526 122.756C23.9825 122.575 24.5199 122.378 25.0347 122.163C26.9272 121.38 28.8727 120.306 31.1664 118.801C32.2489 118.088 33.2935 117.34 34.1792 116.704C34.6334 116.377 35.0801 116.05 35.5191 115.732C37.9112 113.987 40.1747 112.345 42.2488 111.374C43.2556 110.901 44.1565 110.608 44.9967 110.488C45.2163 110.454 45.3979 110.316 45.5039 110.101C45.6099 109.886 45.6175 109.637 45.5266 109.413L45.7764 109.284L46.4047 110.866C46.5334 111.184 46.5183 111.537 46.3669 111.838C46.2155 112.139 45.9581 112.336 45.6553 112.379C44.8378 112.5 43.9596 112.775 42.9755 113.239C40.9165 114.202 38.6682 115.844 36.2837 117.581C35.8446 117.899 35.398 118.225 34.9438 118.552C34.0581 119.188 33.0059 119.936 31.9234 120.65C29.6221 122.171 27.6615 123.246 25.7463 124.037C25.2164 124.252 24.6789 124.458 24.1414 124.639C23.445 124.871 22.7334 125.068 22.0218 125.223C21.9613 125.24 21.8932 125.24 21.8326 125.24L21.8553 125.249ZM20.8863 123.598L21.2421 124.484C21.3708 124.811 21.6812 124.991 21.9916 124.922C22.6956 124.768 23.3996 124.57 24.0884 124.338C24.6183 124.157 25.1558 123.959 25.6706 123.745C27.5631 122.962 29.5161 121.888 31.8023 120.383C32.8848 119.67 33.9294 118.922 34.8151 118.285C35.2693 117.959 35.7159 117.632 36.155 117.314C38.5471 115.569 40.8105 113.927 42.8847 112.947C43.8915 112.474 44.7923 112.182 45.6326 112.061C45.8521 112.027 46.0338 111.889 46.1398 111.674C46.2458 111.46 46.2533 111.21 46.1625 110.987L45.8067 110.101C45.7916 110.153 45.7689 110.196 45.7462 110.247C45.5948 110.548 45.3374 110.746 45.0346 110.789C44.217 110.909 43.3389 111.184 42.3548 111.649C40.2958 112.611 38.0475 114.254 35.6705 115.981C35.2315 116.3 34.7848 116.626 34.3306 116.953C33.4449 117.589 32.3927 118.337 31.3102 119.051C29.0089 120.572 27.0483 121.647 25.1331 122.438C24.6032 122.653 24.0657 122.859 23.5283 123.04C22.8318 123.272 22.1203 123.469 21.4087 123.624C21.227 123.667 21.0453 123.641 20.8863 123.573V123.598Z" fill="#390075"/>
</g>
<g opacity="0.55">
<path d="M16.2686 112.044L16.7834 113.342C16.5714 112.801 16.8515 112.182 17.3663 112.061C18.5093 111.786 19.6221 111.417 20.7046 110.961C24.0203 109.585 27.071 107.514 29.8719 105.485C32.8015 103.37 35.4812 101.315 37.9188 100.163C39.0694 99.6216 40.1671 99.2777 41.2193 99.2347C41.5448 99.2175 41.8476 99.441 41.9839 99.7849L41.4691 98.4868C41.3328 98.1515 41.0376 97.928 40.7045 97.9366C39.6523 97.9882 38.5546 98.3234 37.404 98.865C34.9589 100.008 32.2867 102.072 29.3571 104.187C26.5487 106.207 23.5055 108.287 20.1899 109.663C19.1074 110.11 17.9946 110.488 16.8515 110.763C16.3443 110.884 16.0567 111.511 16.2686 112.044Z" fill="white"/>
</g>
<path d="M21.75 125.619C21.1596 125.619 20.6221 125.232 20.3723 124.613L15.3837 112.07C15.1944 111.597 15.202 111.055 15.414 110.591C15.6259 110.127 16.0044 109.792 16.4511 109.689C21.5229 108.468 26.0574 105.167 30.0619 102.261C33.9453 99.4324 37.2988 96.9995 40.4328 96.8534C41.0384 96.8276 41.5985 97.223 41.8559 97.8592L46.8218 110.351C47.0186 110.849 46.9959 111.408 46.7613 111.889C46.5266 112.371 46.1102 112.68 45.6333 112.749C42.999 113.127 39.9861 115.32 36.4964 117.856C35.0959 118.879 33.6425 119.936 32.1133 120.942C29.1686 122.885 26.663 124.174 24.2179 124.991C23.5063 125.232 22.772 125.438 22.0453 125.593C21.9469 125.61 21.8485 125.627 21.75 125.627V125.619ZM40.4858 98.4266C37.7303 98.5556 34.5206 100.885 30.8113 103.585C26.7084 106.568 22.0604 109.955 16.7387 111.227C16.6857 111.236 16.663 111.279 16.6479 111.305C16.6327 111.339 16.6327 111.382 16.6479 111.417L21.6365 123.959C21.6592 124.02 21.7122 124.045 21.7728 124.037C22.4541 123.891 23.1429 123.693 23.8091 123.469C26.1482 122.687 28.563 121.449 31.4018 119.575C32.9082 118.578 34.3465 117.538 35.7394 116.523C39.3654 113.884 42.4994 111.606 45.4517 111.184C45.5046 111.184 45.5274 111.141 45.5425 111.116C45.5652 111.081 45.5652 111.038 45.5425 110.995L40.5766 98.504C40.5539 98.4524 40.516 98.4266 40.4782 98.4266H40.4858Z" fill="#390075"/>
<path d="M20.7871 114.735L22.3919 118.767C23.535 118.182 24.8825 118.758 25.3972 120.056C25.4351 120.142 25.4578 120.228 25.4881 120.314C26.0331 120.082 26.5857 119.824 27.1535 119.541C28.2435 118.982 29.3942 118.294 30.6659 117.452C32.0134 116.557 33.323 115.612 34.5796 114.692C36.5478 113.256 38.4176 111.898 40.2268 110.935L40.2117 110.892C39.6969 109.594 40.2117 108.064 41.3472 107.479L39.7499 103.464C38.6068 104.049 37.267 103.473 36.7446 102.183C35.2003 103.017 33.4593 104.29 31.6273 105.622C29.2655 107.342 26.5781 109.293 23.6788 110.78C23.1187 111.064 22.5661 111.331 22.021 111.563C22.3919 112.801 21.8772 114.185 20.8022 114.735H20.7871Z" fill="#9EEF79"/>
<path d="M25.3902 120.521L25.3448 120.357C25.3221 120.271 25.2918 120.194 25.2615 120.117C24.777 118.904 23.5128 118.363 22.4379 118.904L22.3092 118.973L20.5908 114.658L20.7195 114.589C21.7263 114.073 22.2184 112.792 21.8626 111.614L21.8172 111.468L21.9458 111.417C22.4757 111.184 23.0284 110.926 23.5961 110.634C26.4954 109.147 29.1676 107.204 31.5294 105.485C33.3689 104.144 35.1025 102.88 36.6619 102.037L36.7906 101.969L36.8511 102.115C37.3356 103.327 38.5998 103.868 39.6747 103.318L39.8034 103.249L41.5142 107.557L41.3856 107.625C40.8632 107.892 40.4696 108.373 40.2652 108.975C40.0608 109.577 40.0835 110.239 40.3182 110.823L40.3939 111.012L40.2728 111.081C38.4711 112.044 36.6089 113.394 34.6407 114.829L34.6029 114.855C33.3538 115.767 32.0593 116.704 30.7195 117.589C29.4401 118.44 28.2819 119.119 27.1918 119.678C26.6317 119.97 26.0791 120.22 25.5189 120.46L25.3826 120.521H25.3902ZM23.3236 118.38C24.2396 118.38 25.1177 118.982 25.5264 119.988C25.5416 120.031 25.5567 120.065 25.5719 120.108C26.0791 119.893 26.5787 119.652 27.0934 119.394C28.1759 118.836 29.319 118.156 30.5983 117.314C31.9307 116.429 33.2251 115.491 34.4742 114.589L34.512 114.563C36.4424 113.162 38.2667 111.829 40.0532 110.866C39.8261 110.222 39.8186 109.517 40.0305 108.872C40.2425 108.236 40.6437 107.728 41.166 107.41L39.6823 103.671C38.5468 104.169 37.2523 103.611 36.6846 102.39C35.1706 103.224 33.4825 104.453 31.7036 105.751C29.3341 107.471 26.6544 109.431 23.7324 110.926C23.2025 111.202 22.6801 111.442 22.1881 111.666C22.4909 112.912 21.9913 114.219 20.9845 114.821L22.4757 118.569C22.7558 118.449 23.0511 118.389 23.3387 118.389L23.3236 118.38Z" fill="#390075"/>
<g opacity="0.55">
<path d="M20.791 114.735L21.1847 115.715C22.2596 115.165 22.7744 113.781 22.4034 112.543C22.9485 112.311 23.5011 112.044 24.0612 111.76C26.9681 110.273 29.6479 108.322 32.0097 106.594C33.8417 105.261 35.5828 103.997 37.127 103.155C37.6418 104.453 38.9893 105.029 40.1323 104.444L39.7387 103.464C38.5956 104.049 37.2482 103.473 36.7334 102.175C35.1891 103.017 33.448 104.281 31.6161 105.614C29.2543 107.333 26.5745 109.284 23.6676 110.772C23.1074 111.055 22.5548 111.322 22.0098 111.554C22.3807 112.801 21.866 114.176 20.791 114.726V114.735Z" fill="white"/>
</g>
<path d="M25.4824 120.942C25.3991 120.942 25.3158 120.916 25.2325 120.873C25.0963 120.796 24.9903 120.658 24.9449 120.495C24.9297 120.435 24.907 120.375 24.8843 120.306C24.4983 119.326 23.4763 118.896 22.6133 119.334C22.3332 119.48 22.0077 119.334 21.879 119.016L20.2742 114.984C20.2136 114.83 20.2061 114.658 20.2591 114.503C20.3121 114.348 20.418 114.219 20.5467 114.15C21.3567 113.738 21.7504 112.706 21.4703 111.752C21.3719 111.434 21.5233 111.081 21.7958 110.961C22.3181 110.737 22.8631 110.479 23.4233 110.187C26.2923 108.717 28.957 106.774 31.3037 105.072C33.1507 103.722 34.8994 102.45 36.4815 101.599C36.6178 101.53 36.7692 101.521 36.913 101.573C37.0569 101.633 37.1704 101.754 37.231 101.908C37.6246 102.888 38.639 103.318 39.502 102.88C39.782 102.734 40.1076 102.88 40.2362 103.198L41.8335 107.213C41.8941 107.367 41.9016 107.539 41.8487 107.694C41.7957 107.849 41.6897 107.978 41.561 108.047C41.1446 108.261 40.8267 108.648 40.6602 109.13C40.4936 109.611 40.5163 110.144 40.698 110.617L40.7132 110.66C40.8343 110.978 40.7132 111.339 40.4406 111.485C38.6617 112.44 36.8146 113.781 34.8616 115.199L34.8237 115.225C33.5671 116.136 32.2726 117.082 30.9252 117.967C29.6307 118.827 28.4649 119.515 27.3597 120.082C26.7844 120.375 26.2318 120.632 25.664 120.873C25.6035 120.899 25.5353 120.916 25.4672 120.916L25.4824 120.942ZM23.3249 117.907C24.3166 117.907 25.2628 118.5 25.7776 119.515C26.1561 119.343 26.5346 119.162 26.9207 118.965C27.988 118.414 29.1235 117.744 30.3877 116.91C31.7125 116.033 32.9993 115.096 34.2484 114.193L34.2862 114.168C36.1106 112.844 37.8441 111.58 39.5398 110.626C39.396 109.998 39.4338 109.327 39.6382 108.709C39.835 108.107 40.1833 107.6 40.6375 107.23L39.449 104.247C38.3513 104.539 37.1931 104.04 36.527 103.009C35.1189 103.825 33.5595 104.96 31.9244 106.155C29.5474 107.892 26.845 109.852 23.9002 111.365C23.4763 111.58 23.0675 111.778 22.6588 111.967C22.8026 113.145 22.356 114.322 21.5005 115.01L22.689 118.002C22.901 117.95 23.113 117.924 23.3173 117.924L23.3249 117.907Z" fill="#390075"/>
<path d="M31.0992 114.735C32.5876 114.735 33.7941 113.365 33.7941 111.674C33.7941 109.984 32.5876 108.614 31.0992 108.614C29.6109 108.614 28.4043 109.984 28.4043 111.674C28.4043 113.365 29.6109 114.735 31.0992 114.735Z" fill="#1EBC61"/>
<path d="M25.7397 116.162C26.3543 116.162 26.8525 115.596 26.8525 114.898C26.8525 114.2 26.3543 113.635 25.7397 113.635C25.1252 113.635 24.627 114.2 24.627 114.898C24.627 115.596 25.1252 116.162 25.7397 116.162Z" fill="#1EBC61"/>
<path d="M36.3823 109.319C36.9969 109.319 37.4951 108.753 37.4951 108.055C37.4951 107.357 36.9969 106.791 36.3823 106.791C35.7677 106.791 35.2695 107.357 35.2695 108.055C35.2695 108.753 35.7677 109.319 36.3823 109.319Z" fill="#1EBC61"/>
<path d="M30.7897 84.7919L27.1636 97.928C27.0501 98.3406 26.7019 98.6071 26.3234 98.5727C25.5967 98.5126 24.8775 98.418 24.1735 98.2804C23.6209 98.1773 23.0759 98.0483 22.5308 97.9022C20.2901 97.309 18.1327 96.3977 16.0661 95.3919C14.9608 94.8503 13.8935 94.2829 12.8488 93.7241C9.71484 92.0305 6.84582 90.3455 4.29473 89.5374C3.3182 89.2279 2.3871 89.0473 1.50898 89.0388C0.963941 89.0388 0.570302 88.437 0.736842 87.8438L4.34772 74.7679C4.44613 74.4154 4.71865 74.1489 5.04416 74.1231C6.09639 74.0285 7.22431 74.2177 8.42037 74.5959C10.9639 75.404 13.8405 77.0804 16.9744 78.7826C19.9722 80.4074 23.2197 82.0495 26.6565 82.9607C27.7768 83.2616 28.9199 83.4765 30.0857 83.5969C30.608 83.6485 30.9562 84.2245 30.7972 84.7919H30.7897Z" fill="#1EBC61"/>
<g opacity="0.3">
<path d="M27.5505 96.5524L27.0963 98.2117C26.9827 98.6243 26.6345 98.8908 26.256 98.8564C25.5293 98.7962 24.8101 98.7017 24.1061 98.5641C23.5535 98.461 23.0085 98.332 22.4634 98.1859C20.2227 97.5927 18.0653 96.6814 15.9987 95.6756C14.8935 95.134 13.8261 94.5666 12.7814 94.0078C9.64746 92.3142 6.77843 90.6292 4.22735 89.8211C3.25082 89.5116 2.31971 89.331 1.4416 89.3224C0.896558 89.3224 0.502919 88.7207 0.669459 88.1275L1.12366 86.4683C0.957118 87.0614 1.35076 87.6632 1.8958 87.6632C2.77391 87.6632 3.70502 87.8524 4.68155 88.1619C7.23263 88.97 10.1017 90.6464 13.2356 92.3486C14.2803 92.916 15.3552 93.4834 16.4529 94.0164C18.5195 95.0222 20.6769 95.9335 22.9176 96.5267C23.4627 96.6728 24.0077 96.7932 24.5603 96.9049C25.2719 97.0425 25.9835 97.137 26.7102 97.1972C27.0887 97.2316 27.4369 96.9651 27.5505 96.5524Z" fill="#390075"/>
</g>
<g opacity="0.55">
<path d="M30.5773 85.1271L30.2063 86.4854C30.3653 85.9181 30.0171 85.3421 29.4948 85.2905C28.329 85.1701 27.1859 84.9552 26.0656 84.6543C22.6288 83.743 19.3813 82.101 16.3836 80.4762C13.2496 78.7826 10.373 77.0976 7.82949 76.2895C6.62586 75.9112 5.5055 75.7221 4.45327 75.8167C4.12777 75.8425 3.84768 76.109 3.75684 76.4614L4.12777 75.1031C4.22617 74.7507 4.49869 74.4842 4.8242 74.4584C5.87643 74.3638 7.00436 74.5529 8.20042 74.9312C10.7439 75.7393 13.6205 77.4157 16.7545 79.1179C19.7522 80.7427 22.9997 82.3847 26.4365 83.296C27.5569 83.5969 28.6999 83.8118 29.8657 83.9322C30.388 83.9837 30.7362 84.5597 30.5773 85.1271Z" fill="white"/>
</g>
<path d="M26.3842 99.3636C26.3842 99.3636 26.3085 99.3636 26.2706 99.3636C25.5364 99.3034 24.7869 99.2003 24.0526 99.0627C21.5394 98.5899 18.9126 97.6528 15.7862 96.1226C14.1587 95.3317 12.6068 94.4806 11.108 93.6553C7.37597 91.6178 4.15873 89.8554 1.50167 89.8382C1.01719 89.8382 0.570562 89.5803 0.290473 89.1333C0.00281347 88.6949 -0.0728863 88.1361 0.0709433 87.6116L3.68182 74.5357C3.8635 73.8652 4.37826 73.3923 4.99143 73.3408C8.11783 73.0571 11.706 75.0172 15.8544 77.2953C20.139 79.6423 24.9913 82.2987 30.1465 82.8146C30.6082 82.8575 31.017 83.1327 31.2744 83.5711C31.5318 84.0009 31.5999 84.5339 31.4561 85.0326L27.8301 98.1687C27.6332 98.8908 27.0504 99.3722 26.3842 99.3722V99.3636ZM5.59703 74.8882C5.42292 74.8882 5.25638 74.8882 5.08984 74.914C5.05199 74.914 5.01414 74.957 4.999 75.0086L1.38812 88.0845C1.38812 88.0845 1.38812 88.1704 1.40326 88.2048C1.4184 88.2306 1.44868 88.265 1.50167 88.265C4.47667 88.2822 7.8226 90.1133 11.706 92.2368C13.1973 93.0535 14.734 93.896 16.3313 94.6783C19.3517 96.157 21.8801 97.0597 24.2797 97.5153C24.9762 97.6528 25.6802 97.7474 26.3691 97.799C26.4296 97.799 26.4826 97.7646 26.4977 97.7044L30.1238 84.5683C30.1238 84.5683 30.1238 84.491 30.1086 84.4566C30.0935 84.4308 30.0632 84.3964 30.0102 84.3964C24.5977 83.8548 19.6242 81.1296 15.2336 78.731C11.5016 76.685 8.24652 74.9054 5.58946 74.9054L5.59703 74.8882Z" fill="#390075"/>
<path d="M26.3695 88.4198L25.2037 92.6409C24.0077 92.211 22.7359 92.9676 22.3574 94.3259C22.3347 94.4118 22.312 94.5064 22.2969 94.601C21.7367 94.4462 21.1614 94.2657 20.5633 94.0594C19.4203 93.6553 18.2091 93.1309 16.8541 92.4689C15.4158 91.764 14.0229 91.0075 12.6754 90.2681C10.571 89.1161 8.5725 88.0243 6.67244 87.3108L6.68758 87.2592C7.06607 85.9009 6.39235 84.4566 5.19629 84.0268L6.3545 79.8229C7.55055 80.2441 8.82231 79.4962 9.20081 78.1379C10.8284 78.7569 12.6906 79.7799 14.6512 80.8545C17.1796 82.2386 20.0486 83.8118 23.0917 84.8951C23.6822 85.1014 24.2575 85.2905 24.8252 85.4453C24.5906 86.7262 25.2492 88.0329 26.3695 88.4284V88.4198Z" fill="#9EEF79"/>
<path d="M22.4105 94.7901L22.2666 94.7471C21.6837 94.5924 21.116 94.4119 20.5255 94.1969C19.3825 93.7929 18.1637 93.2685 16.8011 92.5979C15.378 91.9016 14.0002 91.145 12.6603 90.4143L12.6149 90.3885C10.5105 89.2365 8.52712 88.1533 6.62705 87.4398L6.49836 87.3882L6.55135 87.1904C6.89957 85.9181 6.27883 84.5598 5.15091 84.1557L5.01465 84.1127L6.25613 79.608L6.38481 79.6509C7.50517 80.0464 8.70123 79.3415 9.05702 78.0691L9.10244 77.9144L9.2387 77.9659C10.8738 78.5935 12.736 79.608 14.7042 80.6912C17.2326 82.0753 20.094 83.6399 23.1296 84.7231C23.7201 84.938 24.303 85.1186 24.8556 85.2733L24.9843 85.3077L24.954 85.4539C24.7269 86.6746 25.3552 87.8782 26.4074 88.2565L26.5437 88.2994L25.2946 92.8214L25.1584 92.7784C24.6133 92.5893 24.038 92.6409 23.5308 92.9418C23.0236 93.2427 22.6527 93.7499 22.4862 94.3603C22.4635 94.4462 22.4407 94.5236 22.4332 94.6096L22.4105 94.7729V94.7901ZM6.84658 87.199C8.71637 87.9212 10.6694 88.9872 12.736 90.1134L12.7814 90.1392C14.1138 90.8699 15.4915 91.6179 16.9071 92.3142C18.2621 92.9762 19.4733 93.492 20.6012 93.896C21.1387 94.0852 21.661 94.2571 22.1909 94.4033C22.1985 94.3603 22.2136 94.3173 22.2212 94.2743C22.4105 93.5779 22.8344 93.0105 23.4021 92.6667C23.932 92.3572 24.5301 92.2712 25.1054 92.4346L26.1879 88.5058C25.1205 88.0501 24.4846 86.8208 24.6587 85.5398C24.144 85.3937 23.5989 85.2132 23.0463 85.0154C19.9881 83.9322 17.119 82.359 14.5831 80.9663C12.6755 79.9175 10.8738 78.9374 9.28412 78.3098C8.85263 79.5994 7.62629 80.3301 6.44537 79.9862L5.36287 83.8978C5.91548 84.1385 6.36967 84.5856 6.64976 85.1874C6.93742 85.8063 6.99798 86.5027 6.83901 87.1732L6.84658 87.199Z" fill="#390075"/>
<g opacity="0.55">
<path d="M26.3684 88.4198L26.0883 89.4428C24.9679 89.0388 24.3093 87.7406 24.544 86.4597C23.9762 86.3049 23.4009 86.1158 22.8105 85.9095C19.7673 84.8263 16.8983 83.253 14.3699 81.8689C12.4093 80.7943 10.5471 79.7799 8.91955 79.1609C8.54106 80.5192 7.2693 81.2757 6.07324 80.8459L6.35333 79.8229C7.54939 80.2441 8.82114 79.4962 9.19964 78.1379C10.8272 78.7569 12.6818 79.7799 14.6425 80.8545C17.1708 82.2386 20.0399 83.8118 23.083 84.8951C23.6734 85.1014 24.2488 85.2905 24.8165 85.4453C24.5818 86.7262 25.2404 88.0329 26.3608 88.4284L26.3684 88.4198Z" fill="white"/>
</g>
<path d="M22.3039 95.2285C22.2585 95.2285 22.2206 95.2285 22.1752 95.2113C21.5848 95.048 21.0019 94.8674 20.4038 94.6525C19.2456 94.2399 18.0193 93.7154 16.6416 93.0363C15.2108 92.3399 13.8255 91.5834 12.4856 90.8441L12.4402 90.8183C10.3509 89.6749 8.37514 88.5917 6.50536 87.8953C6.2177 87.7836 6.05873 87.4397 6.14957 87.1044L6.16471 87.0614C6.4448 86.0384 5.94518 84.938 5.03678 84.6199C4.89295 84.5683 4.7794 84.4566 4.71127 84.3104C4.64314 84.1643 4.628 83.9923 4.67342 83.829L5.83163 79.6251C5.87705 79.4618 5.97546 79.3328 6.10415 79.2554C6.23284 79.1781 6.38424 79.1609 6.52807 79.2125C7.4289 79.5305 8.39028 78.9631 8.67794 77.9401C8.72336 77.7768 8.82177 77.6478 8.95803 77.5704C9.09429 77.4931 9.24569 77.4845 9.38952 77.5361C11.0549 78.1722 12.9247 79.1953 14.9005 80.2785C17.4137 81.654 20.26 83.21 23.2653 84.2846C23.8482 84.491 24.4235 84.6801 24.961 84.8262C25.2486 84.9122 25.4303 85.2389 25.3698 85.5656C25.1881 86.5456 25.6877 87.5171 26.5355 87.818C26.8308 87.9211 26.9897 88.2736 26.8989 88.6089L25.7331 92.83C25.6877 92.9933 25.5893 93.1223 25.4606 93.1996C25.3319 93.277 25.1805 93.2942 25.0367 93.2426C24.5976 93.0879 24.1358 93.1309 23.7271 93.3716C23.3183 93.6123 23.0231 94.0163 22.8868 94.515C22.8717 94.5837 22.8565 94.6439 22.8414 94.7041C22.8111 94.876 22.7278 95.0222 22.5991 95.1253C22.5083 95.1941 22.4023 95.2285 22.2963 95.2285H22.3039ZM7.33049 86.8895C9.117 87.6116 10.9716 88.6261 12.9247 89.6921L12.9701 89.7179C14.3024 90.4486 15.6726 91.1966 17.0806 91.8843C18.4205 92.5377 19.6166 93.0535 20.7369 93.4489C21.1381 93.5951 21.5318 93.724 21.933 93.8358C22.4175 92.5291 23.6135 91.7554 24.8323 91.9015L25.6953 88.7722C24.7717 88.2048 24.204 87.0958 24.2267 85.9095C23.8103 85.7805 23.3713 85.6429 22.9322 85.4796C19.8512 84.3792 16.9595 82.7974 14.416 81.4047C12.6598 80.4418 10.9944 79.5305 9.51064 78.9116C8.95803 80.0292 7.86796 80.6739 6.74003 80.5364L5.87705 83.6571C6.89143 84.2846 7.46675 85.5742 7.32292 86.8723L7.33049 86.8895Z" fill="#390075"/>
<path d="M15.8082 89.8468C17.2966 89.8468 18.5031 88.4766 18.5031 86.7863C18.5031 85.0961 17.2966 83.7258 15.8082 83.7258C14.3198 83.7258 13.1133 85.0961 13.1133 86.7863C13.1133 88.4766 14.3198 89.8468 15.8082 89.8468Z" fill="#1EBC61"/>
<path d="M21.478 90.5174C22.0926 90.5174 22.5908 89.9516 22.5908 89.2537C22.5908 88.5557 22.0926 87.9899 21.478 87.9899C20.8634 87.9899 20.3652 88.5557 20.3652 89.2537C20.3652 89.9516 20.8634 90.5174 21.478 90.5174Z" fill="#1EBC61"/>
<path d="M10.1841 85.1787C10.7987 85.1787 11.2969 84.6129 11.2969 83.915C11.2969 83.217 10.7987 82.6512 10.1841 82.6512C9.5695 82.6512 9.07129 83.217 9.07129 83.915C9.07129 84.6129 9.5695 85.1787 10.1841 85.1787Z" fill="#1EBC61"/>
<path d="M96.4279 41.4291C96.5415 41.7557 96.5415 42.1426 96.3976 42.4951L90.5536 56.766C90.2357 57.5483 89.3651 57.7804 88.752 57.2646C84.9518 54.0579 79.1759 53.7312 74.6491 54.1181C73.5893 54.2041 72.5976 54.333 71.7195 54.4792C70.5537 54.6597 69.8951 53.0263 70.7657 52.1322C84.1343 38.5405 92.6505 39.5721 95.6785 40.6295C96.0343 40.7499 96.2992 41.0508 96.4203 41.4205L96.4279 41.4291Z" fill="#EC1C24"/>
<g opacity="0.6">
<path d="M96.2094 41.0766C83.9763 40.9562 74.5895 50.8943 73.772 51.8399C72.9847 52.7512 73.8098 53.4304 74.4381 53.7742C73.3783 53.8602 72.3867 53.9892 71.5086 54.1353C70.3428 54.3158 69.6842 52.6824 70.5547 51.7883C83.9233 38.1966 92.4396 39.2283 95.4676 40.2857C95.8233 40.406 96.0883 40.7069 96.2094 41.0766Z" fill="white"/>
</g>
<path d="M90.1457 60.0328L89.3054 59.0613C85.0208 54.1353 76.4516 54.6855 71.7279 55.4506C70.8574 55.5882 70.0247 55.081 69.6538 54.1697C69.2828 53.267 69.4721 52.2096 70.1231 51.539C87.4432 33.8638 96.9663 40.1395 97.3599 40.4146L97.9958 40.8531L90.1533 60.0242L90.1457 60.0328ZM77.5493 53.0693C81.7279 53.0693 86.3986 53.886 89.6158 56.8433L95.8081 41.7042C94.8618 41.3173 92.939 40.7757 90.1154 41.1797C86.2245 41.7385 79.7824 44.2316 71.2283 52.9575C71.0769 53.1123 71.1148 53.2842 71.1526 53.3788C71.1905 53.4733 71.2813 53.6195 71.4857 53.5851C73.1511 53.3186 75.2783 53.0779 77.5417 53.0779L77.5493 53.0693Z" fill="#390075"/>
<path d="M118.154 64.8814C118.676 66.5148 119.267 69.6011 118.464 74.1489C117.601 79.0062 115.149 85.5312 109.335 93.7327C108.601 94.7729 107.117 94.1023 107.223 92.7784C107.503 89.1505 107.586 83.9064 106.413 79.3156C105.876 77.1922 105.066 75.2149 103.892 73.5987C103.408 72.9367 103.567 71.9309 104.24 71.5268L116.489 64.1679C117.125 63.7896 117.912 64.1163 118.154 64.8814Z" fill="#EC1C24"/>
<g opacity="0.35">
<path d="M118.155 64.8814C118.677 66.5148 118.503 66.5234 118.7 70.8821C116.512 73.7104 111.047 77.5619 106.414 79.307C105.877 77.1836 105.067 75.2063 103.893 73.5901C103.409 72.9281 103.568 71.9223 104.241 71.5182L116.49 64.1593C117.126 63.781 117.913 64.1077 118.155 64.8728V64.8814Z" fill="#390075"/>
</g>
<path d="M108.367 95.2715C108.117 95.2715 107.86 95.2199 107.617 95.1082C106.8 94.7299 106.308 93.81 106.383 92.8214C106.815 87.4225 106.853 77.6736 102.296 73.0743L101.402 72.1716L117.859 62.2852L118.276 62.9815C118.541 63.4199 124.551 73.891 109.903 94.4548C109.517 94.9964 108.95 95.2887 108.367 95.2887V95.2715ZM104.234 72.5929C108.495 77.9917 108.473 87.5601 108.041 92.9847C108.026 93.2169 108.155 93.3114 108.238 93.3458C108.321 93.3802 108.473 93.4232 108.601 93.2427C115.838 83.0897 117.693 75.6534 117.981 71.2088C118.185 67.9849 117.617 65.8357 117.224 64.7783L104.234 72.5843V72.5929Z" fill="#390075"/>
<path d="M89.1546 74.9828C91.1152 77.0203 94.0524 77.5963 97.633 76.8999C98.0039 76.8226 98.3824 76.7366 98.7761 76.642C99.4649 76.4615 100.169 76.2466 100.896 75.9801C102.644 75.3525 104.499 74.4842 106.429 73.3924C107.822 72.6015 109.253 71.6988 110.714 70.6844C112.031 69.7731 113.371 68.7673 114.718 67.684C115.967 66.6782 117.232 65.6036 118.503 64.4516C122.561 60.7979 126.679 56.4479 130.646 51.5218C137.126 43.4751 141.554 34.414 144.362 26.2813C148.534 14.194 149.116 4.14424 147.527 2.49363C145.884 0.791443 137.322 2.3045 127.269 7.95267C127.148 8.02145 127.027 8.09022 126.906 8.159C120.646 11.7267 113.833 16.8935 107.762 23.8828C107.179 24.5619 106.596 25.2497 106.021 25.9632C102.273 30.6141 98.988 35.3768 96.2325 40.0364C96.0736 40.3115 95.9146 40.578 95.7556 40.8531C95.6496 41.0336 95.5512 41.2055 95.4528 41.3775C94.6731 42.7358 93.9464 44.0855 93.2651 45.418C92.4324 47.0429 91.6754 48.6505 90.9865 50.2151C90.222 51.9603 89.5634 53.6625 88.9881 55.3045C88.4582 56.8347 88.0191 58.3134 87.6709 59.7319C87.5043 60.4111 87.353 61.073 87.2243 61.7264C86.9593 63.0675 86.7852 64.357 86.6944 65.5692C86.4067 69.6785 87.1713 72.954 89.1319 74.9914L89.1546 74.9828Z" fill="white"/>
<g opacity="0.35">
<path d="M97.5037 77.0375L97.7762 76.5561L97.7005 76.4701L97.8746 76.4271C98.7981 76.2466 99.7822 75.9801 100.781 75.6276L100.865 75.6018L100.895 75.6964C100.925 75.7823 100.956 75.8683 100.978 75.9457L101.016 76.0488L100.918 76.0832C100.191 76.3411 99.4794 76.5647 98.7906 76.7452C98.4196 76.8398 98.0563 76.9257 97.7156 76.9945L97.4961 77.0375H97.5037ZM97.9654 76.6248L97.9049 76.728C98.1774 76.6678 98.4651 76.5991 98.7527 76.5303C99.4037 76.3583 100.085 76.152 100.774 75.9113C100.774 75.8941 100.766 75.8769 100.759 75.8683C99.7974 76.195 98.8587 76.4529 97.9654 76.6334V76.6248Z" fill="#390075"/>
</g>
<g opacity="0.35">
<path d="M144.573 25.8514C141.779 33.9841 137.359 43.0539 130.879 51.1092C126.912 56.0438 122.801 60.4024 118.752 64.0561C117.48 65.2081 116.223 66.2827 114.967 67.2886C113.612 68.3804 112.279 69.3776 110.962 70.2975C109.501 71.3119 108.07 72.2232 106.677 73.0141C104.618 74.1833 102.65 75.0946 100.803 75.7307C99.7887 76.0832 98.8198 76.3497 97.8811 76.5303L97.6843 76.8827C95.1256 77.39 92.8925 77.2524 91.1059 76.3927C90.3717 76.0402 89.7131 75.576 89.1378 74.9742C87.1771 72.9367 86.4126 69.6613 86.7002 65.552C86.7835 64.3398 86.9652 63.0589 87.2301 61.7092C89.6979 62.5001 92.5972 64.3914 95.277 67.1596C95.6706 67.5723 96.0491 67.9849 96.4125 68.4062C97.4572 69.6269 99.0696 69.9622 100.409 69.1971C112.347 62.3711 121.34 53.8516 128.093 45.1859C128.54 44.6185 128.055 43.7416 127.412 43.9393C124.209 44.8936 120.659 44.0425 118.025 41.3173C113.899 37.0446 113.611 29.7888 117.374 25.1035C121.136 20.4182 127.525 20.0915 131.651 24.3642C133.793 26.5908 134.906 29.6169 134.944 32.6774C134.951 33.4339 135.829 33.7004 136.193 33.0728C138.267 29.4192 139.993 25.8772 141.408 22.5674C146.465 10.7982 147.707 2.04657 147.707 2.04657C149.296 3.69718 148.721 13.747 144.565 25.8428L144.573 25.8514Z" fill="#390075"/>
</g>
<path d="M148.057 2.51942C148.072 2.571 148.087 2.62258 148.11 2.67416C148.14 2.77733 148.17 2.88049 148.193 2.99225C148.208 3.05243 148.223 3.11261 148.231 3.17279C148.322 3.60263 148.382 4.11845 148.42 4.70304C148.42 4.78901 148.435 4.87497 148.435 4.96094C148.466 5.56273 148.466 6.24188 148.435 6.98122C148.435 7.08438 148.428 7.19614 148.42 7.2993C148.413 7.54862 148.39 7.79793 148.375 8.06443C148.375 8.17619 148.36 8.29655 148.344 8.4169C148.291 9.13905 148.208 9.90417 148.102 10.7123C148.087 10.8326 148.072 10.953 148.057 11.0734C147.958 11.8213 147.83 12.6036 147.686 13.4117C147.663 13.5579 147.633 13.704 147.61 13.8502C147.466 14.6583 147.292 15.4922 147.103 16.3519C147.065 16.5066 147.035 16.6699 146.997 16.8247C146.565 18.7332 146.02 20.7621 145.369 22.8769C145.316 23.0575 145.256 23.2294 145.203 23.4099C145.089 23.7624 144.976 24.1235 144.862 24.4759C144.802 24.6565 144.741 24.837 144.681 25.0175C144.665 25.0691 144.643 25.1207 144.628 25.1723C143.863 23.9 142.886 22.5502 141.887 21.2865C140.979 20.1259 140.063 19.0427 139.276 18.1486C136.974 14.4433 133.908 11.4172 130.313 9.34537L129.283 8.75218L127.027 7.45405C136.626 1.96922 144.93 0.241237 147.269 1.48779C147.353 1.53077 147.436 1.58236 147.504 1.63394C147.557 1.66832 147.603 1.71131 147.64 1.75429C147.799 1.92623 147.943 2.17554 148.057 2.51082V2.51942Z" fill="#EC1C24"/>
<g opacity="0.6">
<path d="M146.892 1.57375C145.158 2.07237 140.313 3.52525 135.923 5.44236C133.084 6.68032 130.616 7.92687 128.905 8.82955L126.649 7.53141C136.248 2.04658 144.552 0.318599 146.892 1.56515V1.57375Z" fill="white"/>
</g>
<g opacity="0.35">
<path d="M148.057 2.5194C148.072 2.57098 148.088 2.62257 148.11 2.67415C148.141 2.77731 148.171 2.88047 148.193 2.99223C148.209 3.05241 148.224 3.11259 148.231 3.17277C148.322 3.60261 148.383 4.11843 148.421 4.70302C148.421 4.78899 148.436 4.87496 148.436 4.96093C148.466 5.56271 148.466 6.24187 148.436 6.9812C148.436 7.08437 148.428 7.19613 148.421 7.29929C148.413 7.5486 148.39 7.79791 148.375 8.06441C148.375 8.17617 148.36 8.29653 148.345 8.41689C148.292 9.13903 148.209 9.90415 148.103 10.7123C148.088 10.8326 148.072 10.953 148.057 11.0733C147.959 11.8213 147.83 12.6036 147.686 13.4117C147.664 13.5578 147.633 13.704 147.611 13.8501C147.467 14.6582 147.293 15.4922 147.103 16.3518C147.066 16.5066 147.035 16.6699 146.997 16.8247C146.566 18.7332 146.021 20.7621 145.37 22.8769C145.317 23.0574 145.256 23.2294 145.203 23.4099C145.09 23.7624 144.976 24.1235 144.863 24.4759C144.802 24.6565 144.742 24.837 144.681 25.0175C144.666 25.0691 144.643 25.1207 144.628 25.1723C143.863 23.8999 142.887 22.5502 141.888 21.2865C143.788 16.4292 147.694 5.84641 147.497 1.64252C147.55 1.6769 147.595 1.71989 147.633 1.76287C147.792 1.93481 147.936 2.18412 148.05 2.5194H148.057Z" fill="#390075"/>
</g>
<path d="M95.0441 77.4673C92.4476 77.4673 90.3432 76.6506 88.7762 75.0258C86.6566 72.825 85.7406 69.4034 86.0586 64.8384C86.2705 61.7436 87.0578 58.193 88.3977 54.3072C88.973 52.6308 89.6543 50.8942 90.4189 49.1405C91.1077 47.55 91.8875 45.9166 92.7202 44.2832C93.5074 42.7444 94.3553 41.1883 95.2334 39.6667C98.1857 34.5601 101.66 29.5051 105.559 24.6479C112.894 15.5179 121.085 9.801 126.664 6.61154C136.058 1.23847 145.93 -1.29762 148.208 1.06653C150.449 3.3877 149.109 14.7614 145.279 25.903C143 32.5312 138.746 42.3403 131.425 51.4531C127.519 56.3103 123.409 60.7033 119.2 64.5032C117.943 65.638 116.656 66.7384 115.377 67.77C114.015 68.8618 112.652 69.8848 111.327 70.8133C109.859 71.8363 108.398 72.7648 106.982 73.5643C103.689 75.4298 100.653 76.642 97.9586 77.1664C96.9291 77.3641 95.9525 77.4673 95.0441 77.4673ZM145.188 2.02079C142.031 2.02079 135.468 3.68859 127.406 8.29654C121.955 11.4086 113.954 16.9966 106.785 25.9116C102.94 30.7001 99.518 35.6691 96.6187 40.6897C95.7557 42.1856 94.923 43.7072 94.1509 45.2203C93.3409 46.8193 92.5839 48.4097 91.9026 49.9658C91.1607 51.6766 90.5022 53.3616 89.942 54.9864C88.6626 58.7088 87.9132 62.0702 87.7164 64.9846C87.4439 68.9392 88.1706 71.8449 89.8966 73.6331C91.6149 75.4126 94.2341 75.98 97.6785 75.3095C100.214 74.8109 103.099 73.6589 106.24 71.8793C107.61 71.097 109.033 70.2029 110.457 69.2057C111.751 68.303 113.083 67.3058 114.416 66.2311C115.665 65.2253 116.929 64.1421 118.163 63.0331C122.304 59.2934 126.354 54.9692 130.192 50.1893C137.338 41.2915 141.494 31.7059 143.719 25.2239C148.11 12.466 148.057 3.49946 147.073 2.47642C146.8 2.20132 146.157 2.03798 145.18 2.03798L145.188 2.02079Z" fill="#390075"/>
<path d="M130.688 38.7036C128.122 41.8931 124.209 42.856 120.832 41.489C119.72 41.042 118.667 40.3371 117.736 39.3742C117.388 39.0217 117.078 38.6349 116.79 38.2394C113.974 34.3106 114.042 28.5249 117.146 24.6649C117.35 24.407 117.562 24.1663 117.782 23.9427C120.613 21.037 124.701 20.4782 128.016 22.3695C128.751 22.7908 129.455 23.3324 130.09 23.9857C133.83 27.8629 134.095 34.4482 130.681 38.6951L130.688 38.7036Z" fill="#418BF9"/>
<path d="M123.921 42.2543C122.869 42.2543 121.809 42.0566 120.787 41.6354C119.621 41.1625 118.562 40.4404 117.646 39.4861C117.297 39.1251 116.972 38.7382 116.684 38.3342C113.808 34.3108 113.959 28.3875 117.04 24.5533C117.244 24.2954 117.464 24.0461 117.691 23.8226C120.507 20.934 124.686 20.2892 128.085 22.2235C128.842 22.6534 129.553 23.2122 130.189 23.8655C132.029 25.7655 133.096 28.3703 133.21 31.1901C133.323 34.0099 132.46 36.7093 130.787 38.7984C128.985 41.0422 126.487 42.2457 123.921 42.2457V42.2543ZM123.936 21.4326C121.741 21.4326 119.561 22.3353 117.88 24.0547C117.661 24.2696 117.456 24.5103 117.252 24.7596C114.262 28.4821 114.11 34.2248 116.904 38.1278C117.184 38.5233 117.502 38.9016 117.835 39.2454C118.728 40.1739 119.75 40.8702 120.886 41.3259C124.322 42.7186 128.13 41.644 130.59 38.5749C132.218 36.5546 133.051 33.9325 132.937 31.1901C132.823 28.4563 131.786 25.9288 130.007 24.0805C129.387 23.4443 128.698 22.9027 127.964 22.4814C126.692 21.7593 125.314 21.4068 123.944 21.4068L123.936 21.4326Z" fill="#390075"/>
<path d="M130.691 38.7038C128.125 41.8933 124.211 42.8561 120.835 41.4892C119.722 41.0422 118.67 40.3372 117.739 39.3744C117.391 39.0219 117.081 38.6351 116.793 38.2396C113.977 34.3108 114.045 28.5251 117.149 24.6651C117.353 24.4072 117.565 24.1664 117.785 23.9429C120.616 21.0372 124.704 20.4784 128.019 22.3697C128.753 22.7909 129.457 23.3325 130.093 23.9859C133.833 27.8631 134.098 34.4484 130.684 38.6952L130.691 38.7038Z" fill="#418BF9"/>
<g opacity="0.6">
<path d="M130.448 25.3184C129.812 24.6565 129.108 24.1149 128.374 23.7022C125.058 21.8109 120.97 22.3697 118.139 25.2755C117.92 25.499 117.708 25.7397 117.503 25.9976C115.399 28.6197 114.695 32.1186 115.338 35.3338C114.172 31.7919 114.755 27.6568 117.155 24.6737C117.359 24.4158 117.571 24.175 117.791 23.9515C120.622 21.0458 124.71 20.487 128.025 22.3783C128.76 22.7995 129.464 23.3411 130.1 23.9945C131.538 25.4818 132.454 27.3731 132.855 29.3676C132.363 27.8631 131.561 26.4704 130.448 25.3184Z" fill="white"/>
</g>
<path d="M123.908 42.7616C121.47 42.7616 119.154 41.7471 117.345 39.8644C115.422 37.8699 114.294 35.1447 114.173 32.1874C114.052 29.23 114.953 26.4016 116.709 24.2094C118.465 22.0258 120.865 20.7449 123.469 20.6073C126.073 20.4698 128.563 21.4928 130.494 23.4873C132.417 25.4818 133.544 28.207 133.666 31.1643C133.787 34.1217 132.886 36.9501 131.13 39.1337C129.373 41.3173 126.974 42.5982 124.37 42.7358C124.218 42.7358 124.067 42.7444 123.915 42.7444L123.908 42.7616ZM123.931 21.9398C123.794 21.9398 123.666 21.9399 123.529 21.9484C121.243 22.0688 119.131 23.195 117.579 25.1121C116.035 27.0378 115.24 29.5223 115.346 32.1272C115.452 34.7235 116.444 37.122 118.132 38.8844C119.828 40.6381 122.015 41.5408 124.309 41.4205C126.595 41.3001 128.707 40.1739 130.259 38.2568C131.803 36.3311 132.598 33.8466 132.492 31.2417C132.386 28.6454 131.395 26.2469 129.707 24.4845C128.109 22.8339 126.073 21.9398 123.931 21.9398Z" fill="#390075"/>
<path d="M130.014 32.084C129.817 35.9096 126.933 38.8326 123.565 38.6091C121.899 38.4973 120.423 37.6376 119.386 36.3309C118.326 34.9984 117.721 33.2102 117.819 31.2759C118.016 27.4503 120.9 24.5273 124.269 24.7508C126.661 24.9056 128.652 26.6078 129.537 28.9461C129.901 29.9004 130.075 30.9664 130.014 32.0754V32.084Z" fill="#01D3EC"/>
<path d="M123.921 38.7812C123.8 38.7812 123.679 38.7812 123.558 38.7726C121.908 38.6608 120.394 37.8355 119.281 36.4428C118.153 35.0243 117.585 33.1846 117.684 31.2761C117.782 29.3848 118.516 27.6482 119.766 26.3844C121.015 25.1207 122.612 24.4931 124.285 24.5963C126.669 24.751 128.728 26.4016 129.667 28.8861C130.046 29.9006 130.212 30.9752 130.159 32.0842C129.97 35.8496 127.207 38.7726 123.929 38.7726L123.921 38.7812ZM123.906 24.9058C122.445 24.9058 121.045 25.5076 119.947 26.6252C118.759 27.8287 118.047 29.4879 117.956 31.2933C117.865 33.1158 118.403 34.8696 119.485 36.2279C120.545 37.5604 121.999 38.3428 123.573 38.4545C126.851 38.6694 129.69 35.8067 129.879 32.0756C129.932 31.0182 129.773 29.9865 129.41 29.0151C128.509 26.6338 126.541 25.0605 124.262 24.9144C124.141 24.9144 124.027 24.9058 123.906 24.9058Z" fill="#390075"/>
<g opacity="0.3">
<path d="M126.475 37.698C127.368 37.122 128.11 36.1763 128.58 34.9728L125.521 25.4388C125.438 25.3958 125.347 25.3614 125.256 25.3184C124.303 24.9316 123.341 24.9144 122.471 25.2153L126.475 37.7066V37.698Z" fill="white"/>
</g>
<g opacity="0.3">
<path d="M122.9 38.4717C123.559 38.6694 124.21 38.678 124.808 38.5147L120.569 26.2469C120.031 26.608 119.569 27.1238 119.206 27.7771L122.9 38.4717Z" fill="white"/>
</g>
<g opacity="0.35">
<path d="M125.059 26.7971C121.69 26.5736 118.799 29.4965 118.609 33.3222C118.572 34.0615 118.64 34.775 118.791 35.4542C118.11 34.2592 117.739 32.8149 117.822 31.2847C118.019 27.4591 120.903 24.5361 124.272 24.7596C126.664 24.9144 128.655 26.6166 129.54 28.9549C129.662 29.273 129.76 29.6083 129.836 29.9522C128.814 28.164 127.08 26.9261 125.059 26.7971Z" fill="#390075"/>
</g>
<path d="M123.924 39.2884C123.795 39.2884 123.667 39.2884 123.53 39.2798C121.766 39.1595 120.139 38.2826 118.95 36.7867C117.739 35.2651 117.134 33.2964 117.232 31.2503C117.338 29.2214 118.125 27.3645 119.465 26.0148C120.798 24.6651 122.523 23.9859 124.302 24.0977C126.853 24.2696 129.064 26.032 130.071 28.697C130.48 29.7802 130.661 30.9322 130.601 32.1272C130.396 36.1677 127.436 39.2884 123.924 39.2884ZM123.909 25.413C122.554 25.413 121.267 25.9718 120.245 27.0034C119.14 28.121 118.489 29.6513 118.405 31.3277C118.322 33.0127 118.822 34.6375 119.821 35.8926C120.797 37.122 122.145 37.8527 123.598 37.9473C126.634 38.145 129.253 35.4972 129.427 32.0498C129.48 31.0698 129.329 30.1155 128.996 29.2214C128.163 27.0206 126.339 25.5677 124.234 25.4216C124.128 25.4216 124.015 25.413 123.909 25.413Z" fill="#390075"/>
<g opacity="0.3">
<path d="M128.663 30.5712C128.89 31.4996 128.814 32.5141 128.526 33.4511C128.239 34.3882 127.724 35.2479 127.065 35.9184C126.407 36.589 125.597 37.0704 124.741 37.2854C123.893 37.5003 122.993 37.4659 122.213 37.1048C123.023 36.8383 123.742 36.5546 124.401 36.1764C125.059 35.7981 125.65 35.3425 126.187 34.8008C126.717 34.2592 127.194 33.6403 127.595 32.9439C128.004 32.2476 128.337 31.4652 128.663 30.5798V30.5712Z" fill="#390075"/>
</g>
<path d="M92.697 79.4188L84.2716 71.054C83.2572 70.0396 83.3934 68.0881 84.5668 66.9533L86.2625 65.3113L97.4509 76.4185L96.2397 78.5419C95.407 80.012 93.7189 80.4333 92.697 79.4188Z" fill="#EC1C24"/>
<g opacity="0.5">
<path d="M84.7936 67.3144L86.4893 65.6724L97.6777 76.7796L97.6323 76.8655L87.3144 66.618L85.6187 68.26C84.6195 69.2315 84.3697 70.7961 84.9601 71.8621L84.5059 71.4151C83.4916 70.4007 83.6278 68.4492 84.8012 67.3144H84.7936Z" fill="white"/>
</g>
<g opacity="0.35">
<path d="M97.4517 76.4185L96.2405 78.5419C95.4078 80.012 93.7197 80.4333 92.6977 79.4188L89.647 76.3927C90.5478 76.5389 91.5622 76.023 92.1527 74.9828L93.3639 72.8594L86.0059 65.552L86.2557 65.3113L97.4441 76.4185H97.4517Z" fill="#390075"/>
</g>
<path d="M94.1365 81.1554C93.5158 81.1554 92.9405 80.9147 92.4787 80.459L83.4023 71.4495C82.8497 70.8992 82.5469 70.1083 82.5469 69.2314C82.5469 68.2342 82.9557 67.2713 83.6521 66.6008L86.2637 64.0647L98.5347 76.2465L96.6725 79.5305C96.1728 80.4074 95.3931 80.9834 94.5226 81.121C94.3939 81.1382 94.2576 81.1554 94.1289 81.1554H94.1365ZM86.2637 66.5664L84.7422 68.0451C84.4167 68.3632 84.2274 68.8102 84.2198 69.2486C84.2198 69.4292 84.2577 69.7816 84.4999 70.031L93.5763 79.0405C93.8261 79.2898 94.1365 79.2812 94.2955 79.2554C94.6816 79.1953 95.0449 78.9116 95.2796 78.5075L96.3621 76.599L86.2637 66.5664Z" fill="#390075"/>
<path d="M117.821 64.5375L113.552 58.5025C109.751 53.138 105.262 48.4957 100.191 44.7045L95.2246 40.9992L95.8378 39.9418L100.804 43.647C105.966 47.5071 110.546 52.2354 114.415 57.703L118.684 63.738L117.821 64.529V64.5375Z" fill="#390075"/>
<g opacity="0.35">
<path d="M130.69 38.7038C128.124 41.8933 124.21 42.8561 120.834 41.4892C120.092 41.068 119.388 40.5264 118.752 39.8644C118.707 39.8214 118.662 39.7698 118.616 39.7183C121.977 41.0594 125.868 40.0879 128.427 36.9071C131.796 32.7118 131.584 26.2383 127.973 22.3439C127.988 22.3439 128.011 22.3611 128.026 22.3697C128.76 22.7909 129.464 23.3325 130.1 23.9859C133.839 27.8631 134.104 34.4484 130.69 38.6952V38.7038Z" fill="#390075"/>
</g>
<g opacity="0.3">
<path d="M73.666 53.8516C73.666 53.8516 77.504 51.582 81.6751 51.6594C84.7106 51.7196 87.5796 50.0947 89.457 47.3867C90.7288 45.5556 92.4926 43.3118 94.9074 40.6725L95.7704 40.8531C95.7704 40.8531 88.8363 51.9173 88.4653 57.0238C88.4653 57.0238 81.5691 52.0806 73.666 53.8602V53.8516Z" fill="#390075"/>
</g>
<path d="M144.203 25.817C135.566 10.7896 126.845 8.13318 126.762 8.10739L127.034 6.88663C127.405 6.98979 136.232 9.64624 145.134 25.1293L144.203 25.817Z" fill="#390075"/>
<path d="M132.159 154.255C136.791 154.255 140.547 149.99 140.547 144.73C140.547 139.469 136.791 135.204 132.159 135.204C127.527 135.204 123.771 139.469 123.771 144.73C123.771 149.99 127.527 154.255 132.159 154.255Z" fill="#F9C710"/>
<g opacity="0.55">
<path d="M138.054 151.332C138.819 149.888 139.265 148.203 139.265 146.389C139.265 144.394 138.72 142.537 137.797 141.007C136.381 142.116 134.67 140.053 135.609 138.523C134.262 137.474 132.634 136.855 130.878 136.855C128.576 136.855 126.502 137.904 124.988 139.606C126.457 136.872 129.114 135.041 132.149 135.041C136.782 135.041 140.537 139.305 140.537 144.566C140.537 147.205 139.591 149.604 138.054 151.323V151.332Z" fill="white"/>
</g>
<path d="M132.158 149.724C134.587 149.724 136.556 147.488 136.556 144.729C136.556 141.971 134.587 139.735 132.158 139.735C129.729 139.735 127.76 141.971 127.76 144.729C127.76 147.488 129.729 149.724 132.158 149.724Z" fill="#F89F1D"/>
<g opacity="0.55">
<path d="M135.227 148.306C134.424 149.458 133.183 150.189 131.79 150.189C130.791 150.189 129.867 149.81 129.133 149.174C128.209 149.853 127.165 148.409 127.891 147.506C127.566 146.819 127.392 146.028 127.392 145.194C127.392 143.784 127.906 142.503 128.739 141.609C128.133 142.46 127.763 143.552 127.763 144.738C127.763 147.498 129.731 149.733 132.161 149.733C133.349 149.733 134.432 149.191 135.227 148.314V148.306Z" fill="white"/>
</g>
<g opacity="0.3">
<path d="M136.558 144.73C136.558 146.217 135.983 147.558 135.074 148.461C135.619 147.635 135.937 146.604 135.937 145.495C135.937 142.735 133.969 140.5 131.539 140.5C130.419 140.5 129.397 140.981 128.617 141.772C129.42 140.534 130.707 139.735 132.168 139.735C134.597 139.735 136.566 141.97 136.566 144.73H136.558Z" fill="#390075"/>
</g>
<path d="M132.159 155.201C127.072 155.201 122.938 150.507 122.938 144.73C122.938 138.952 127.072 134.258 132.159 134.258C137.246 134.258 141.379 138.952 141.379 144.73C141.379 150.507 137.246 155.201 132.159 155.201ZM132.159 136.15C127.995 136.15 124.604 140.001 124.604 144.73C124.604 149.458 127.995 153.309 132.159 153.309C136.322 153.309 139.714 149.458 139.714 144.73C139.714 140.001 136.322 136.15 132.159 136.15Z" fill="#390075"/>
<path d="M148.806 128.284H136.989C135.706 128.284 134.665 129.465 134.665 130.923V132.023C134.665 133.481 135.706 134.663 136.989 134.663H148.806C150.089 134.663 151.13 133.481 151.13 132.023V130.923C151.13 129.465 150.089 128.284 148.806 128.284Z" fill="#F9C710"/>
<g opacity="0.55">
<path d="M147.156 128.344H144.794V134.456H147.156V128.344Z" fill="white"/>
</g>
<path d="M139.199 128.344H134.839V134.456H139.199V128.344Z" fill="#F89F1D"/>
<g opacity="0.55">
<path d="M149.511 128.481H148.141V134.594H149.511V128.481Z" fill="white"/>
</g>
<path d="M149.699 135.608H136.095C134.846 135.608 133.832 134.456 133.832 133.038V129.917C133.832 128.499 134.846 127.347 136.095 127.347H149.699C150.948 127.347 151.962 128.499 151.962 129.917V133.038C151.962 134.456 150.948 135.608 149.699 135.608ZM136.095 129.229C135.762 129.229 135.497 129.539 135.497 129.908V133.029C135.497 133.407 135.77 133.708 136.095 133.708H149.699C150.032 133.708 150.297 133.399 150.297 133.029V129.908C150.297 129.53 150.024 129.229 149.699 129.229H136.095Z" fill="#390075"/>
<path d="M151.117 135.049H139.301C138.017 135.049 136.977 136.231 136.977 137.689V138.789C136.977 140.247 138.017 141.428 139.301 141.428H151.117C152.401 141.428 153.441 140.247 153.441 138.789V137.689C153.441 136.231 152.401 135.049 151.117 135.049Z" fill="#F9C710"/>
<g opacity="0.55">
<path d="M149.467 135.118H147.105V141.231H149.467V135.118Z" fill="white"/>
</g>
<path d="M141.511 135.118H137.15V141.231H141.511V135.118Z" fill="#F89F1D"/>
<g opacity="0.55">
<path d="M151.82 135.247H150.45V141.359H151.82V135.247Z" fill="white"/>
</g>
<path d="M152.01 142.374H138.407C137.158 142.374 136.136 141.222 136.136 139.795V136.674C136.136 135.256 137.15 134.095 138.407 134.095H152.01C153.259 134.095 154.281 135.247 154.281 136.674V139.795C154.281 141.213 153.267 142.374 152.01 142.374ZM138.407 135.995C138.074 135.995 137.809 136.305 137.809 136.674V139.795C137.809 140.173 138.081 140.474 138.407 140.474H152.01C152.343 140.474 152.608 140.165 152.608 139.795V136.674C152.608 136.296 152.336 135.995 152.01 135.995H138.407Z" fill="#390075"/>
<path d="M148.08 141.531H136.263C134.98 141.531 133.939 142.713 133.939 144.171V145.271C133.939 146.729 134.98 147.91 136.263 147.91H148.08C149.364 147.91 150.404 146.729 150.404 145.271V144.171C150.404 142.713 149.364 141.531 148.08 141.531Z" fill="#F9C710"/>
<g opacity="0.55">
<path d="M146.429 141.592H144.067V147.704H146.429V141.592Z" fill="white"/>
</g>
<path d="M138.473 141.592H134.112V147.704H138.473V141.592Z" fill="#F89F1D"/>
<g opacity="0.55">
<path d="M148.784 141.721H147.414V147.833H148.784V141.721Z" fill="white"/>
</g>
<path d="M148.972 148.856H135.369C134.12 148.856 133.098 147.704 133.098 146.277V143.156C133.098 141.738 134.112 140.577 135.369 140.577H148.972C150.221 140.577 151.243 141.729 151.243 143.156V146.277C151.243 147.695 150.229 148.856 148.972 148.856ZM135.369 142.477C135.036 142.477 134.771 142.787 134.771 143.156V146.277C134.771 146.655 135.043 146.956 135.369 146.956H148.972C149.305 146.956 149.57 146.647 149.57 146.277V143.156C149.57 142.778 149.297 142.477 148.972 142.477H135.369Z" fill="#390075"/>
<path d="M151.117 147.902H139.301C138.017 147.902 136.977 149.083 136.977 150.541V151.641C136.977 153.099 138.017 154.281 139.301 154.281H151.117C152.401 154.281 153.441 153.099 153.441 151.641V150.541C153.441 149.083 152.401 147.902 151.117 147.902Z" fill="#F9C710"/>
<g opacity="0.55">
<path d="M149.467 147.971H147.105V154.083H149.467V147.971Z" fill="white"/>
</g>
<path d="M141.511 147.971H137.15V154.083H141.511V147.971Z" fill="#F89F1D"/>
<g opacity="0.55">
<path d="M151.82 148.099H150.45V154.212H151.82V148.099Z" fill="white"/>
</g>
<path d="M152.01 155.235H138.407C137.158 155.235 136.136 154.083 136.136 152.656V149.535C136.136 148.117 137.15 146.956 138.407 146.956H152.01C153.259 146.956 154.281 148.108 154.281 149.535V152.656C154.281 154.074 153.267 155.235 152.01 155.235ZM138.407 148.856C138.074 148.856 137.809 149.166 137.809 149.535V152.656C137.809 153.034 138.081 153.335 138.407 153.335H152.01C152.343 153.335 152.608 153.026 152.608 152.656V149.535C152.608 149.157 152.336 148.856 152.01 148.856H138.407Z" fill="#390075"/>
<path d="M41.35 147.051H26.3084C25.4305 147.051 24.7188 147.859 24.7188 148.856V152.303C24.7188 153.3 25.4305 154.109 26.3084 154.109H41.35C42.228 154.109 42.9397 153.3 42.9397 152.303V148.856C42.9397 147.859 42.228 147.051 41.35 147.051Z" fill="#F9C710"/>
<path d="M41.3571 154.264H26.308C25.3542 154.264 24.582 153.387 24.582 152.303V148.847C24.582 147.764 25.3542 146.887 26.308 146.887H41.3571C42.3109 146.887 43.0831 147.764 43.0831 148.847V152.303C43.0831 153.387 42.3109 154.264 41.3571 154.264ZM26.308 147.205C25.5131 147.205 24.8621 147.945 24.8621 148.847V152.303C24.8621 153.206 25.5131 153.945 26.308 153.945H41.3571C42.152 153.945 42.803 153.206 42.803 152.303V148.847C42.803 147.945 42.152 147.205 41.3571 147.205H26.308Z" fill="#390075"/>
<g opacity="0.55">
<path d="M38.5413 147.12H35.9297V153.885H38.5413V147.12Z" fill="white"/>
</g>
<path d="M29.7457 147.12H24.916V153.885H29.7457V147.12Z" fill="#F89F1D"/>
<g opacity="0.55">
<path d="M41.1534 147.266H39.6318V154.031H41.1534V147.266Z" fill="white"/>
</g>
<path d="M41.3575 155.149H26.3084C24.9231 155.149 23.8027 153.868 23.8027 152.303V148.847C23.8027 147.274 24.9307 146.002 26.3084 146.002H41.3575C42.7428 146.002 43.8632 147.283 43.8632 148.847V152.303C43.8632 153.877 42.7353 155.149 41.3575 155.149ZM26.3084 148.091C25.945 148.091 25.6422 148.426 25.6422 148.847V152.303C25.6422 152.716 25.9375 153.06 26.3084 153.06H41.3575C41.7209 153.06 42.0237 152.725 42.0237 152.303V148.847C42.0237 148.435 41.7284 148.091 41.3575 148.091H26.3084Z" fill="#390075"/>
<path d="M25.4265 139.873L13.825 146.717C12.5636 147.462 12.0722 149.226 12.7275 150.659L13.2195 151.734C13.8748 153.167 15.4285 153.725 16.69 152.981L28.2914 146.137C29.5529 145.393 30.0443 143.628 29.389 142.196L28.897 141.12C28.2417 139.687 26.6879 139.129 25.4265 139.873Z" fill="#F9C710"/>
<g opacity="0.55">
<path d="M23.8323 140.894L21.5146 142.261L24.2609 148.265L26.5785 146.898L23.8323 140.894Z" fill="white"/>
</g>
<path d="M16.0281 145.498L11.7422 148.026L14.4885 154.031L18.7744 151.502L16.0281 145.498Z" fill="#F89F1D"/>
<g opacity="0.55">
<path d="M26.2233 139.66L24.873 140.456L27.6193 146.46L28.9696 145.664L26.2233 139.66Z" fill="white"/>
</g>
<path d="M15.0904 154.745C14.833 154.745 14.5832 154.702 14.3334 154.607C13.6975 154.375 13.1752 153.877 12.8648 153.206L11.4644 150.137C11.154 149.458 11.0935 148.693 11.2978 147.962C11.5022 147.24 11.9413 146.647 12.5318 146.294L25.8852 138.419C26.4757 138.067 27.157 137.998 27.8004 138.23C28.4363 138.462 28.9586 138.961 29.269 139.632L30.6694 142.701C30.9798 143.38 31.0404 144.145 30.836 144.876C30.6316 145.598 30.1925 146.191 29.6021 146.543L16.2486 154.427C15.8853 154.642 15.4916 154.745 15.098 154.745H15.0904ZM27.0358 140.199C26.9299 140.199 26.8239 140.225 26.733 140.285L13.3796 148.168C13.2206 148.263 13.1071 148.418 13.0541 148.607C13.0011 148.796 13.0162 149.002 13.0995 149.183L14.4999 152.252C14.5832 152.432 14.7195 152.561 14.886 152.622C15.0526 152.682 15.2342 152.664 15.3932 152.57L28.7467 144.687C28.9056 144.592 29.0192 144.437 29.0722 144.248C29.1252 144.059 29.11 143.853 29.0267 143.672L27.6263 140.603C27.543 140.422 27.4068 140.294 27.2402 140.233C27.1721 140.208 27.104 140.199 27.0358 140.199Z" fill="#390075"/>
<defs>
<linearGradient id="paint0_linear_60_5688" x1="133.805" y1="70.0223" x2="98.0429" y2="120.525" gradientUnits="userSpaceOnUse">
<stop stop-color="white"/>
<stop offset="1" stop-color="white"/>
</linearGradient>
<linearGradient id="paint1_linear_60_5688" x1="110.299" y1="33.6574" x2="43.5555" y2="116.624" gradientUnits="userSpaceOnUse">
<stop stop-color="white"/>
<stop offset="1" stop-color="white"/>
</linearGradient>
<linearGradient id="paint2_linear_60_5688" x1="64.493" y1="56.2845" x2="34.1197" y2="96.0238" gradientUnits="userSpaceOnUse">
<stop stop-color="white"/>
<stop offset="1" stop-color="white"/>
</linearGradient>
</defs>
</svg>
